SplineFontDB: 3.0
FontName: Signika-Regular
FullName: Signika Regular
FamilyName: Signika
Weight: Regular
Copyright: Copyright (c) 2011 by Anna Giedrys (http://ancymonic.com), with Reserved Font Names "Signika".
Version: 001.001
ItalicAngle: 0
UnderlinePosition: -100
UnderlineWidth: 50
Ascent: 800
Descent: 200
sfntRevision: 0x00010042
LayerCount: 2
Layer: 0 1 "Back"  1
Layer: 1 1 "Fore"  0
NeedsXUIDChange: 1
XUID: [1021 288 713564382 13131462]
FSType: 0
OS2Version: 2
OS2_WeightWidthSlopeOnly: 0
OS2_UseTypoMetrics: 1
CreationTime: 1321815037
ModificationTime: 1321846596
PfmFamily: 17
TTFWeight: 400
TTFWidth: 5
LineGap: 0
VLineGap: 0
Panose: 2 1 0 3 2 6 0 0 0 4
OS2TypoAscent: 140
OS2TypoAOffset: 1
OS2TypoDescent: -92
OS2TypoDOffset: 1
OS2TypoLinegap: 0
OS2WinAscent: 37
OS2WinAOffset: 1
OS2WinDescent: 29
OS2WinDOffset: 1
HheadAscent: 37
HheadAOffset: 1
HheadDescent: -29
HheadDOffset: 1
OS2SubXSize: 700
OS2SubYSize: 650
OS2SubXOff: 0
OS2SubYOff: 140
OS2SupXSize: 700
OS2SupYSize: 650
OS2SupXOff: 0
OS2SupYOff: 477
OS2StrikeYSize: 50
OS2StrikeYPos: 250
OS2CodePages: 00000093.00000000
OS2UnicodeRanges: a00000ef.40000043.00000000.00000000
Lookup: 1 0 0 "'aalt' Access All Alternates lookup 0"  {"'aalt' Access All Alternates lookup 0 subtable"  } ['aalt' ('    ' <'dflt' > 'latn' <'dflt' > ) ]
Lookup: 3 0 0 "'aalt' Access All Alternates lookup 1"  {"'aalt' Access All Alternates lookup 1 subtable"  } ['aalt' ('    ' <'dflt' > 'latn' <'dflt' > ) ]
Lookup: 1 0 0 "'smcp' Lowercase to Small Capitals lookup 2"  {"'smcp' Lowercase to Small Capitals lookup 2 subtable"  } ['smcp' ('    ' <'dflt' > 'latn' <'dflt' > ) ]
Lookup: 1 0 0 "'c2sc' Capitals to Small Capitals lookup 3"  {"'c2sc' Capitals to Small Capitals lookup 3 subtable"  } ['c2sc' ('    ' <'dflt' > 'latn' <'dflt' > ) ]
Lookup: 4 0 0 "'frac' Diagonal Fractions lookup 4"  {"'frac' Diagonal Fractions lookup 4 subtable"  } ['frac' ('    ' <'dflt' > 'latn' <'dflt' > ) ]

StartChar: a
Encoding: 97 97 5
Width: 507
Flags: HMW
HStem: -13 82<191.5 223> 228 72<211 248.5 180.5 255> 421 83<235.5 275>
VStem: 43 103<121.5 169 121.5 191> 331 102<129 132 132 224 224 224 293 332 332 337>
LayerCount: 2
Fore
SplineSet
461 46 m 1,0,1
 449 9 449 9 422 -7 c 1,2,3
 363 4 363 4 342 55 c 1,4,5
 272 -13 272 -13 196.5 -13 c 0,6,7
 121 -13 121 -13 82 31 c 128,-1,8
 43 75 43 75 43 134 c 0,9,10
 43 216 43 216 96 258 c 128,-1,11
 149 300 149 300 235 300 c 0,12,13
 285 300 285 300 331 293 c 1,14,-1
 331 332 l 2,15,16
 331 421 331 421 249 421 c 0,17,18
 191 421 191 421 92 383 c 1,19,20
 64 409 64 409 62 458 c 1,21,22
 165 504 165 504 269 504 c 0,23,24
 346 504 346 504 389.5 462 c 128,-1,25
 433 420 433 420 433 337 c 2,26,-1
 433 132 l 2,27,28
 433 70 433 70 461 46 c 1,0,1
213 69 m 0,29,30
 277 69 277 69 331 129 c 1,31,-1
 331 224 l 1,32,33
 291 228 291 228 243.5 228 c 0,34,35
 196 228 196 228 171 205.5 c 128,-1,36
 146 183 146 183 146 146.5 c 0,37,38
 146 110 146 110 164 89.5 c 128,-1,39
 182 69 182 69 213 69 c 0,29,30
EndSplineSet
Substitution2: "'ordn' Ordinals lookup 6 subtable" ordfeminine
Substitution2: "'smcp' Lowercase to Small Capitals lookup 2 subtable" a.smcp
AlternateSubs2: "'aalt' Access All Alternates lookup 1 subtable" a.smcp ordfeminine
EndChar

StartChar: b
Encoding: 98 98 6
Width: 528
Flags: HMW
HStem: -8 77<245.5 295.5 245.5 321.5> 416 86<283 313.5>
VStem: 78 101<81 359 451 669> 379 105<253 310>
LayerCount: 2
Fore
SplineSet
439.5 434 m 128,-1,1
 484 366 484 366 484.5 246.5 c 128,-1,2
 485 127 485 127 421.5 59.5 c 128,-1,3
 358 -8 358 -8 262 -8 c 128,-1,4
 166 -8 166 -8 78 25 c 1,5,-1
 78 729 l 1,6,-1
 84 735 l 1,7,-1
 123 735 l 2,8,9
 154 735 154 735 166.5 719.5 c 128,-1,10
 179 704 179 704 179 669 c 2,11,-1
 179 451 l 1,12,13
 239 502 239 502 317 502 c 128,-1,0
 395 502 395 502 439.5 434 c 128,-1,1
288 416 m 0,14,15
 228 416 228 416 179 359 c 1,16,-1
 179 81 l 1,17,18
 216 69 216 69 265.5 69 c 128,-1,19
 315 69 315 69 347 116 c 128,-1,20
 379 163 379 163 379 249 c 128,-1,21
 379 335 379 335 354 375.5 c 128,-1,22
 329 416 329 416 288 416 c 0,14,15
EndSplineSet
Substitution2: "'smcp' Lowercase to Small Capitals lookup 2 subtable" b.smcp
Substitution2: "'aalt' Access All Alternates lookup 0 subtable" b.smcp
EndChar

StartChar: c
Encoding: 99 99 7
Width: 471
Flags: HMW
HStem: -13 85<228 284> 427 80<219.5 287.5>
VStem: 44 107<184 305 184 336.5> 339 95
LayerCount: 2
Fore
SplineSet
339 303 m 1,0,1
 343 427 343 427 251 427 c 0,2,3
 203 427 203 427 177 380.5 c 128,-1,4
 151 334 151 334 151 244 c 0,5,6
 151 72 151 72 264 72 c 0,7,8
 320 72 320 72 385 122 c 1,9,10
 399 114 399 114 412 96 c 128,-1,11
 425 78 425 78 429 61 c 1,12,13
 355 -13 355 -13 250.5 -13 c 0,14,15
 146 -13 146 -13 95 59.5 c 128,-1,16
 44 132 44 132 44 253 c 0,17,18
 44 374 44 374 105 440.5 c 128,-1,19
 166 507 166 507 252 507 c 0,20,21
 338 507 338 507 386 460.5 c 128,-1,22
 434 414 434 414 434 356.5 c 0,23,24
 434 299 434 299 382 299 c 0,25,26
 358 299 358 299 339 303 c 1,0,1
EndSplineSet
Substitution2: "'smcp' Lowercase to Small Capitals lookup 2 subtable" c.smcp
Substitution2: "'aalt' Access All Alternates lookup 0 subtable" c.smcp
EndChar

StartChar: d
Encoding: 100 100 8
Width: 530
Flags: HMW
HStem: -13 86<216 246> 420 82<222 256.5 188 267>
VStem: 44 105<180.5 301 180.5 330> 349 101<136 141 141 384 384 384 469 669>
LayerCount: 2
Fore
SplineSet
88.5 56 m 128,-1,1
 44 125 44 125 44 246 c 128,-1,2
 44 367 44 367 100.5 434.5 c 128,-1,3
 157 502 157 502 236 502 c 0,4,5
 290 502 290 502 349 469 c 1,6,-1
 349 729 l 1,7,-1
 356 735 l 1,8,-1
 395 735 l 2,9,10
 426 735 426 735 438 720 c 128,-1,11
 450 705 450 705 450 669 c 2,12,-1
 450 141 l 2,13,14
 450 71 450 71 478 46 c 1,15,16
 474 32 474 32 463 16 c 128,-1,17
 452 0 452 0 440 -7 c 1,18,19
 384 3 384 3 361 55 c 1,20,21
 302 -13 302 -13 217.5 -13 c 128,-1,0
 133 -13 133 -13 88.5 56 c 128,-1,1
240 73 m 0,22,23
 305 73 305 73 349 136 c 1,24,-1
 349 384 l 1,25,26
 293 420 293 420 249.5 420 c 128,-1,27
 206 420 206 420 177.5 374 c 128,-1,28
 149 328 149 328 149 242 c 128,-1,29
 149 156 149 156 175 114.5 c 128,-1,30
 201 73 201 73 240 73 c 0,22,23
EndSplineSet
Substitution2: "'smcp' Lowercase to Small Capitals lookup 2 subtable" d.smcp
Substitution2: "'aalt' Access All Alternates lookup 0 subtable" d.smcp
EndChar

StartChar: e
Encoding: 101 101 9
Width: 500
Flags: HMW
HStem: -13 84<223.5 285> 214 75<150 352 150 444 150 352> 430 77<220 288>
VStem: 44 106<214 214 214 289 214 320.5> 352 99<289 302 302 337>
LayerCount: 2
Fore
SplineSet
444 214 m 1,0,-1
 150 214 l 1,1,2
 153 146 153 146 179.5 108.5 c 128,-1,3
 206 71 206 71 269 71 c 128,-1,4
 332 71 332 71 405 109 c 1,5,6
 430 86 430 86 438 43 c 1,7,8
 359 -13 359 -13 250 -13 c 0,9,10
 135.2 -13 135.2 -13 87.5 66.5 c 0,11,12
 44 139 44 139 44 250.5 c 128,-1,13
 44 362 44 362 98 434.5 c 128,-1,14
 152 507 152 507 249 507 c 128,-1,15
 346 507 346 507 398.5 446.5 c 128,-1,16
 451 386 451 386 451 293 c 0,17,18
 451 253 451 253 444 214 c 1,0,-1
252 430 m 0,19,20
 158 430 158 430 150 289 c 1,21,-1
 352 289 l 1,22,-1
 352 302 l 2,23,24
 352 359 352 359 327.5 394.5 c 128,-1,25
 303 430 303 430 252 430 c 0,19,20
EndSplineSet
Substitution2: "'smcp' Lowercase to Small Capitals lookup 2 subtable" e.smcp
Substitution2: "'aalt' Access All Alternates lookup 0 subtable" e.smcp
EndChar

StartChar: f
Encoding: 102 102 10
Width: 333
Flags: HMW
HStem: 419 76
VStem: 101 101<0 420 0 420>
LayerCount: 2
Fore
SplineSet
101 0 m 1,0,-1
 101 420 l 1,1,-1
 15 418 l 1,2,3
 11 435 11 435 11 456.5 c 0,4,5
 11 478 11 478 15 495 c 1,6,-1
 96 494 l 1,7,8
 90 556 90 556 90 583 c 0,9,10
 90 652 90 652 131 695.5 c 128,-1,11
 172 739 172 739 242.5 739 c 0,12,13
 313 739 313 739 372 716 c 1,14,15
 372 672 372 672 348 646 c 1,16,17
 299 661 299 661 263 661 c 0,18,19
 227 661 227 661 207.5 639 c 128,-1,20
 188 617 188 617 188 580.5 c 0,21,22
 188 544 188 544 195 493 c 1,23,-1
 336 495 l 1,24,25
 340 478 340 478 340 456.5 c 0,26,27
 340 435 340 435 336 418 c 1,28,-1
 202 420 l 1,29,-1
 202 0 l 1,30,31
 181 -4 181 -4 151 -4 c 128,-1,32
 121 -4 121 -4 101 0 c 1,0,-1
EndSplineSet
Substitution2: "'smcp' Lowercase to Small Capitals lookup 2 subtable" f.smcp
Substitution2: "'aalt' Access All Alternates lookup 0 subtable" f.smcp
EndChar

StartChar: g
Encoding: 103 103 11
Width: 528
Flags: HMW
HStem: -220 80<208.5 276> -9 86<214.5 244.5> 424 83<222 266 188 267.5> 481 20G
VStem: 44 105<185.5 306 185.5 334.5> 351 100<-0.5 45 45 45 136 353>
LayerCount: 2
Fore
SplineSet
88.5 60 m 128,-1,1
 44 129 44 129 44 250 c 128,-1,2
 44 371 44 371 101 439 c 128,-1,3
 158 507 158 507 236.5 507 c 128,-1,4
 315 507 315 507 372 455 c 1,5,6
 394 491 394 491 441 501 c 1,7,8
 453 493 453 493 464.5 477 c 128,-1,9
 476 461 476 461 479 448 c 1,10,11
 451 421 451 421 451 353 c 2,12,-1
 451 57 l 2,13,14
 451 -95 451 -95 401 -157.5 c 128,-1,15
 351 -220 351 -220 238 -220 c 0,16,17
 149 -220 149 -220 65 -187 c 1,18,19
 67 -139 67 -139 92 -109 c 1,20,21
 157 -140 157 -140 228 -140 c 128,-1,22
 299 -140 299 -140 325 -103.5 c 128,-1,23
 351 -67 351 -67 351 -1 c 2,24,-1
 351 45 l 1,25,26
 292 -9 292 -9 212.5 -9 c 128,-1,0
 133 -9 133 -9 88.5 60 c 128,-1,1
351 136 m 1,27,-1
 351 379 l 1,28,29
 301 424 301 424 253 424 c 128,-1,30
 205 424 205 424 177 378.5 c 128,-1,31
 149 333 149 333 149 246.5 c 128,-1,32
 149 160 149 160 174 118.5 c 128,-1,33
 199 77 199 77 239 77 c 0,34,35
 302 77 302 77 351 136 c 1,27,-1
EndSplineSet
Substitution2: "'smcp' Lowercase to Small Capitals lookup 2 subtable" g.smcp
Substitution2: "'aalt' Access All Alternates lookup 0 subtable" g.smcp
EndChar

StartChar: h
Encoding: 104 104 12
Width: 544
Flags: HMW
HStem: 409 93<307.5 328.5>
VStem: 78 101<0 347 0 436 436 669> 367 103<88.5 106 106 313 313 338>
LayerCount: 2
Fore
SplineSet
470 338 m 2,0,-1
 470 106 l 2,1,2
 470 47 470 47 486 15 c 1,3,4
 458 -7 458 -7 425 -7 c 0,5,6
 392 -7 392 -7 379.5 9.5 c 128,-1,7
 367 26 367 26 367 59 c 2,8,-1
 367 313 l 2,9,10
 367 365 367 365 353.5 387 c 128,-1,11
 340 409 340 409 307 409 c 0,12,13
 274 409 274 409 239.5 392 c 128,-1,14
 205 375 205 375 179 347 c 1,15,-1
 179 0 l 1,16,17
 160 -4 160 -4 129 -4 c 0,18,19
 98 -4 98 -4 78 0 c 1,20,-1
 78 729 l 1,21,-1
 84 735 l 1,22,-1
 124 735 l 2,23,24
 155 735 155 735 167 720 c 128,-1,25
 179 705 179 705 179 669 c 2,26,-1
 179 436 l 1,27,28
 252 502 252 502 337 502 c 0,29,30
 404 502 404 502 437 457 c 128,-1,31
 470 412 470 412 470 338 c 2,0,-1
EndSplineSet
Substitution2: "'smcp' Lowercase to Small Capitals lookup 2 subtable" h.smcp
Substitution2: "'aalt' Access All Alternates lookup 0 subtable" h.smcp
EndChar

StartChar: j
Encoding: 106 106 14
Width: 278
Flags: HMW
HStem: -219 21G 418 79<36 122 36 122> 587 89<76 76 186 186>
VStem: 67 119 99 102<-32 18 18 366 366 384>
LayerCount: 2
Fore
SplineSet
201 408 m 2,0,-1
 201 18 l 2,1,2
 201 -118.935483871 201 -118.935483871 166.5 -159 c 0,3,4
 130.699115044 -200.575221239 130.699115044 -200.575221239 57 -219 c 1,5,6
 32 -195 32 -195 27 -156 c 1,7,8
 69 -135 69 -135 84 -109.5 c 128,-1,9
 99 -84 99 -84 99 -32 c 2,10,-1
 99 366 l 2,11,12
 99 394 99 394 89.5 406 c 128,-1,13
 80 418 80 418 56 418 c 2,14,-1
 36 418 l 1,15,16
 31 440 31 440 31 455 c 128,-1,17
 31 470 31 470 36 493 c 1,18,19
 72 497 72 497 109 497 c 2,20,-1
 122 497 l 2,21,22
 159 497 159 497 180 473 c 128,-1,23
 201 449 201 449 201 408 c 2,0,-1
76 587 m 1,24,25
 67 605 67 605 67 631.5 c 128,-1,26
 67 658 67 658 76 676 c 1,27,28
 97 688 97 688 132 688 c 128,-1,29
 167 688 167 688 186 676 c 1,30,31
 195 658 195 658 195 631.5 c 128,-1,32
 195 605 195 605 186 587 c 1,33,34
 170 574 170 574 132 574 c 128,-1,35
 94 574 94 574 76 587 c 1,24,25
EndSplineSet
Substitution2: "'smcp' Lowercase to Small Capitals lookup 2 subtable" j.smcp
Substitution2: "'aalt' Access All Alternates lookup 0 subtable" j.smcp
EndChar

StartChar: k
Encoding: 107 107 15
Width: 502
Flags: HMW
HStem: 215 86<217.5 218.5 213 248> 488 9
VStem: 78 101<0 213 0 299 299 669>
LayerCount: 2
Fore
SplineSet
403 186 m 2,0,-1
 437 103 l 1,1,2
 460 42 460 42 485 25 c 1,3,4
 457 -7 457 -7 416 -7 c 0,5,6
 390 -7 390 -7 376 6.5 c 128,-1,7
 362 20 362 20 350 51 c 2,8,-1
 310 149 l 2,9,10
 294 188 294 188 276.5 201.5 c 128,-1,11
 259 215 259 215 235 215 c 0,12,13
 211 215 211 215 179 213 c 1,14,-1
 179 0 l 1,15,16
 160 -4 160 -4 129 -4 c 0,17,18
 98 -4 98 -4 78 0 c 1,19,-1
 78 729 l 1,20,-1
 84 735 l 1,21,-1
 124 735 l 2,22,23
 155 735 155 735 167 720 c 128,-1,24
 179 705 179 705 179 669 c 2,25,-1
 179 299 l 1,26,-1
 213 301 l 2,27,28
 229 301 229 301 237 315 c 2,29,-1
 325 453 l 1,30,31
 350 497 350 497 389 497 c 0,32,33
 428 497 428 497 447 496 c 1,34,-1
 453 488 l 1,35,-1
 344 315 l 2,36,37
 329 291 329 291 311 276 c 1,38,39
 373 260 373 260 403 186 c 2,0,-1
EndSplineSet
Substitution2: "'smcp' Lowercase to Small Capitals lookup 2 subtable" k.smcp
Substitution2: "'aalt' Access All Alternates lookup 0 subtable" k.smcp
EndChar

StartChar: l
Encoding: 108 108 16
Width: 294
Flags: HMW
HStem: -4 81<142.5 254>
VStem: 76 102<107 122 122 669>
LayerCount: 2
Fore
SplineSet
217 77 m 2,0,-1
 254 77 l 1,1,2
 263 52 263 52 263 33 c 0,3,4
 263 14 263 14 260 3 c 1,5,6
 220 -4 220 -4 175 -4 c 0,7,8
 76 -4 76 -4 76 99 c 2,9,-1
 76 729 l 1,10,-1
 83 735 l 1,11,-1
 122 735 l 2,12,13
 153 735 153 735 165.5 719.5 c 128,-1,14
 178 704 178 704 178 669 c 2,15,-1
 178 122 l 2,16,17
 178 77 178 77 217 77 c 2,0,-1
EndSplineSet
Substitution2: "'smcp' Lowercase to Small Capitals lookup 2 subtable" l.smcp
Substitution2: "'aalt' Access All Alternates lookup 0 subtable" l.smcp
EndChar

StartChar: m
Encoding: 109 109 17
Width: 797
Flags: HMW
HStem: 409 94<296.5 309 566.5 580>
VStem: 78 103<0 348 0 491> 349 103<0 313 313 347 347 348> 620 104<88.5 106 106 314 314 346>
LayerCount: 2
Fore
SplineSet
349 313 m 2,0,1
 349 364 349 364 334.5 386.5 c 128,-1,2
 320 409 320 409 289 409 c 0,3,4
 235 409 235 409 181 348 c 1,5,-1
 181 0 l 1,6,7
 162 -4 162 -4 130 -4 c 128,-1,8
 98 -4 98 -4 78 0 c 1,9,-1
 78 491 l 1,10,-1
 84 498 l 1,11,-1
 123 498 l 2,12,13
 177 498 177 498 180 435 c 1,14,15
 250 503 250 503 327 503 c 128,-1,16
 404 503 404 503 436 429 c 1,17,18
 517 503 517 503 595 503 c 0,19,20
 658 503 658 503 691 459 c 128,-1,21
 724 415 724 415 724 346 c 2,22,-1
 724 106 l 2,23,24
 724 45 724 45 740 15 c 1,25,26
 712 -7 712 -7 675 -7 c 0,27,28
 620 -7 620 -7 620 59 c 2,29,-1
 620 314 l 2,30,31
 620 365 620 365 605.5 387 c 128,-1,32
 591 409 591 409 560 409 c 0,33,34
 506 409 506 409 452 348 c 1,35,-1
 452 0 l 1,36,37
 433 -4 433 -4 400.5 -4 c 128,-1,38
 368 -4 368 -4 349 0 c 1,39,-1
 349 313 l 2,0,1
EndSplineSet
Substitution2: "'smcp' Lowercase to Small Capitals lookup 2 subtable" m.smcp
Substitution2: "'aalt' Access All Alternates lookup 0 subtable" m.smcp
EndChar

StartChar: n
Encoding: 110 110 18
Width: 546
Flags: HMW
HStem: 409 94<309 331> 478 20G<84 123 123 142.5>
VStem: 78 103<0 347 0 492> 369 103<88.5 106 106 313 313 339>
LayerCount: 2
Fore
SplineSet
472 339 m 2,0,-1
 472 106 l 2,1,2
 472 46 472 46 489 15 c 1,3,4
 462 -7 462 -7 428 -7 c 0,5,6
 394 -7 394 -7 381.5 9.5 c 128,-1,7
 369 26 369 26 369 59 c 2,8,-1
 369 313 l 2,9,10
 369 365 369 365 355.5 387 c 128,-1,11
 342 409 342 409 309 409 c 0,12,13
 276 409 276 409 241.5 392.5 c 128,-1,14
 207 376 207 376 181 347 c 1,15,-1
 181 0 l 1,16,17
 162 -4 162 -4 130 -4 c 128,-1,18
 98 -4 98 -4 78 0 c 1,19,-1
 78 492 l 1,20,-1
 84 498 l 1,21,-1
 123 498 l 2,22,23
 177 498 177 498 180 436 c 1,24,25
 254 503 254 503 339 503 c 0,26,27
 406 503 406 503 439 458 c 128,-1,28
 472 413 472 413 472 339 c 2,0,-1
EndSplineSet
Substitution2: "'smcp' Lowercase to Small Capitals lookup 2 subtable" n.smcp
Substitution2: "'aalt' Access All Alternates lookup 0 subtable" n.smcp
EndChar

StartChar: o
Encoding: 111 111 19
Width: 520
Flags: HMW
HStem: -13 79<230.5 289.5> 428 79<230.5 289.5 230.5 303>
VStem: 44 107<205.5 288> 370 106<205.5 288 205.5 293>
LayerCount: 2
Fore
SplineSet
476 247 m 128,-1,1
 476 113 476 113 405 42 c 0,2,3
 350 -13 350 -13 260 -13 c 128,-1,4
 170 -13 170 -13 115 42 c 0,5,6
 44 113 44 113 44 247 c 128,-1,7
 44 381 44 381 115 452 c 0,8,9
 170 507 170 507 260 507 c 128,-1,10
 350 507 350 507 405 452 c 0,11,0
 476 381 476 381 476 247 c 128,-1,1
151 247 m 128,-1,13
 151 66 151 66 260.5 66 c 0,14,15
 370 66 370 66 370 247 c 128,-1,16
 370 428 370 428 260.5 428 c 0,17,12
 151 428 151 428 151 247 c 128,-1,13
EndSplineSet
Substitution2: "'ordn' Ordinals lookup 6 subtable" ordmasculine
Substitution2: "'smcp' Lowercase to Small Capitals lookup 2 subtable" o.smcp
AlternateSubs2: "'aalt' Access All Alternates lookup 1 subtable" o.smcp ordmasculine
EndChar

StartChar: p
Encoding: 112 112 20
Width: 530
Flags: HMW
HStem: -215 21G<84 124 84 84> -209 21G<78 78> -9 83<273 308 262.5 342> 420 87<286 314> 478 20G<84 116 116 133>
VStem: 78 102<-172 -149 -149 24 110 355> 381 105<192 312.5>
LayerCount: 2
Fore
SplineSet
441.5 438 m 128,-1,1
 486 369 486 369 486 248 c 128,-1,2
 486 127 486 127 429.5 59 c 128,-1,3
 373 -9 373 -9 294 -9 c 0,4,5
 239 -9 239 -9 180 24 c 1,6,-1
 180 -149 l 2,7,8
 180 -184 180 -184 167.5 -199.5 c 128,-1,9
 155 -215 155 -215 124 -215 c 2,10,-1
 84 -215 l 1,11,-1
 78 -209 l 1,12,-1
 78 492 l 1,13,-1
 84 498 l 1,14,-1
 116 498 l 2,15,16
 166 498 166 498 177 447 c 1,17,18
 235 507 235 507 316 507 c 128,-1,0
 397 507 397 507 441.5 438 c 128,-1,1
290 420 m 0,19,20
 225 420 225 420 180 355 c 1,21,-1
 180 110 l 1,22,23
 234 74 234 74 279 74 c 128,-1,24
 324 74 324 74 352.5 119.5 c 128,-1,25
 381 165 381 165 381 251 c 128,-1,26
 381 337 381 337 355 378.5 c 128,-1,27
 329 420 329 420 290 420 c 0,19,20
EndSplineSet
Substitution2: "'smcp' Lowercase to Small Capitals lookup 2 subtable" p.smcp
Substitution2: "'aalt' Access All Alternates lookup 0 subtable" p.smcp
EndChar

StartChar: q
Encoding: 113 113 21
Width: 529
Flags: HMW
HStem: -215 21G<384 406 406 445> -209 21G<451 451> -9 86<215 244.5> 424 83<222.5 266 188 267.5> 481 20G
VStem: 44 105<185.5 306 185.5 334.5> 350 101<-149 43 43 43 135 353 -209 369 -209 380 -209 380>
LayerCount: 2
Fore
SplineSet
350 -149 m 2,0,-1
 350 43 l 1,1,2
 291 -9 291 -9 212 -9 c 128,-1,3
 133 -9 133 -9 88.5 60 c 128,-1,4
 44 129 44 129 44 250 c 128,-1,5
 44 371 44 371 101 439 c 128,-1,6
 158 507 158 507 236 507 c 128,-1,7
 314 507 314 507 372 456 c 1,8,9
 396 491 396 491 440 501 c 1,10,11
 452 494 452 494 463.5 478 c 128,-1,12
 475 462 475 462 479 448 c 1,13,14
 451 423 451 423 451 353 c 2,15,-1
 451 -209 l 1,16,-1
 445 -215 l 1,17,-1
 406 -215 l 2,18,19
 374 -215 374 -215 362 -200 c 128,-1,20
 350 -185 350 -185 350 -149 c 2,0,-1
239 77 m 0,21,22
 300 77 300 77 350 135 c 1,23,-1
 350 380 l 1,24,25
 299 424 299 424 252.5 424 c 128,-1,26
 206 424 206 424 177.5 378.5 c 128,-1,27
 149 333 149 333 149 247 c 128,-1,28
 149 161 149 161 174.5 119 c 128,-1,29
 200 77 200 77 239 77 c 0,21,22
EndSplineSet
Substitution2: "'smcp' Lowercase to Small Capitals lookup 2 subtable" q.smcp
Substitution2: "'aalt' Access All Alternates lookup 0 subtable" q.smcp
EndChar

StartChar: r
Encoding: 114 114 22
Width: 368
Flags: HMW
HStem: 402 99<276.5 297>
VStem: 87 103<0 326 0 343 0 369.5>
LayerCount: 2
Fore
SplineSet
50 446 m 1,0,1
 60 483 60 483 88 501 c 1,2,3
 157 486 157 486 179 412 c 1,4,5
 219 501 219 501 310 501 c 0,6,7
 334 501 334 501 363 495 c 1,8,9
 363 437 363 437 338 397 c 1,10,11
 329 400 329 400 297 402 c 1,12,13
 229 402 229 402 190 326 c 1,14,-1
 190 0 l 1,15,16
 171 -4 171 -4 138.5 -4 c 0,17,18
 106 -4 106 -4 87 0 c 1,19,-1
 87 343 l 2,20,21
 87 411 87 411 50 446 c 1,0,1
EndSplineSet
Substitution2: "'smcp' Lowercase to Small Capitals lookup 2 subtable" r.smcp
Substitution2: "'aalt' Access All Alternates lookup 0 subtable" r.smcp
EndChar

StartChar: s
Encoding: 115 115 23
Width: 438
Flags: HMW
HStem: -13 78<182 232.5 182 267> 428 79<203 249.5>
VStem: 49 104<355.5 387 355.5 405> 295 107<127 141>
LayerCount: 2
Fore
SplineSet
31 37 m 1,0,1
 32 54 32 54 42 75.5 c 128,-1,2
 52 97 52 97 65 109 c 1,3,4
 145 65 145 65 195.5 65 c 0,5,6
 246 65 246 65 270 82 c 128,-1,7
 294 99 294 99 295 127 c 1,8,9
 295 172 295 172 232 195 c 2,10,-1
 176 216 l 2,11,12
 49 263 49 263 49 359 c 0,13,14
 49 427 49 427 98.5 467 c 128,-1,15
 148 507 148 507 228.5 507 c 0,16,17
 309 507 309 507 389 471 c 1,18,19
 389 451 389 451 380.5 429 c 128,-1,20
 372 407 372 407 358 395 c 1,21,22
 288 428 288 428 225 428 c 0,23,24
 192 428 192 428 172.5 412 c 128,-1,25
 153 396 153 396 153 372.5 c 0,26,27
 153 349 153 349 167.5 335 c 128,-1,28
 182 321 182 321 215 309 c 2,29,-1
 275 286 l 2,30,31
 402 238 402 238 402 136 c 0,32,33
 402 67 402 67 349 27 c 128,-1,34
 296 -13 296 -13 205 -13 c 0,35,36
 114 -13 114 -13 31 37 c 1,0,1
EndSplineSet
Substitution2: "'smcp' Lowercase to Small Capitals lookup 2 subtable" s.smcp
Substitution2: "'aalt' Access All Alternates lookup 0 subtable" s.smcp
EndChar

StartChar: t
Encoding: 116 116 24
Width: 350
Flags: HMW
HStem: -4 81<168 308> 419 76<23 97> 472 20G<198 198> 627 20G<152 191 191 191>
VStem: 97 101<107.5 121 121 419 419 419 493 581 581 604>
LayerCount: 2
Fore
SplineSet
321 495 m 1,0,1
 326 478 326 478 326 456 c 0,2,3
 326 434 326 434 321 418 c 1,4,-1
 198 420 l 1,5,-1
 198 121 l 2,6,7
 198 77 198 77 239 77 c 2,8,-1
 308 77 l 1,9,10
 316 55 316 55 316 32.5 c 0,11,12
 316 10 316 10 314 3 c 1,13,14
 256 -4 256 -4 202 -4 c 0,15,16
 97 -4 97 -4 97 99 c 2,17,-1
 97 419 l 1,18,-1
 23 418 l 1,19,20
 19 435 19 435 19 455.5 c 0,21,22
 19 476 19 476 23 495 c 1,23,-1
 97 493 l 1,24,-1
 97 581 l 2,25,26
 97 617 97 617 109 632 c 128,-1,27
 121 647 121 647 152 647 c 2,28,-1
 191 647 l 1,29,-1
 198 640 l 1,30,-1
 198 492 l 1,31,-1
 321 495 l 1,0,1
EndSplineSet
Substitution2: "'smcp' Lowercase to Small Capitals lookup 2 subtable" t.smcp
Substitution2: "'aalt' Access All Alternates lookup 0 subtable" t.smcp
EndChar

StartChar: u
Encoding: 117 117 25
Width: 547
Flags: HMW
HStem: -9 93<214.5 238> 474 20G<364 364 468 468> 480 20G<109.5 142>
VStem: 74 103<155 180 180 388 388 405.5> 364 104<145 494>
LayerCount: 2
Fore
SplineSet
74 155 m 2,0,-1
 74 388 l 2,1,2
 74 448 74 448 57 478 c 1,3,4
 82 500 82 500 122 500 c 0,5,6
 177 500 177 500 177 435 c 2,7,-1
 177 180 l 2,8,9
 177 128 177 128 190 106 c 128,-1,10
 203 84 203 84 236 84 c 0,11,12
 269 84 269 84 303 100.5 c 128,-1,13
 337 117 337 117 364 145 c 1,14,-1
 364 494 l 1,15,16
 392 498 392 498 415 498 c 0,17,18
 438 498 438 498 468 494 c 1,19,-1
 468 140 l 2,20,21
 468 70 468 70 496 45 c 1,22,23
 485 9 485 9 457 -7 c 1,24,25
 394 4 394 4 373 65 c 1,26,27
 295 -9 295 -9 206 -9 c 0,28,29
 140 -9 140 -9 107 36 c 128,-1,30
 74 81 74 81 74 155 c 2,0,-1
EndSplineSet
Substitution2: "'smcp' Lowercase to Small Capitals lookup 2 subtable" u.smcp
Substitution2: "'aalt' Access All Alternates lookup 0 subtable" u.smcp
EndChar

StartChar: v
Encoding: 118 118 26
Width: 455
Flags: HMW
HStem: -5 89<198.5 236> 478 20G<387 402> 481 20G<56.5 79.5>
VStem: 6 442<486 486>
LayerCount: 2
Fore
SplineSet
236 84 m 1,0,-1
 354 494 l 1,1,2
 373 498 373 498 398.5 498 c 0,3,4
 424 498 424 498 445 490 c 1,5,-1
 448 486 l 1,6,7
 373 234 373 234 294 0 c 1,8,9
 265 -5 265 -5 226 -5 c 0,10,11
 187 -5 187 -5 171.5 6 c 128,-1,12
 156 17 156 17 144 52 c 2,13,-1
 6 486 l 1,14,15
 39 501 39 501 65 501 c 0,16,17
 110 501 110 501 121 457 c 1,18,-1
 188 237 l 2,19,20
 207 177 207 177 227 92 c 0,21,22
 229 84 229 84 236 84 c 1,0,-1
EndSplineSet
Substitution2: "'smcp' Lowercase to Small Capitals lookup 2 subtable" v.smcp
Substitution2: "'aalt' Access All Alternates lookup 0 subtable" v.smcp
EndChar

StartChar: w
Encoding: 119 119 27
Width: 723
Flags: HMW
HStem: -5 82<178.5 217 511 514> 398 93<301 365 301 360> 478 20G<640.5 656.5> 481 20G<74 96.5>
VStem: 22 681<485 487>
LayerCount: 2
Fore
SplineSet
126 52 m 2,0,-1
 22 487 l 1,1,2
 53 501 53 501 83 501 c 0,3,4
 123 501 123 501 131 459 c 1,5,-1
 176 251 l 2,6,7
 189 193 189 193 209 85 c 0,8,9
 211 77 211 77 217 77 c 1,10,-1
 301 491 l 1,11,12
 321 496 321 496 363.5 496 c 0,13,14
 406 496 406 496 424 491 c 1,15,-1
 506 85 l 2,16,17
 507 77 507 77 514 77 c 1,18,19
 528 153 528 153 550 251 c 2,20,-1
 604 494 l 1,21,22
 620 498 620 498 651.5 498 c 0,23,24
 683 498 683 498 700 490 c 1,25,-1
 703 485 l 1,26,-1
 582 -1 l 1,27,28
 554 -5 554 -5 512.5 -5 c 0,29,30
 471 -5 471 -5 454.5 6 c 128,-1,31
 438 17 438 17 432 51 c 1,32,-1
 403 190 l 1,33,-1
 365 398 l 1,34,-1
 360 398 l 1,35,36
 344 308 344 308 319 191 c 2,37,-1
 279 0 l 1,38,39
 241 -5 241 -5 204 -5 c 0,40,41
 167 -5 167 -5 150.5 6.5 c 128,-1,42
 134 18 134 18 126 52 c 2,0,-1
EndSplineSet
Substitution2: "'smcp' Lowercase to Small Capitals lookup 2 subtable" w.smcp
Substitution2: "'aalt' Access All Alternates lookup 0 subtable" w.smcp
EndChar

StartChar: x
Encoding: 120 120 28
Width: 460
Flags: HMW
HStem: 478 20 482 20G<87 111>
VStem: 15 432<11 16>
LayerCount: 2
Fore
SplineSet
331 494 m 1,0,1
 349 498 349 498 375 498 c 0,2,3
 401 498 401 498 424 491 c 1,4,-1
 427 483 l 1,5,-1
 286 262 l 1,6,-1
 447 16 l 1,7,8
 410 -8 410 -8 377 -8 c 0,9,10
 344 -8 344 -8 322 23 c 1,11,-1
 222 176 l 1,12,-1
 114 -1 l 1,13,14
 102 -5 102 -5 71 -5 c 128,-1,15
 40 -5 40 -5 18 3 c 1,16,-1
 15 11 l 1,17,-1
 172 255 l 1,18,-1
 28 478 l 1,19,20
 60 502 60 502 94.5 502 c 0,21,22
 129 502 129 502 151 471 c 1,23,-1
 236 339 l 1,24,-1
 331 494 l 1,0,1
EndSplineSet
Substitution2: "'smcp' Lowercase to Small Capitals lookup 2 subtable" x.smcp
Substitution2: "'aalt' Access All Alternates lookup 0 subtable" x.smcp
EndChar

StartChar: y
Encoding: 121 121 29
Width: 468
Flags: HMW
HStem: -218 77<88.5 135.5 88.5 167.5> 471 20G<453 453> 478 20G<392 408.5> 481 20G<70.5 91.5>
VStem: 5 451
LayerCount: 2
Fore
SplineSet
456 485 m 1,0,-1
 324 16 l 2,1,2
 288 -109 288 -109 241.5 -163.5 c 128,-1,3
 195 -218 195 -218 101 -218 c 0,4,5
 47 -218 47 -218 5 -202 c 1,6,7
 4 -184 4 -184 10.5 -162 c 128,-1,8
 17 -140 17 -140 28 -128 c 1,9,10
 63 -141 63 -141 106 -141 c 0,11,12
 149 -141 149 -141 176 -110 c 128,-1,13
 203 -79 203 -79 222 -17 c 1,14,-1
 225 -5 l 1,15,16
 193 -4 193 -4 175 7.5 c 128,-1,17
 157 19 157 19 148 49 c 2,18,-1
 16 486 l 1,19,20
 52 501 52 501 79 501 c 0,21,22
 118 501 118 501 131 455 c 2,23,-1
 199 225 l 2,24,25
 209 193 209 193 236 78 c 0,26,27
 238 71 238 71 245 71 c 1,28,-1
 355 494 l 1,29,30
 372 498 372 498 400.5 498 c 0,31,32
 429 498 429 498 453 491 c 1,33,-1
 456 485 l 1,0,-1
EndSplineSet
Substitution2: "'smcp' Lowercase to Small Capitals lookup 2 subtable" y.smcp
Substitution2: "'aalt' Access All Alternates lookup 0 subtable" y.smcp
EndChar

StartChar: z
Encoding: 122 122 30
Width: 446
Flags: HMW
HStem: 0 80<152 152 247 295 295 317.5> 414 80<55 158 53 390>
VStem: 35 377<50 56.5 34 62.5>
LayerCount: 2
Fore
SplineSet
51 97 m 2,0,-1
 214 319 l 2,1,2
 241.772727273 357.454545455 241.772727273 357.454545455 293 416 c 1,3,-1
 290 420 l 1,4,5
 248 414 248 414 158 414 c 2,6,-1
 53 414 l 1,7,8
 49 427 49 427 49 448.5 c 128,-1,9
 49 470 49 470 55 494 c 1,10,-1
 390 494 l 1,11,12
 405 449 405 449 405 433.5 c 128,-1,13
 405 418 405 418 392 398 c 1,14,-1
 229 177 l 2,15,16
 209 149 209 149 152 80 c 1,17,-1
 155 76 l 1,18,19
 198 80 198 80 247 80 c 2,20,-1
 295 80 l 2,21,22
 371 80 371 80 402 94 c 1,23,24
 412 71 412 71 412 49 c 0,25,26
 412 0 412 0 347 0 c 2,27,-1
 49 0 l 1,28,29
 35 42 35 42 35 59 c 128,-1,30
 35 76 35 76 51 97 c 2,0,-1
EndSplineSet
Substitution2: "'smcp' Lowercase to Small Capitals lookup 2 subtable" z.smcp
Substitution2: "'aalt' Access All Alternates lookup 0 subtable" z.smcp
EndChar

StartChar: A
Encoding: 65 65 31
Width: 611
Flags: HMW
HStem: -13 20G<20 20 591 591> 165 88<228 352 252 352 352 355.5 252 369> 578 105<246 303 246 298>
VStem: 20 571<7 7>
LayerCount: 2
Fore
SplineSet
429 166 m 1,0,-1
 369 165 l 1,1,-1
 232 165 l 1,2,-1
 174 166 l 1,3,-1
 121 -1 l 1,4,5
 104 -5 104 -5 76 -5 c 128,-1,6
 48 -5 48 -5 23 2 c 1,7,-1
 20 7 l 1,8,-1
 246 683 l 1,9,10
 267 687 267 687 307 687 c 128,-1,11
 347 687 347 687 367 683 c 1,12,-1
 591 7 l 1,13,14
 570 -7 570 -7 537 -7 c 128,-1,15
 504 -7 504 -7 490 5 c 128,-1,16
 476 17 476 17 466 49 c 2,17,-1
 429 166 l 1,0,-1
201 252 m 1,18,-1
 252 253 l 1,19,-1
 352 253 l 2,20,21
 354 253 354 253 373.5 252.5 c 128,-1,22
 393 252 393 252 402 252 c 1,23,-1
 356 397 l 2,24,25
 321 509 321 509 303 578 c 1,26,-1
 298 578 l 1,27,28
 286 523 286 523 259 433 c 1,29,-1
 201 252 l 1,18,-1
EndSplineSet
Substitution2: "'c2sc' Capitals to Small Capitals lookup 3 subtable" a.smcp
Substitution2: "'aalt' Access All Alternates lookup 0 subtable" a.smcp
EndChar

StartChar: B
Encoding: 66 66 32
Width: 605
Flags: HMW
HStem: -4 81<298.5 371 298.5 401> 318 82<196 301 301 311 196 301> 606 81<289 350>
VStem: 91 105<76 318 76 400 400 607> 416 107<479.5 527.5> 447 109<171.5 222>
LayerCount: 2
Fore
SplineSet
318 -4 m 1,0,-1
 97 -1 l 1,1,-1
 91 6 l 1,2,-1
 91 677 l 1,3,-1
 97 684 l 1,4,-1
 305 687 l 1,5,6
 413 687 413 687 468 639.5 c 128,-1,7
 523 592 523 592 523 506 c 0,8,9
 523 459 523 459 497 421 c 128,-1,10
 471 383 471 383 429 366 c 1,11,12
 482 350 482 350 519 301.5 c 128,-1,13
 556 253 556 253 556 191 c 0,14,15
 556 103 556 103 496.5 49.5 c 128,-1,16
 437 -4 437 -4 318 -4 c 1,0,-1
196 76 m 1,17,-1
 317 77 l 2,18,19
 394.947368421 77 394.947368421 77 423 118 c 0,20,21
 447 153.076923077 447 153.076923077 447 198.538461538 c 128,-1,22
 447 244 447 244 415 281 c 128,-1,23
 383 318 383 318 311 318 c 2,24,-1
 196 318 l 1,25,-1
 196 76 l 1,17,-1
196 607 m 1,26,-1
 196 400 l 1,27,-1
 301 400 l 2,28,29
 365 400 365 400 390.5 430 c 128,-1,30
 416 460 416 460 416 503 c 0,31,32
 416 606 416 606 303 606 c 0,33,34
 228 606 228 606 196 607 c 1,26,-1
EndSplineSet
Substitution2: "'c2sc' Capitals to Small Capitals lookup 3 subtable" b.smcp
Substitution2: "'aalt' Access All Alternates lookup 0 subtable" b.smcp
EndChar

StartChar: C
Encoding: 67 67 33
Width: 604
Flags: HMW
HStem: -13 93<275 358 275 360.5> 610 86<268.5 375>
VStem: 49 112<255.5 426.5 255.5 462.5>
LayerCount: 2
Fore
SplineSet
460 447 m 1,0,1
 462 513 462 513 428.5 561.5 c 128,-1,2
 395 610 395 610 318.5 610 c 128,-1,3
 242 610 242 610 201.5 540.5 c 128,-1,4
 161 471 161 471 161 343 c 128,-1,5
 161 215 161 215 205 147.5 c 128,-1,6
 249 80 249 80 331.5 80 c 128,-1,7
 414 80 414 80 506 156 c 1,8,9
 547 129 547 129 559 87 c 1,10,11
 515 43 515 43 449 15 c 128,-1,12
 383 -13 383 -13 318 -13 c 128,-1,13
 253 -13 253 -13 208.5 6.5 c 128,-1,14
 164 26 164 26 134.5 59.5 c 128,-1,15
 105 93 105 93 85.5 138.5 c 0,16,17
 49 223.666666667 49 223.666666667 49 338 c 0,18,19
 49 515 49 515 126.5 605.5 c 128,-1,20
 204 696 204 696 317.5 696 c 128,-1,21
 431 696 431 696 497.5 638 c 128,-1,22
 564 580 564 580 564 501 c 0,23,24
 564 441 564 441 504 441 c 0,25,26
 486 441 486 441 460 447 c 1,0,1
EndSplineSet
Substitution2: "'c2sc' Capitals to Small Capitals lookup 3 subtable" c.smcp
Substitution2: "'aalt' Access All Alternates lookup 0 subtable" c.smcp
EndChar

StartChar: D
Encoding: 68 68 34
Width: 648
Flags: HMW
HStem: -5 86<276.5 317 317 343.5> 601 86<296 343.5 276.5 391>
VStem: 91 106<81 602 81 677 81 677> 487 110<282.5 399 282.5 401>
LayerCount: 2
Fore
SplineSet
575 513 m 128,-1,1
 597 441 597 441 597 340.5 c 128,-1,2
 597 240 597 240 575.5 168.5 c 128,-1,3
 554 97 554 97 491 46 c 0,4,5
 461 21 461 21 411.5 8 c 128,-1,6
 362 -5 362 -5 316.5 -5 c 128,-1,7
 271 -5 271 -5 97 -1 c 1,8,-1
 91 6 l 1,9,-1
 91 677 l 1,10,-1
 97 684 l 1,11,12
 184 687 184 687 317 687 c 0,13,14
 362 687 362 687 411.5 674 c 128,-1,15
 461 661 461 661 491 636 c 0,16,0
 553 585 553 585 575 513 c 128,-1,1
317 601 m 2,17,-1
 197 602 l 1,18,-1
 197 81 l 1,19,-1
 317 81 l 2,20,21
 487 81 487 81 487 341 c 0,22,23
 487 526.845070423 487 526.845070423 405.5 578.5 c 0,24,25
 370 601 370 601 317 601 c 2,17,-1
EndSplineSet
Substitution2: "'c2sc' Capitals to Small Capitals lookup 3 subtable" d.smcp
Substitution2: "'aalt' Access All Alternates lookup 0 subtable" d.smcp
EndChar

StartChar: E
Encoding: 69 69 35
Width: 566
Flags: HMW
HStem: -1 91<260 448> 301 88<249.5 445 257 445> 593 90<194 257 257 494>
VStem: 90 105<129 138 138 302 388 528>
LayerCount: 2
Fore
SplineSet
195 138 m 1,0,-1
 194 87 l 1,1,2
 224 90 224 90 260 90 c 2,3,-1
 519 90 l 1,4,5
 519 63 519 63 516 49 c 0,6,7
 507 -1 507 -1 448 -1 c 2,8,-1
 151 -1 l 2,9,10
 123 -1 123 -1 106.5 16.5 c 128,-1,11
 90 34 90 34 90 65 c 2,12,-1
 90 677 l 1,13,-1
 97 683 l 1,14,-1
 499 683 l 1,15,16
 502 667 502 667 502 640.5 c 128,-1,17
 502 614 502 614 494 593 c 1,18,19
 344 593 344 593 194 593 c 1,20,21
 195 528 l 1,22,-1
 195 388 l 1,23,-1
 257 389 l 1,24,-1
 445 389 l 1,25,26
 450 371 450 371 450 344.5 c 128,-1,27
 450 318 450 318 445 301 c 1,28,-1
 257 301 l 2,29,30
 218 301 218 301 195 302 c 1,31,-1
 195 138 l 1,0,-1
EndSplineSet
Substitution2: "'c2sc' Capitals to Small Capitals lookup 3 subtable" e.smcp
Substitution2: "'aalt' Access All Alternates lookup 0 subtable" e.smcp
EndChar

StartChar: F
Encoding: 70 70 36
Width: 522
Flags: HMW
HStem: 299 89<197 440 197 440 239 440> 592 91<273.5 292 292 439>
VStem: 91 106<0 299 387 475>
LayerCount: 2
Fore
SplineSet
196 593 m 1,0,-1
 197 475 l 1,1,-1
 197 387 l 1,2,3
 212 388 212 388 239 388 c 2,4,-1
 440 388 l 1,5,6
 445 371 445 371 445 343.5 c 128,-1,7
 445 316 445 316 440 299 c 1,8,-1
 197 299 l 1,9,-1
 197 0 l 1,10,11
 174 -4 174 -4 143 -4 c 128,-1,12
 112 -4 112 -4 91 0 c 1,13,-1
 91 677 l 1,14,-1
 97 683 l 1,15,-1
 493 683 l 1,16,17
 499 665 499 665 499 641 c 0,18,19
 499 592 499 592 439 592 c 2,20,-1
 292 592 l 2,21,22
 224 592 224 592 196 593 c 1,0,-1
EndSplineSet
Substitution2: "'c2sc' Capitals to Small Capitals lookup 3 subtable" f.smcp
Substitution2: "'aalt' Access All Alternates lookup 0 subtable" f.smcp
EndChar

StartChar: G
Encoding: 71 71 37
Width: 643
Flags: HMW
HStem: -13 88<288.5 376.5 288.5 382.5> 268 92<392 532> 605 91<294 379>
VStem: 49 111<248.5 434.5 248.5 464> 478 102<92 204 204 215.5>
LayerCount: 2
Fore
SplineSet
350 359 m 1,0,-1
 504 360 l 2,1,2
 580 360 580 360 580 290 c 2,3,-1
 580 30 l 1,4,5
 468 -13 468 -13 333 -13 c 0,6,7
 258 -13 258 -13 201.5 15 c 128,-1,8
 145 43 145 43 112.5 92.5 c 0,9,10
 49 189.215384615 49 189.215384615 49 337 c 0,11,12
 49 429 49 429 74 500 c 128,-1,13
 99 571 99 571 142 612.5 c 0,14,15
 228.518072289 696 228.518072289 696 345 696 c 0,16,17
 481 696 481 696 578 623 c 1,18,19
 570 573 570 573 527 543 c 1,20,21
 445 605 445 605 345 605 c 0,22,23
 262 605 262 605 211 540 c 128,-1,24
 160 475 160 475 160 336 c 0,25,26
 160 75 160 75 351 75 c 0,27,28
 422 75 422 75 478 92 c 1,29,-1
 478 204 l 2,30,31
 478 248 478 248 480 268 c 1,32,-1
 392 268 l 2,33,34
 342 268 342 268 342 315 c 0,35,36
 342 338 342 338 350 359 c 1,0,-1
EndSplineSet
Substitution2: "'c2sc' Capitals to Small Capitals lookup 3 subtable" g.smcp
Substitution2: "'aalt' Access All Alternates lookup 0 subtable" g.smcp
EndChar

StartChar: H
Encoding: 72 72 38
Width: 675
Flags: HMW
HStem: 307 91<248.5 422 253 422>
VStem: 91 106<0 234 457 471 471 683> 477 107<0 234 234 248 471 683 0 683>
LayerCount: 2
Fore
SplineSet
478 397 m 1,0,-1
 477 471 l 1,1,-1
 477 683 l 1,2,3
 498 687 498 687 530.5 687 c 128,-1,4
 563 687 563 687 584 683 c 1,5,-1
 584 0 l 1,6,7
 561 -4 561 -4 530.5 -4 c 128,-1,8
 500 -4 500 -4 477 0 c 1,9,-1
 477 234 l 1,10,-1
 478 308 l 1,11,-1
 422 307 l 1,12,-1
 253 307 l 1,13,-1
 196 308 l 1,14,-1
 197 234 l 1,15,-1
 197 0 l 1,16,17
 176 -4 176 -4 143.5 -4 c 128,-1,18
 111 -4 111 -4 91 0 c 1,19,-1
 91 683 l 1,20,21
 111 687 111 687 143.5 687 c 128,-1,22
 176 687 176 687 197 683 c 1,23,-1
 197 471 l 1,24,-1
 196 397 l 1,25,-1
 253 398 l 1,26,-1
 422 398 l 1,27,-1
 478 397 l 1,0,-1
EndSplineSet
Substitution2: "'c2sc' Capitals to Small Capitals lookup 3 subtable" h.smcp
Substitution2: "'aalt' Access All Alternates lookup 0 subtable" h.smcp
EndChar

StartChar: I
Encoding: 73 73 39
Width: 294
Flags: HMW
HStem: -4 691<139 155>
VStem: 94 106<0 683 0 683>
LayerCount: 2
Fore
SplineSet
94 0 m 1,0,-1
 94 683 l 1,1,2
 114 687 114 687 146.5 687 c 0,3,4
 179 687 179 687 200 683 c 1,5,-1
 200 0 l 1,6,7
 179 -4 179 -4 146.5 -4 c 0,8,9
 114 -4 114 -4 94 0 c 1,0,-1
EndSplineSet
Substitution2: "'c2sc' Capitals to Small Capitals lookup 3 subtable" i.smcp
Substitution2: "'aalt' Access All Alternates lookup 0 subtable" i.smcp
EndChar

StartChar: J
Encoding: 74 74 40
Width: 448
Flags: HMW
HStem: -10 89<140 198 138.5 252.5>
VStem: 264 106<234 249 249 683>
LayerCount: 2
Fore
SplineSet
50 112 m 1,0,1
 105 79 105 79 161 79 c 128,-1,2
 217 79 217 79 240.5 115 c 128,-1,3
 264 151 264 151 264 234 c 2,4,-1
 264 683 l 1,5,6
 285 687 285 687 317 687 c 128,-1,7
 349 687 349 687 370 683 c 1,8,-1
 370 249 l 2,9,10
 370 188 370 188 362 145.5 c 128,-1,11
 354 103 354 103 333 65.5 c 0,12,13
 290.72 -10 290.72 -10 166 -10 c 0,14,15
 78 -10 78 -10 10 32 c 1,16,17
 18 78 18 78 50 112 c 1,0,1
EndSplineSet
Substitution2: "'c2sc' Capitals to Small Capitals lookup 3 subtable" j.smcp
Substitution2: "'aalt' Access All Alternates lookup 0 subtable" j.smcp
EndChar

StartChar: K
Encoding: 75 75 41
Width: 596
Flags: HMW
HStem: 307 91<258 263 253 294.5> 674 12
VStem: 91 106<0 305 0 396 396 683>
LayerCount: 2
Fore
SplineSet
580 28 m 1,0,1
 558 -6 558 -6 508 -6 c 0,2,3
 479 -6 479 -6 464.5 8.5 c 128,-1,4
 450 23 450 23 438 58 c 2,5,-1
 384 205 l 2,6,7
 363 261 363 261 336 284 c 128,-1,8
 309 307 309 307 268.5 307 c 0,9,10
 228 307 228 307 197 305 c 1,11,-1
 197 0 l 1,12,13
 176 -4 176 -4 143.5 -4 c 0,14,15
 111 -4 111 -4 91 0 c 1,16,-1
 91 683 l 1,17,18
 111 687 111 687 143.5 687 c 0,19,20
 176 687 176 687 197 683 c 1,21,-1
 197 396 l 1,22,-1
 253 398 l 2,23,24
 267 398 267 398 274.5 404 c 128,-1,25
 282 410 282 410 291 426 c 2,26,-1
 419 643 l 2,27,28
 433 667 433 667 445.5 676.5 c 128,-1,29
 458 686 458 686 485 686 c 0,30,31
 512 686 512 686 544 683 c 1,32,-1
 551 674 l 1,33,-1
 400 418 l 2,34,35
 381 386 381 386 360 368 c 1,36,37
 407 359 407 359 433.5 330 c 128,-1,38
 460 301 460 301 481 245 c 2,39,-1
 535 100 l 2,40,41
 555 48 555 48 580 28 c 1,0,1
EndSplineSet
Substitution2: "'c2sc' Capitals to Small Capitals lookup 3 subtable" k.smcp
Substitution2: "'aalt' Access All Alternates lookup 0 subtable" k.smcp
EndChar

StartChar: L
Encoding: 76 76 42
Width: 512
Flags: HMW
HStem: -1 93<286 413>
VStem: 90 107<88 619 88 681 88 681>
LayerCount: 2
Fore
SplineSet
286 92 m 2,0,-1
 485 92 l 1,1,2
 485 70 485 70 482 50 c 0,3,4
 473 -1 473 -1 413 -1 c 2,5,-1
 152 -1 l 2,6,7
 124 -1 124 -1 107 16.5 c 128,-1,8
 90 34 90 34 90 65 c 2,9,-1
 90 681 l 1,10,-1
 97 687 l 1,11,-1
 137 687 l 2,12,13
 170 687 170 687 183.5 671 c 128,-1,14
 197 655 197 655 197 619 c 2,15,-1
 197 88 l 1,16,17
 238 92 238 92 286 92 c 2,0,-1
EndSplineSet
Substitution2: "'c2sc' Capitals to Small Capitals lookup 3 subtable" l.smcp
Substitution2: "'aalt' Access All Alternates lookup 0 subtable" l.smcp
EndChar

StartChar: M
Encoding: 77 77 43
Width: 808
Flags: HMW
HStem: -19 20G<74 74 734 734> 104 107<350 407 401 458> 568 115<127 213 127 207>
VStem: 74 660<1 1>
LayerCount: 2
Fore
SplineSet
74 1 m 1,0,-1
 127 683 l 1,1,2
 151 687 151 687 197 687 c 0,3,4
 243 687 243 687 266 683 c 1,5,-1
 361 370 l 1,6,7
 387 289 387 289 401 211 c 1,8,-1
 407 211 l 1,9,10
 414 260 414 260 446 370 c 1,11,-1
 541 683 l 1,12,13
 567 687 567 687 611 687 c 0,14,15
 655 687 655 687 681 683 c 1,16,-1
 734 1 l 1,17,18
 712 -5 712 -5 682.5 -5 c 0,19,20
 653 -5 653 -5 632 -1 c 1,21,-1
 609 365 l 2,22,23
 603 445 603 445 601 568 c 1,24,-1
 595 568 l 1,25,-1
 458 104 l 1,26,27
 426 100 426 100 403 100 c 128,-1,28
 380 100 380 100 350 104 c 1,29,-1
 213 568 l 1,30,-1
 207 568 l 1,31,32
 202 417 202 417 199 365 c 2,33,-1
 175 -1 l 1,34,35
 155 -5 155 -5 125 -5 c 0,36,37
 95 -5 95 -5 74 1 c 1,0,-1
EndSplineSet
Substitution2: "'c2sc' Capitals to Small Capitals lookup 3 subtable" m.smcp
Substitution2: "'aalt' Access All Alternates lookup 0 subtable" m.smcp
EndChar

StartChar: N
Encoding: 78 78 44
Width: 680
Flags: HMW
HStem: 537 20G<181 181>
VStem: 91 99<0 312 0 682> 491 98<372 621 621 644.5>
LayerCount: 2
Fore
SplineSet
583 687 m 1,0,-1
 589 682 l 1,1,-1
 589 1 l 1,2,3
 561 -4 561 -4 525 -4 c 128,-1,4
 489 -4 489 -4 461 0 c 1,5,-1
 248 419 l 1,6,7
 216 486 216 486 185 558 c 1,8,-1
 181 557 l 1,9,10
 190 402 190 402 190 312 c 2,11,-1
 190 0 l 1,12,13
 166 -4 166 -4 140 -4 c 0,14,15
 114 -4 114 -4 91 0 c 1,16,-1
 91 682 l 1,17,18
 119 687 119 687 154.5 687 c 0,19,20
 190 687 190 687 218 683 c 1,21,-1
 429 264 l 2,22,23
 443 234 443 234 466 182.5 c 128,-1,24
 489 131 489 131 495 119 c 1,25,-1
 499 120 l 1,26,27
 491 248 491 248 491 372 c 2,28,-1
 491 621 l 2,29,30
 491 657 491 657 503.5 672 c 128,-1,31
 516 687 516 687 548 687 c 2,32,-1
 583 687 l 1,0,-1
EndSplineSet
Substitution2: "'c2sc' Capitals to Small Capitals lookup 3 subtable" n.smcp
Substitution2: "'aalt' Access All Alternates lookup 0 subtable" n.smcp
EndChar

StartChar: O
Encoding: 79 79 45
Width: 658
Flags: HMW
HStem: -13 85<289 369> 611 85<289 369 289 398.5>
VStem: 49 112<287.5 396> 496 112<287.5 396 287.5 402.5>
LayerCount: 2
Fore
SplineSet
168 436 m 128,-1,1
 161 393 161 393 161 347.5 c 128,-1,2
 161 302 161 302 165 267 c 128,-1,3
 169 232 169 232 180 195 c 128,-1,4
 191 158 191 158 209 132 c 128,-1,5
 227 106 227 106 258 89 c 128,-1,6
 289 72 289 72 334 72 c 128,-1,7
 379 72 379 72 413.5 96 c 128,-1,8
 448 120 448 120 465 162.5 c 128,-1,9
 482 205 482 205 489 248 c 128,-1,10
 496 291 496 291 496 342 c 128,-1,11
 496 393 496 393 489 436 c 128,-1,12
 482 479 482 479 465 521 c 128,-1,13
 448 563 448 563 413.5 587 c 128,-1,14
 379 611 379 611 329 611 c 128,-1,15
 279 611 279 611 244 587 c 128,-1,16
 209 563 209 563 192 521 c 128,-1,0
 175 479 175 479 168 436 c 128,-1,1
156 47 m 1,17,18
 49 139 49 139 49 341.5 c 128,-1,19
 49 544 49 544 156 636 c 1,20,21
 224 696 224 696 329 696 c 128,-1,22
 434 696 434 696 502 636 c 1,23,24
 608 545 608 545 608 341.5 c 128,-1,25
 608 138 608 138 502 47 c 1,26,27
 434 -13 434 -13 329 -13 c 128,-1,28
 224 -13 224 -13 156 47 c 1,17,18
EndSplineSet
Substitution2: "'c2sc' Capitals to Small Capitals lookup 3 subtable" o.smcp
Substitution2: "'aalt' Access All Alternates lookup 0 subtable" o.smcp
EndChar

StartChar: P
Encoding: 80 80 46
Width: 568
Flags: HMW
HStem: 241 85<289.5 303> 602 85<285 349>
VStem: 91 106<0 241 0 325 325 603> 421 111<434 494.5>
LayerCount: 2
Fore
SplineSet
97 684 m 1,0,-1
 303 687 l 1,1,2
 407 687 407 687 469.5 630 c 128,-1,3
 532 573 532 573 532 465 c 128,-1,4
 532 357 532 357 469 299 c 128,-1,5
 406 241 406 241 303 241 c 2,6,-1
 197 241 l 1,7,-1
 197 0 l 1,8,9
 176 -4 176 -4 143.5 -4 c 128,-1,10
 111 -4 111 -4 91 0 c 1,11,-1
 91 677 l 1,12,-1
 97 684 l 1,0,-1
197 325 m 1,13,-1
 299 326 l 2,14,15
 366 326 366 326 393.5 367 c 128,-1,16
 421 408 421 408 421 464 c 0,17,18
 421 515.08 421 515.08 397.5 555.5 c 0,19,20
 370.465116279 602 370.465116279 602 300.23255814 602 c 128,-1,21
 230 602 230 602 197 603 c 1,22,-1
 197 325 l 1,13,-1
EndSplineSet
Substitution2: "'c2sc' Capitals to Small Capitals lookup 3 subtable" p.smcp
Substitution2: "'aalt' Access All Alternates lookup 0 subtable" p.smcp
EndChar

StartChar: Q
Encoding: 81 81 47
Width: 652
Flags: HMW
HStem: -128 78<514 602> -13 87<289 329 329 339> 611 85<286 366 286 396>
VStem: 49 111<288.5 395> 491 111<290.5 395 290.5 403.5>
LayerCount: 2
Fore
SplineSet
453 -101 m 2,0,-1
 339 -13 l 1,1,-1
 329 -13 l 2,2,3
 223 -13 223 -13 153 45 c 1,4,5
 49 137 49 137 49 342 c 128,-1,6
 49 547 49 547 153 638 c 0,7,8
 219 696 219 696 325.5 696 c 0,9,10
 432 696 432 696 498 638 c 0,11,12
 602 547 602 547 602 348 c 0,13,14
 602 149 602 149 511 62 c 1,15,16
 484 33 484 33 453 21 c 1,17,-1
 475 5 l 2,18,19
 520 -28 520 -28 547 -39 c 128,-1,20
 574 -50 574 -50 602 -50 c 1,21,22
 600 -87 600 -87 579 -107.5 c 128,-1,23
 558 -128 558 -128 523 -128 c 0,24,25
 488 -128 488 -128 453 -101 c 2,0,-1
160 342.5 m 0,26,27
 160 74 160 74 325.5 74 c 0,28,29
 491 74 491 74 491 342.5 c 0,30,31
 491 611 491 611 325.5 611 c 0,32,33
 160 611 160 611 160 342.5 c 0,26,27
EndSplineSet
Substitution2: "'c2sc' Capitals to Small Capitals lookup 3 subtable" q.smcp
Substitution2: "'aalt' Access All Alternates lookup 0 subtable" q.smcp
EndChar

StartChar: R
Encoding: 82 82 48
Width: 600
Flags: HMW
HStem: 275 87<196 356> 603 84<292.5 356>
VStem: 91 105<0 275 0 360 360 604> 429 110<453 512.5>
LayerCount: 2
Fore
SplineSet
97 684 m 1,0,-1
 312 687 l 1,1,2
 418 687 418 687 478.5 633.5 c 128,-1,3
 539 580 539 580 539 482 c 0,4,5
 539 415 539 415 503.5 366.5 c 128,-1,6
 468 318 468 318 411 300 c 1,7,8
 458 283 458 283 482 215 c 1,9,-1
 526 98 l 2,10,11
 545 46 545 46 571 26 c 1,12,13
 549 -7 549 -7 499 -7 c 0,14,15
 471 -7 471 -7 456.5 8 c 128,-1,16
 442 23 442 23 429 58 c 2,17,-1
 379 193 l 2,18,19
 364 233 364 233 342.5 254 c 128,-1,20
 321 275 321 275 278 275 c 2,21,-1
 196 275 l 1,22,-1
 196 0 l 1,23,24
 175 -4 175 -4 143 -4 c 128,-1,25
 111 -4 111 -4 91 0 c 1,26,-1
 91 677 l 1,27,-1
 97 684 l 1,0,-1
196 604 m 1,28,-1
 196 360 l 1,29,30
 274 362 274 362 307 362 c 0,31,32
 374 362 374 362 401.5 396 c 128,-1,33
 429 430 429 430 429 482 c 0,34,35
 429 603 429 603 307 603 c 0,36,37
 230 603 230 603 196 604 c 1,28,-1
EndSplineSet
Substitution2: "'c2sc' Capitals to Small Capitals lookup 3 subtable" r.smcp
Substitution2: "'aalt' Access All Alternates lookup 0 subtable" r.smcp
EndChar

StartChar: S
Encoding: 83 83 49
Width: 556
Flags: HMW
HStem: -13 89<241.5 316.5 241.5 352.5> 608 88<249 311.5>
VStem: 58 108<492 540.5 492 556.5> 404 111<170 193.5>
LayerCount: 2
Fore
SplineSet
30 62 m 1,0,1
 35 111 35 111 75 144 c 1,2,3
 179 76 179 76 276 76 c 0,4,5
 335 76 335 76 369 102 c 128,-1,6
 403 128 403 128 404 170 c 1,7,8
 404 239 404 239 313 278 c 2,9,-1
 195 329 l 2,10,11
 58 388 58 388 58 502 c 0,12,13
 58 585 58 585 121.5 640.5 c 128,-1,14
 185 696 185 696 288.5 696 c 0,15,16
 392 696 392 696 496 644 c 1,17,18
 494 595 494 595 457 561 c 1,19,20
 363 608 363 608 286 608 c 0,21,22
 232 608 232 608 199 581.5 c 128,-1,23
 166 555 166 555 166 519 c 0,24,25
 166 483 166 483 187 462 c 128,-1,26
 208 441 208 441 249 424 c 2,27,-1
 365 374 l 1,28,29
 515 311 515 311 515 188 c 0,30,31
 515 98 515 98 452 42.5 c 128,-1,32
 389 -13 389 -13 263 -13 c 0,33,34
 137 -13 137 -13 30 62 c 1,0,1
EndSplineSet
Substitution2: "'c2sc' Capitals to Small Capitals lookup 3 subtable" s.smcp
Substitution2: "'aalt' Access All Alternates lookup 0 subtable" s.smcp
EndChar

StartChar: T
Encoding: 84 84 50
Width: 492
Flags: HMW
HStem: 593 90<17 136 17 477 351.5 358 358 423>
VStem: 193 107<0 520 520 533.5 0 594>
LayerCount: 2
Fore
SplineSet
358 593 m 1,0,-1
 300 594 l 1,1,-1
 300 0 l 1,2,3
 277 -4 277 -4 246.5 -4 c 128,-1,4
 216 -4 216 -4 193 0 c 1,5,-1
 193 520 l 1,6,-1
 194 594 l 1,7,-1
 193 594 l 1,8,-1
 136 593 l 1,9,-1
 17 593 l 1,10,11
 13 614 13 614 13 638 c 128,-1,12
 13 662 13 662 17 683 c 1,13,-1
 477 683 l 1,14,15
 483 659 483 659 483 637 c 0,16,17
 483 593 483 593 423 593 c 2,18,-1
 358 593 l 1,0,-1
EndSplineSet
Substitution2: "'c2sc' Capitals to Small Capitals lookup 3 subtable" t.smcp
Substitution2: "'aalt' Access All Alternates lookup 0 subtable" t.smcp
EndChar

StartChar: U
Encoding: 85 85 51
Width: 669
Flags: HMW
HStem: -13 86<286.5 382 286.5 410.5>
VStem: 82 106<240 619> 480 107<240 683>
LayerCount: 2
Fore
SplineSet
587 683 m 1,0,-1
 587 240 l 2,1,2
 587 118 587 118 519 52.5 c 128,-1,3
 451 -13 451 -13 334 -13 c 128,-1,4
 217 -13 217 -13 149.5 52.5 c 128,-1,5
 82 118 82 118 82 240 c 2,6,-1
 82 681 l 1,7,-1
 88 687 l 1,8,-1
 129 687 l 2,9,10
 161 687 161 687 174.5 671 c 128,-1,11
 188 655 188 655 188 619 c 2,12,-1
 188 240 l 2,13,14
 188 158 188 158 225.5 115.5 c 128,-1,15
 263 73 263 73 334 73 c 0,16,17
 480 73 480 73 480 240 c 2,18,-1
 480 683 l 1,19,20
 501 687 501 687 533.5 687 c 0,21,22
 566 687 566 687 587 683 c 1,0,-1
EndSplineSet
Substitution2: "'c2sc' Capitals to Small Capitals lookup 3 subtable" u.smcp
Substitution2: "'aalt' Access All Alternates lookup 0 subtable" u.smcp
EndChar

StartChar: V
Encoding: 86 86 52
Width: 575
Flags: HMW
HStem: -5 100<260.5 300>
VStem: 20 538<673 674>
LayerCount: 2
Fore
SplineSet
300 95 m 1,0,-1
 459 683 l 1,1,2
 478 687 478 687 506 687 c 0,3,4
 534 687 534 687 553 681 c 1,5,-1
 558 673 l 1,6,-1
 360 -1 l 1,7,8
 308 -5 308 -5 278 -5 c 128,-1,9
 248 -5 248 -5 230.5 5.5 c 128,-1,10
 213 16 213 16 204 47 c 2,11,-1
 20 674 l 1,12,13
 56 690 56 690 86 690 c 0,14,15
 129 690 129 690 144 638 c 2,16,-1
 247 277 l 2,17,18
 271 192 271 192 291 105 c 0,19,20
 294 95 294 95 300 95 c 1,0,-1
EndSplineSet
Substitution2: "'c2sc' Capitals to Small Capitals lookup 3 subtable" v.smcp
Substitution2: "'aalt' Access All Alternates lookup 0 subtable" v.smcp
EndChar

StartChar: W
Encoding: 87 87 53
Width: 850
Flags: HMW
HStem: -5 93<209.5 250> 562 107<359 430 359 423>
VStem: 30 792<674 677>
LayerCount: 2
Fore
SplineSet
156 48 m 2,0,-1
 30 677 l 1,1,2
 59 690 59 690 87 690 c 0,3,4
 115 690 115 690 128 677.5 c 128,-1,5
 141 665 141 665 146 633 c 2,6,-1
 209 293 l 1,7,8
 231 167 231 167 241 100 c 0,9,10
 242 88 242 88 250 88 c 1,11,-1
 359 669 l 1,12,13
 392 674 392 674 430 674 c 0,14,15
 468 674 468 674 496 669 c 1,16,-1
 596 100 l 2,17,18
 598 88 598 88 605 88 c 1,19,20
 615 158 615 158 641 294 c 2,21,-1
 718 683 l 1,22,23
 738 687 738 687 766 687 c 128,-1,24
 794 687 794 687 817 681 c 1,25,-1
 822 674 l 1,26,-1
 679 1 l 1,27,28
 640 -5 640 -5 598 -5 c 0,29,30
 556 -5 556 -5 540 5.5 c 128,-1,31
 524 16 524 16 518 47 c 2,32,-1
 470 315 l 1,33,34
 445 462 445 462 430 562 c 1,35,-1
 423 562 l 1,36,37
 403 436 403 436 379 315 c 2,38,-1
 318 0 l 1,39,40
 275 -5 275 -5 236 -5 c 0,41,42
 197 -5 197 -5 179.5 5.5 c 128,-1,43
 162 16 162 16 156 48 c 2,0,-1
EndSplineSet
Substitution2: "'c2sc' Capitals to Small Capitals lookup 3 subtable" w.smcp
Substitution2: "'aalt' Access All Alternates lookup 0 subtable" w.smcp
EndChar

StartChar: X
Encoding: 88 88 54
Width: 587
Flags: HMW
HStem: -7 697<101 510>
VStem: 18 551<12 16>
LayerCount: 2
Fore
SplineSet
445 683 m 1,0,1
 462 688 462 688 492.5 688 c 0,2,3
 523 688 523 688 545 678 c 1,4,-1
 548 671 l 1,5,-1
 356 361 l 1,6,-1
 569 16 l 1,7,8
 535 -7 535 -7 496.5 -7 c 0,9,10
 458 -7 458 -7 431 36 c 2,11,-1
 286 270 l 1,12,-1
 123 0 l 1,13,14
 106 -5 106 -5 74.5 -5 c 0,15,16
 43 -5 43 -5 21 5 c 1,17,-1
 18 12 l 1,18,-1
 232 357 l 1,19,-1
 42 667 l 1,20,21
 76 690 76 690 114.5 690 c 0,22,23
 153 690 153 690 179 648 c 2,24,-1
 302 448 l 1,25,-1
 445 683 l 1,0,1
EndSplineSet
Substitution2: "'c2sc' Capitals to Small Capitals lookup 3 subtable" x.smcp
Substitution2: "'aalt' Access All Alternates lookup 0 subtable" x.smcp
EndChar

StartChar: Y
Encoding: 89 89 55
Width: 503
Flags: HMW
HStem: -4 694<65.5 260.5>
VStem: 199 107<0 219 0 221 0 221>
LayerCount: 2
Fore
SplineSet
303 454 m 1,0,-1
 394 683 l 1,1,2
 413 688 413 688 440 688 c 0,3,4
 467 688 467 688 491 680 c 1,5,-1
 496 673 l 1,6,-1
 306 219 l 1,7,-1
 306 0 l 1,8,9
 283 -4 283 -4 251 -4 c 0,10,11
 219 -4 219 -4 199 0 c 1,12,-1
 199 221 l 1,13,-1
 9 671 l 1,14,15
 43 690 43 690 70 690 c 0,16,17
 97 690 97 690 110 679.5 c 128,-1,18
 123 669 123 669 133 644 c 2,19,-1
 212 452 l 2,20,21
 232 402 232 402 254 327 c 1,22,-1
 259 327 l 1,23,24
 270 367 270 367 303 454 c 1,0,-1
EndSplineSet
Substitution2: "'c2sc' Capitals to Small Capitals lookup 3 subtable" y.smcp
Substitution2: "'aalt' Access All Alternates lookup 0 subtable" y.smcp
EndChar

StartChar: Z
Encoding: 90 90 56
Width: 562
Flags: HMW
HStem: 0 92<284 388 388 414.5 284 441> 593 90<77 234 73 489>
VStem: 48 467<62 68 40 74.5>
LayerCount: 2
Fore
SplineSet
62 113 m 2,0,-1
 314 492 l 2,1,2
 324 507 324 507 393 598 c 1,3,-1
 390 601 l 1,4,5
 346 593 346 593 234 593 c 2,6,-1
 73 593 l 1,7,8
 69 609 69 609 69 631.5 c 0,9,10
 69 654 69 654 77 683 c 1,11,-1
 489 683 l 1,12,13
 504 632 504 632 504 612.5 c 0,14,15
 504 593 504 593 490 572 c 2,16,-1
 239 196 l 2,17,18
 216 161 216 161 161 89 c 1,19,-1
 164 86 l 1,20,21
 227 92 227 92 284 92 c 2,22,-1
 388 92 l 2,23,24
 468 92 468 92 506 111 c 1,25,26
 515 84 515 84 515 59 c 0,27,28
 515 0 515 0 441 0 c 2,29,-1
 61 0 l 1,30,31
 48 50 48 50 48 71 c 0,32,33
 48 92 48 92 62 113 c 2,0,-1
EndSplineSet
Substitution2: "'c2sc' Capitals to Small Capitals lookup 3 subtable" z.smcp
Substitution2: "'aalt' Access All Alternates lookup 0 subtable" z.smcp
EndChar

StartChar: ampersand
Encoding: 38 38 57
Width: 623
Flags: HMW
HStem: -13 84<234 271> 317 90<252 497 313 399 499 515 313 531 499 499> 611 85<263 322 222 325>
VStem: 50 110<149 218 149 226.5> 79 110<482 540 479.5 567.5> 398 102<132 151 151 254 254 255>
LayerCount: 2
Fore
SplineSet
499 317 m 1,0,-1
 500 255 l 1,1,-1
 500 151 l 2,2,3
 500 133 500 133 507 0 c 1,4,5
 488 -6 488 -6 459 -6 c 128,-1,6
 430 -6 430 -6 410 -1 c 1,7,-1
 402 40 l 1,8,9
 329 -13 329 -13 240 -13 c 128,-1,10
 151 -13 151 -13 100.5 41 c 128,-1,11
 50 95 50 95 50 171 c 128,-1,12
 50 247 50 247 88.5 298 c 128,-1,13
 127 349 127 349 182 366 c 1,14,15
 136 381 136 381 107.5 423 c 128,-1,16
 79 465 79 465 79 518 c 0,17,18
 79 595 79 595 135.5 645.5 c 128,-1,19
 192 696 192 696 290.5 696 c 128,-1,20
 389 696 389 696 472 667 c 1,21,22
 472 616 472 616 444 585 c 1,23,24
 360 611 360 611 303.5 611 c 128,-1,25
 247 611 247 611 218 583.5 c 128,-1,26
 189 556 189 556 189 509 c 128,-1,27
 189 462 189 462 219.5 434.5 c 128,-1,28
 250 407 250 407 313 407 c 2,29,-1
 497 407 l 2,30,31
 558 407 558 407 592 422 c 1,32,33
 606 405 606 405 606 372 c 0,34,35
 606 317 606 317 531 317 c 2,36,-1
 499 317 l 1,0,-1
398 254 m 2,37,38
 398 294 398 294 399 317 c 1,39,-1
 303 317 l 2,40,41
 232 317 232 317 196 278.5 c 128,-1,42
 160 240 160 240 160 186 c 128,-1,43
 160 132 160 132 188.5 101.5 c 128,-1,44
 217 71 217 71 266 71 c 0,45,46
 341 71 341 71 398 118 c 1,47,-1
 398 254 l 2,37,38
EndSplineSet
Substitution2: "'c2sc' Capitals to Small Capitals lookup 3 subtable" ampersand.smcp
Substitution2: "'aalt' Access All Alternates lookup 0 subtable" ampersand.smcp
EndChar

StartChar: zero
Encoding: 48 48 58
Width: 530
Flags: HMW
HStem: -13 82<249.5 281 249.5 299.5> 579 82<249.5 281>
VStem: 46 109<266 382 266 386.5> 375 109<266 382>
LayerCount: 2
Fore
SplineSet
46 324 m 128,-1,1
 46 427 46 427 61 492 c 128,-1,2
 76 557 76 557 119 603 c 1,3,4
 177 661 177 661 265 661 c 0,5,6
 353 661 353 661 411 603 c 1,7,8
 454 557 454 557 469 492 c 128,-1,9
 484 427 484 427 484 324 c 128,-1,10
 484 221 484 221 469 156 c 128,-1,11
 454 91 454 91 411 45 c 1,12,13
 353 -13 353 -13 265 -13 c 128,-1,14
 177 -13 177 -13 119 45 c 1,15,16
 76 91 76 91 61 156 c 128,-1,0
 46 221 46 221 46 324 c 128,-1,1
155 324 m 128,-1,18
 155 154 155 154 193 104 c 1,19,20
 216 69 216 69 265 69 c 128,-1,21
 314 69 314 69 337 104 c 1,22,23
 375 154 375 154 375 324 c 128,-1,24
 375 494 375 494 337 544 c 1,25,26
 314 579 314 579 265 579 c 128,-1,27
 216 579 216 579 193 544 c 1,28,17
 155 494 155 494 155 324 c 128,-1,18
EndSplineSet
Substitution2: "'c2sc' Capitals to Small Capitals lookup 3 subtable" zero.smcp
Substitution2: "'aalt' Access All Alternates lookup 0 subtable" zero.smcp
EndChar

StartChar: one
Encoding: 49 49 59
Width: 530
Flags: HMW
HStem: 0 87<94 186 186 192.5 402 471 94 186> 628 20G<344 344>
VStem: 242 102<153 381 381 393.5>
LayerCount: 2
Fore
SplineSet
243 86 m 1,0,-1
 242 153 l 1,1,-1
 242 381 l 2,2,3
 242 397 242 397 247 502 c 1,4,5
 191 433 191 433 103 394 c 1,6,7
 67 414 67 414 59 456 c 1,8,9
 199 543 199 543 246 648 c 1,10,11
 267 653 267 653 294.5 653 c 128,-1,12
 322 653 322 653 344 648 c 1,13,-1
 344 153 l 1,14,-1
 343 86 l 1,15,-1
 402 87 l 1,16,-1
 471 87 l 1,17,18
 475 68 475 68 475 43.5 c 128,-1,19
 475 19 475 19 471 0 c 1,20,-1
 94 0 l 1,21,22
 90 20 90 20 90 44 c 128,-1,23
 90 68 90 68 94 87 c 1,24,-1
 186 87 l 1,25,-1
 243 86 l 1,0,-1
EndSplineSet
Substitution2: "'sups' Superscript lookup 5 subtable" onesuperior
Substitution2: "'c2sc' Capitals to Small Capitals lookup 3 subtable" one.smcp
AlternateSubs2: "'aalt' Access All Alternates lookup 1 subtable" one.smcp onesuperior
EndChar

StartChar: two
Encoding: 50 50 60
Width: 530
Flags: HMW
HStem: 0 91<291 406> 575 86<227 283.5>
VStem: 352 107<448.5 506>
LayerCount: 2
Fore
SplineSet
475 91 m 1,0,1
 475 77 475 77 473 51 c 1,2,3
 464 0 464 0 406 0 c 2,4,-1
 95 0 l 1,5,6
 54 36 54 36 54 65 c 0,7,8
 54 147 54 147 179 255 c 1,9,-1
 277 341 l 2,10,11
 352 408 352 408 352 476 c 0,12,13
 352 521 352 521 325 548 c 128,-1,14
 298 575 298 575 256.5 575 c 0,15,16
 215 575 215 575 184 548.5 c 128,-1,17
 153 522 153 522 136 480 c 1,18,19
 115 481 115 481 93 490.5 c 128,-1,20
 71 500 71 500 61 515 c 1,21,22
 83 577 83 577 137 619 c 128,-1,23
 191 661 191 661 272 661 c 0,24,25
 353 661 353 661 406 609 c 128,-1,26
 459 557 459 557 459 482.5 c 0,27,28
 459 408 459 408 427 362 c 128,-1,29
 395 316 395 316 334 265 c 2,30,-1
 257 199 l 2,31,32
 169 123 169 123 159 83 c 1,33,34
 237 91 237 91 291 91 c 2,35,-1
 475 91 l 1,0,1
EndSplineSet
Substitution2: "'sups' Superscript lookup 5 subtable" twosuperior
Substitution2: "'c2sc' Capitals to Small Capitals lookup 3 subtable" two.smcp
AlternateSubs2: "'aalt' Access All Alternates lookup 1 subtable" two.smcp twosuperior
EndChar

StartChar: three
Encoding: 51 51 61
Width: 530
Flags: HMW
HStem: -13 85<206.5 271.5 206.5 304> 323 70 558 90<80 218 77 429>
VStem: 367 108<162.5 243.5>
LayerCount: 2
Fore
SplineSet
430 536 m 1,0,-1
 325 424 l 2,1,2
 311 410 311 410 289 393 c 1,3,4
 370 391 370 391 422.5 342 c 128,-1,5
 475 293 475 293 475 197 c 0,6,7
 475 101 475 101 407.5 44 c 128,-1,8
 340 -13 340 -13 248 -13 c 0,9,10
 126 -13 126 -13 48 53 c 1,11,12
 58 95 58 95 94 122 c 1,13,14
 161 72 161 72 227 72 c 0,15,16
 293 72 293 72 330 107 c 128,-1,17
 367 142 367 142 367 201.5 c 0,18,19
 367 261 367 261 336.5 292 c 128,-1,20
 306 323 306 323 261.5 323 c 0,21,22
 217 323 217 323 186 306 c 1,23,24
 157 320 157 320 144 362 c 1,25,-1
 269 498 l 1,26,27
 320 549 320 549 337 563 c 1,28,-1
 334 568 l 1,29,30
 294 558 294 558 218 558 c 2,31,-1
 77 558 l 1,32,33
 71 576 71 576 71 600.5 c 0,34,35
 71 625 71 625 80 648 c 1,36,-1
 429 648 l 1,37,38
 451 606 451 606 451 583 c 0,39,40
 451 560 451 560 430 536 c 1,0,-1
EndSplineSet
Substitution2: "'sups' Superscript lookup 5 subtable" threesuperior
Substitution2: "'c2sc' Capitals to Small Capitals lookup 3 subtable" three.smcp
AlternateSubs2: "'aalt' Access All Alternates lookup 1 subtable" three.smcp threesuperior
EndChar

StartChar: four
Encoding: 52 52 62
Width: 530
Flags: HMW
HStem: 137 88<62 293>
VStem: 292 101<0 85 0 93.5 269.5 278 278 335 335 360>
LayerCount: 2
Fore
SplineSet
392 139 m 1,0,-1
 393 85 l 1,1,-1
 393 0 l 1,2,3
 370 -4 370 -4 341.5 -4 c 128,-1,4
 313 -4 313 -4 292 0 c 1,5,-1
 292 85 l 1,6,-1
 293 139 l 1,7,-1
 239 137 l 1,8,-1
 62 137 l 1,9,10
 38 176 38 176 38 194.5 c 128,-1,11
 38 213 38 213 58 263 c 1,12,-1
 227 654 l 1,13,14
 249 659 249 659 279.5 653.5 c 128,-1,15
 310 648 310 648 324 635 c 1,16,-1
 209 369 l 2,17,18
 165 267 165 267 139 224 c 1,19,-1
 142 220 l 1,20,21
 205 225 205 225 256 225 c 2,22,-1
 293 225 l 1,23,24
 292 236 292 236 292 257 c 2,25,-1
 292 335 l 2,26,27
 292 372 292 372 310 393.5 c 128,-1,28
 328 415 328 415 360 415 c 2,29,-1
 388 415 l 1,30,-1
 393 410 l 1,31,-1
 393 278 l 1,32,33
 392 225 l 1,34,-1
 438 226 l 1,35,-1
 491 226 l 1,36,37
 494 205 494 205 494 182.5 c 128,-1,38
 494 160 494 160 487 138 c 1,39,-1
 438 138 l 1,40,-1
 392 139 l 1,0,-1
EndSplineSet
Substitution2: "'c2sc' Capitals to Small Capitals lookup 3 subtable" four.smcp
Substitution2: "'aalt' Access All Alternates lookup 0 subtable" four.smcp
EndChar

StartChar: five
Encoding: 53 53 63
Width: 530
Flags: HMW
HStem: -13 85<210 270.5 210 301> 348 83<254 271> 559 89<189 227 189 189 227 400>
VStem: 86 103 365 108<167 267.5>
LayerCount: 2
Fore
SplineSet
439 648 m 1,0,1
 446 627 446 627 446 605 c 0,2,3
 446 559 446 559 400 559 c 2,4,-1
 189 559 l 1,5,-1
 189 509 l 1,6,-1
 185 439 l 1,7,-1
 182 413 l 1,8,9
 226 431 226 431 270 431 c 0,10,11
 362 431 362 431 417.5 375 c 128,-1,12
 473 319 473 319 473 214 c 128,-1,13
 473 109 473 109 405.5 48 c 128,-1,14
 338 -13 338 -13 244 -13 c 0,15,16
 130 -13 130 -13 56 51 c 1,17,18
 59 68 59 68 72 88.5 c 128,-1,19
 85 109 85 109 100 120 c 1,20,21
 169 72 169 72 230 72 c 128,-1,22
 291 72 291 72 328 109 c 128,-1,23
 365 146 365 146 365 216 c 128,-1,24
 365 286 365 286 329 317 c 128,-1,25
 293 348 293 348 237 348 c 128,-1,26
 181 348 181 348 129 305 c 1,27,28
 115 307 115 307 100.5 317.5 c 128,-1,29
 86 328 86 328 79 340 c 1,30,-1
 93 641 l 1,31,-1
 100 648 l 1,32,-1
 439 648 l 1,0,1
EndSplineSet
Substitution2: "'c2sc' Capitals to Small Capitals lookup 3 subtable" five.smcp
Substitution2: "'aalt' Access All Alternates lookup 0 subtable" five.smcp
EndChar

StartChar: six
Encoding: 54 54 64
Width: 530
Flags: HMW
HStem: -13 80<256.5 308 256.5 334> 346 87<275 306.5> 578 83<260.5 335.5>
VStem: 50 109<246.5 274 274 290 246.5 429> 379 106<166.5 260.5>
LayerCount: 2
Fore
SplineSet
425.5 50.5 m 128,-1,1
 366 -13 366 -13 270.5 -13 c 128,-1,2
 175 -13 175 -13 120 51 c 1,3,4
 85.110752949 95.5807045652 85.110752949 95.5807045652 67.5553764745 157.609391043 c 128,-1,5
 50 219.638077522 50 219.638077522 50 327 c 0,6,7
 50 483 50 483 116.5 572 c 128,-1,8
 183 661 183 661 308 661 c 0,9,10
 396 661 396 661 452 629 c 1,11,12
 448 579 448 579 415 556 c 1,13,14
 365 578 365 578 314 578 c 0,15,16
 238 578 238 578 200 523 c 128,-1,17
 162 468 162 468 159 376 c 1,18,19
 221 433 221 433 304.5 433 c 128,-1,20
 388 433 388 433 436.5 378.5 c 128,-1,21
 485 324 485 324 485 219 c 128,-1,0
 485 114 485 114 425.5 50.5 c 128,-1,1
277 346 m 0,22,23
 212 346 212 346 159 290 c 1,24,-1
 159 274 l 2,25,26
 159 156 159 156 199 104 c 1,27,28
 229 67 229 67 276.5 67 c 128,-1,29
 324 67 324 67 351.5 105.5 c 128,-1,30
 379 144 379 144 379 209 c 0,31,32
 379 346 379 346 277 346 c 0,22,23
EndSplineSet
Substitution2: "'c2sc' Capitals to Small Capitals lookup 3 subtable" six.smcp
Substitution2: "'aalt' Access All Alternates lookup 0 subtable" six.smcp
EndChar

StartChar: seven
Encoding: 55 55 65
Width: 530
Flags: HMW
HStem: 558 90<69 229 65 465>
VStem: 153 107
LayerCount: 2
Fore
SplineSet
69 648 m 1,0,-1
 465 648 l 1,1,2
 484 610 484 610 484 586 c 0,3,4
 484 562 484 562 468 540 c 2,5,-1
 434 491 l 1,6,7
 358 379 358 379 317 274.5 c 128,-1,8
 276 170 276 170 262 36 c 1,9,-1
 259 0 l 1,10,11
 236 -5 236 -5 207 -5 c 0,12,13
 178 -5 178 -5 151 0 c 1,14,-1
 155 41 l 2,15,16
 179 277 179 277 318 477 c 1,17,-1
 329 493 l 1,18,19
 349 524 349 524 385 563 c 1,20,-1
 381 567 l 1,21,22
 340 558 340 558 229 558 c 2,23,-1
 65 558 l 1,24,25
 60 576 60 576 60 600 c 0,26,27
 60 624 60 624 69 648 c 1,0,-1
EndSplineSet
Substitution2: "'c2sc' Capitals to Small Capitals lookup 3 subtable" seven.smcp
Substitution2: "'aalt' Access All Alternates lookup 0 subtable" seven.smcp
EndChar

StartChar: eight
Encoding: 56 56 66
Width: 530
Flags: HMW
HStem: -13 75<232 296 232 321.5> 584 77<236.5 292>
VStem: 44 106<136 196.5 136 202> 61 104<463 519 463 539.5> 364 103<467 519> 378 107<138.5 171 113.5 206>
LayerCount: 2
Fore
SplineSet
44 163 m 0,0,1
 44 219 44 219 77 264.5 c 128,-1,2
 110 310 110 310 161 337 c 1,3,4
 61 391 61 391 61 490 c 0,5,6
 61 564 61 564 119.5 612.5 c 128,-1,7
 178 661 178 661 266 661 c 0,8,9
 354 661 354 661 410.5 614.5 c 128,-1,10
 467 568 467 568 467 494 c 0,11,12
 467 447 467 447 440 409 c 128,-1,13
 413 371 413 371 370 348 c 1,14,15
 486 286 486 286 485 171 c 0,16,17
 485 87 485 87 420 37 c 128,-1,18
 355 -13 355 -13 258.5 -13 c 0,19,20
 162 -13 162 -13 103 33.5 c 128,-1,21
 44 80 44 80 44 163 c 0,0,1
237 305 m 1,22,-1
 235 305 l 1,23,24
 150 257 150 257 150 171 c 0,25,26
 150 120 150 120 182 91 c 128,-1,27
 214 62 214 62 263.5 62 c 0,28,29
 313 62 313 62 345.5 92.5 c 128,-1,30
 378 123 378 123 378 172 c 0,31,32
 378 261 378 261 254 299 c 1,33,-1
 237 305 l 1,22,-1
165 491 m 0,34,35
 165 414 165 414 281 383 c 1,36,-1
 293 378 l 1,37,38
 364 419 364 419 364 490 c 0,39,40
 364 533 364 533 335.5 558.5 c 128,-1,41
 307 584 307 584 264.5 584 c 0,42,43
 222 584 222 584 193.5 558 c 128,-1,44
 165 532 165 532 165 491 c 0,34,35
EndSplineSet
Substitution2: "'c2sc' Capitals to Small Capitals lookup 3 subtable" eight.smcp
Substitution2: "'aalt' Access All Alternates lookup 0 subtable" eight.smcp
EndChar

StartChar: nine
Encoding: 57 57 67
Width: 530
Flags: HMW
HStem: -13 83<194.5 269.5 194.5 306.5> 215 87<223.5 255> 581 80<222 273.5>
VStem: 45 106<387.5 481.5 387.5 500.5> 371 109<357 374 374 401.5>
LayerCount: 2
Fore
SplineSet
104.5 597.5 m 128,-1,1
 164 661 164 661 259.5 661 c 128,-1,2
 355 661 355 661 410 597 c 1,3,4
 444.889247051 552.419295435 444.889247051 552.419295435 462.444623526 490.390608957 c 128,-1,5
 480 428.361922478 480 428.361922478 480 321 c 0,6,7
 480 165 480 165 413.5 76 c 128,-1,8
 347 -13 347 -13 222 -13 c 0,9,10
 134 -13 134 -13 78 19 c 1,11,12
 82 69 82 69 115 92 c 1,13,14
 165 70 165 70 216 70 c 0,15,16
 292 70 292 70 330 124.5 c 128,-1,17
 368 179 368 179 371 271 c 1,18,19
 308 215 308 215 225 215 c 128,-1,20
 142 215 142 215 93.5 269.5 c 128,-1,21
 45 324 45 324 45 429 c 128,-1,0
 45 534 45 534 104.5 597.5 c 128,-1,1
253 302 m 0,22,23
 316 302 316 302 371 357 c 1,24,-1
 371 374 l 2,25,26
 371 492 371 492 331 544 c 1,27,28
 301 581 301 581 253.5 581 c 128,-1,29
 206 581 206 581 178.5 542.5 c 128,-1,30
 151 504 151 504 151 439 c 0,31,32
 151 302 151 302 253 302 c 0,22,23
EndSplineSet
Substitution2: "'c2sc' Capitals to Small Capitals lookup 3 subtable" nine.smcp
Substitution2: "'aalt' Access All Alternates lookup 0 subtable" nine.smcp
EndChar

StartChar: period
Encoding: 46 46 68
Width: 263
Flags: HMW
HStem: 5 99<70 70 193 193>
VStem: 61 132
LayerCount: 2
Fore
SplineSet
61 55 m 128,-1,1
 61 87 61 87 70 104 c 1,2,3
 94 118 94 118 132 118 c 128,-1,4
 170 118 170 118 193 104 c 1,5,6
 202 87 202 87 202 55 c 128,-1,7
 202 23 202 23 193 5 c 1,8,9
 174 -8 174 -8 133.5 -8 c 0,10,11
 93 -8 93 -8 70 5 c 1,12,0
 61 23 61 23 61 55 c 128,-1,1
EndSplineSet
EndChar

StartChar: periodcentered
Encoding: 183 183 69
Width: 305
Flags: HMW
HStem: 234 99<95 95 210 210>
VStem: 86 124
LayerCount: 2
Fore
SplineSet
86 284 m 128,-1,1
 86 316 86 316 95 333 c 1,2,3
 118 347 118 347 153.5 347 c 0,4,5
 189 347 189 347 210 333 c 1,6,7
 219 316 219 316 219 284 c 128,-1,8
 219 252 219 252 210 234 c 1,9,10
 192 221 192 221 154 221 c 0,11,12
 116 221 116 221 95 234 c 1,13,0
 86 252 86 252 86 284 c 128,-1,1
EndSplineSet
EndChar

StartChar: bullet
Encoding: 8226 8226 70
Width: 447
Flags: HMW
HStem: 186 171<125 125 325 325>
VStem: 110 215
LayerCount: 2
Fore
SplineSet
110 272 m 128,-1,1
 110 328 110 328 125 357 c 1,2,3
 164 381 164 381 226.5 381 c 0,4,5
 289 381 289 381 325 357 c 1,6,7
 340 328 340 328 340 272 c 128,-1,8
 340 216 340 216 325 186 c 1,9,10
 294 163 294 163 228.5 163 c 0,11,12
 163 163 163 163 125 186 c 1,13,0
 110 216 110 216 110 272 c 128,-1,1
EndSplineSet
EndChar

StartChar: comma
Encoding: 44 44 71
Width: 269
Flags: HMW
HStem: -161 278
VStem: 76 132
LayerCount: 2
Fore
SplineSet
197 104 m 1,0,1
 208 76 208 76 208 38 c 0,2,3
 208 -28 208 -28 170 -82 c 128,-1,4
 132 -136 132 -136 60 -161 c 1,5,6
 47 -154 47 -154 39.5 -139.5 c 128,-1,7
 32 -125 32 -125 33 -109 c 1,8,9
 68 -94 68 -94 91 -67 c 128,-1,10
 114 -40 114 -40 116 -9 c 1,11,12
 87 -2 87 -2 76 5 c 1,13,14
 67 23 67 23 67 56.5 c 0,15,16
 67 90 67 90 76 104 c 1,17,18
 98 117 98 117 137.5 117 c 0,19,20
 177 117 177 117 197 104 c 1,0,1
EndSplineSet
EndChar

StartChar: colon
Encoding: 58 58 72
Width: 269
Flags: HMW
HStem: 5 99<73 73 196 196> 334 99<73 73 196 196>
VStem: 64 132
LayerCount: 2
Fore
SplineSet
64 55 m 128,-1,1
 64 87 64 87 73 104 c 1,2,3
 98 118 98 118 135.5 118 c 0,4,5
 173 118 173 118 196 104 c 1,6,7
 205 87 205 87 205 55 c 128,-1,8
 205 23 205 23 196 5 c 1,9,10
 176 -8 176 -8 136 -8 c 0,11,12
 96 -8 96 -8 73 5 c 1,13,0
 64 23 64 23 64 55 c 128,-1,1
64 384 m 128,-1,15
 64 416 64 416 73 433 c 1,16,17
 98 447 98 447 135.5 447 c 0,18,19
 173 447 173 447 196 433 c 1,20,21
 205 416 205 416 205 384 c 128,-1,22
 205 352 205 352 196 334 c 1,23,24
 176 321 176 321 136 321 c 0,25,26
 96 321 96 321 73 334 c 1,27,14
 64 352 64 352 64 384 c 128,-1,15
EndSplineSet
EndChar

StartChar: semicolon
Encoding: 59 59 73
Width: 273
Flags: HMW
HStem: -161 278 334 99<75 75 198 198>
VStem: 66 132 75 132
LayerCount: 2
Fore
SplineSet
196 104 m 1,0,1
 207 76 207 76 207 38 c 0,2,3
 207 -28 207 -28 169 -82 c 128,-1,4
 131 -136 131 -136 59 -161 c 1,5,6
 46 -154 46 -154 38.5 -139.5 c 128,-1,7
 31 -125 31 -125 32 -109 c 1,8,9
 67 -94 67 -94 90 -67 c 128,-1,10
 113 -40 113 -40 115 -9 c 1,11,12
 86 -2 86 -2 75 5 c 1,13,14
 66 23 66 23 66 56.5 c 0,15,16
 66 90 66 90 75 104 c 1,17,18
 97 117 97 117 136.5 117 c 0,19,20
 176 117 176 117 196 104 c 1,0,1
66 384 m 128,-1,22
 66 416 66 416 75 433 c 1,23,24
 99 447 99 447 137 447 c 128,-1,25
 175 447 175 447 198 433 c 1,26,27
 207 416 207 416 207 384 c 128,-1,28
 207 352 207 352 198 334 c 1,29,30
 178 321 178 321 138 321 c 0,31,32
 98 321 98 321 75 334 c 1,33,21
 66 352 66 352 66 384 c 128,-1,22
EndSplineSet
EndChar

StartChar: exclam
Encoding: 33 33 74
Width: 288
Flags: HMW
HStem: 4 106 683 7
VStem: 96 98
LayerCount: 2
Fore
SplineSet
102 194 m 1,0,-1
 90 660 l 1,1,2
 130 690 130 690 200 690 c 1,3,-1
 207 683 l 1,4,-1
 182 194 l 1,5,6
 166 189 166 189 141.5 189 c 128,-1,7
 117 189 117 189 102 194 c 1,0,-1
86 97 m 1,8,9
 107 110 107 110 142.5 110 c 128,-1,10
 178 110 178 110 199 97 c 1,11,12
 208 81 208 81 208 50.5 c 128,-1,13
 208 20 208 20 199 4 c 1,14,15
 178 -9 178 -9 142.5 -9 c 128,-1,16
 107 -9 107 -9 86 4 c 1,17,18
 77 18 77 18 77 50.5 c 128,-1,19
 77 83 77 83 86 97 c 1,8,9
EndSplineSet
EndChar

StartChar: exclamdown
Encoding: 161 161 75
Width: 288
Flags: HMW
HStem: -197 8<81 110> 384 106
VStem: 93 98
LayerCount: 2
Fore
SplineSet
186 299 m 1,0,-1
 198 -167 l 1,1,2
 158 -197 158 -197 88 -197 c 1,3,-1
 81 -189 l 1,4,-1
 106 299 l 1,5,6
 122 304 122 304 146 304 c 128,-1,7
 170 304 170 304 186 299 c 1,0,-1
202 396 m 1,8,9
 182 384 182 384 145 384 c 128,-1,10
 108 384 108 384 89 396 c 1,11,12
 80 412 80 412 80 442 c 128,-1,13
 80 472 80 472 89 490 c 1,14,15
 111 502 111 502 145.5 502 c 128,-1,16
 180 502 180 502 202 490 c 1,17,18
 211 475 211 475 211 442.5 c 128,-1,19
 211 410 211 410 202 396 c 1,8,9
EndSplineSet
EndChar

StartChar: question
Encoding: 63 63 76
Width: 396
Flags: HMW
HStem: 3 106 604 92<167 210>
VStem: 91 113<3 3 96 96> 104 86 277 110<486 542>
LayerCount: 2
Fore
SplineSet
11 645 m 1,0,1
 103 696 103 696 195 696 c 128,-1,2
 287 696 287 696 337 649.5 c 128,-1,3
 387 603 387 603 387 525 c 0,4,5
 387 404 387 404 257 331 c 1,6,-1
 194 297 l 1,7,-1
 186 195 l 1,8,9
 168 189 168 189 146.5 189 c 128,-1,10
 125 189 125 189 107 195 c 1,11,-1
 101 344 l 1,12,-1
 110 355 l 1,13,-1
 158 380 l 1,14,15
 277 440 277 440 277 515 c 0,16,17
 277 556 277 556 251 580 c 128,-1,18
 225 604 225 604 173 604 c 128,-1,19
 121 604 121 604 49 568 c 1,20,21
 35 580 35 580 23.5 602 c 128,-1,22
 12 624 12 624 11 645 c 1,0,1
91 96 m 1,23,24
 112 109 112 109 147.5 109 c 128,-1,25
 183 109 183 109 204 96 c 1,26,27
 213 82 213 82 213 49 c 128,-1,28
 213 16 213 16 204 3 c 1,29,30
 183 -10 183 -10 147.5 -10 c 128,-1,31
 112 -10 112 -10 91 3 c 1,32,33
 82 19 82 19 82 49.5 c 128,-1,34
 82 80 82 80 91 96 c 1,23,24
EndSplineSet
EndChar

StartChar: questiondown
Encoding: 191 191 77
Width: 396
Flags: HMW
HStem: -204 92<189 232> 384 106
VStem: 11 111<-49.5 6.5 -49.5 13.5> 195 113<396 396 490 490> 208 87
LayerCount: 2
Fore
SplineSet
388 -153 m 1,0,1
 293 -204 293 -204 202.5 -204 c 128,-1,2
 112 -204 112 -204 61.5 -157.5 c 128,-1,3
 11 -111 11 -111 11 -33 c 0,4,5
 11 87 11 87 142 161 c 2,6,-1
 204 196 l 1,7,-1
 212 297 l 1,8,9
 226 303 226 303 252 303 c 128,-1,10
 278 303 278 303 292 297 c 1,11,-1
 298 148 l 1,12,-1
 289 137 l 1,13,-1
 240 113 l 1,14,15
 122 51 122 51 122 -23 c 0,16,17
 122 -63 122 -63 148 -87.5 c 128,-1,18
 174 -112 174 -112 227 -112 c 128,-1,19
 280 -112 280 -112 350 -75 c 1,20,21
 364 -87 364 -87 375.5 -110 c 128,-1,22
 387 -133 387 -133 388 -153 c 1,0,1
308 396 m 1,23,24
 287 384 287 384 250.5 384 c 128,-1,25
 214 384 214 384 195 396 c 1,26,27
 186 410 186 410 186 442.5 c 128,-1,28
 186 475 186 475 195 490 c 1,29,30
 217 502 217 502 250.5 502 c 128,-1,31
 284 502 284 502 308 490 c 1,32,33
 316 474 316 474 316 442 c 128,-1,34
 316 410 316 410 308 396 c 1,23,24
EndSplineSet
EndChar

StartChar: quoteleft
Encoding: 8216 8216 78
Width: 228
Flags: HMW
HStem: 518 110
VStem: 42 132
LayerCount: 2
Fore
SplineSet
54 518 m 1,0,1
 42 545 42 545 42 584 c 0,2,3
 42 645 42 645 76 692.5 c 128,-1,4
 110 740 110 740 175 764 c 1,5,6
 206 749 206 749 202 713 c 1,7,8
 135 682 135 682 132 628 c 1,9,10
 162 626 162 626 174 617 c 1,11,12
 184 602 184 602 184 567.5 c 0,13,14
 184 533 184 533 174 518 c 1,15,16
 152 505 152 505 112 505 c 0,17,18
 72 505 72 505 54 518 c 1,0,1
EndSplineSet
EndChar

StartChar: quoteright
Encoding: 8217 8217 79
Width: 228
Flags: HMW
HStem: 534 20G 639 111
VStem: 53 132
LayerCount: 2
Fore
SplineSet
174 750 m 1,0,1
 185 725 185 725 185 673.5 c 0,2,3
 185 622 185 622 151.5 574 c 128,-1,4
 118 526 118 526 53 503 c 1,5,6
 39 510 39 510 31.5 524.5 c 128,-1,7
 24 539 24 539 26 554 c 1,8,9
 93 587 93 587 96 639 c 1,10,11
 62 644 62 644 53 651 c 1,12,13
 44 667 44 667 44 699.5 c 0,14,15
 44 732 44 732 53 750 c 1,16,17
 79 763 79 763 116.5 763 c 0,18,19
 154 763 154 763 174 750 c 1,0,1
EndSplineSet
EndChar

StartChar: quotedblleft
Encoding: 8220 8220 80
Width: 422
Flags: HMW
HStem: 518 110
VStem: 41 132 235 132
LayerCount: 2
Fore
SplineSet
53 518 m 1,0,1
 41 545 41 545 41 584 c 0,2,3
 41 645 41 645 75 692.5 c 128,-1,4
 109 740 109 740 174 764 c 1,5,6
 205 749 205 749 201 713 c 1,7,8
 134 682 134 682 131 628 c 1,9,10
 161 626 161 626 173 617 c 1,11,12
 183 602 183 602 183 567.5 c 0,13,14
 183 533 183 533 173 518 c 1,15,16
 151 505 151 505 111 505 c 0,17,18
 71 505 71 505 53 518 c 1,0,1
247 518 m 1,19,20
 235 545 235 545 235 584 c 0,21,22
 235 645 235 645 269 692.5 c 128,-1,23
 303 740 303 740 368 764 c 1,24,25
 399 749 399 749 395 713 c 1,26,27
 328 682 328 682 325 628 c 1,28,29
 355 626 355 626 367 617 c 1,30,31
 377 602 377 602 377 567.5 c 0,32,33
 377 533 377 533 367 518 c 1,34,35
 345 505 345 505 305 505 c 0,36,37
 265 505 265 505 247 518 c 1,19,20
EndSplineSet
EndChar

StartChar: quotedblright
Encoding: 8221 8221 81
Width: 422
Flags: HMW
HStem: 534 20G 639 111
VStem: 55 132 249 132
LayerCount: 2
Fore
SplineSet
176 750 m 1,0,1
 187 725 187 725 187 673.5 c 0,2,3
 187 622 187 622 153.5 574 c 128,-1,4
 120 526 120 526 55 503 c 1,5,6
 41 510 41 510 33.5 524.5 c 128,-1,7
 26 539 26 539 28 554 c 1,8,9
 95 587 95 587 98 639 c 1,10,11
 64 644 64 644 55 651 c 1,12,13
 46 667 46 667 46 699.5 c 0,14,15
 46 732 46 732 55 750 c 1,16,17
 81 763 81 763 118.5 763 c 0,18,19
 156 763 156 763 176 750 c 1,0,1
370 750 m 1,20,21
 381 725 381 725 381 673.5 c 0,22,23
 381 622 381 622 347.5 574 c 128,-1,24
 314 526 314 526 249 503 c 1,25,26
 235 510 235 510 227.5 524.5 c 128,-1,27
 220 539 220 539 222 554 c 1,28,29
 289 587 289 587 292 639 c 1,30,31
 258 644 258 644 249 651 c 1,32,33
 240 667 240 667 240 699.5 c 0,34,35
 240 732 240 732 249 750 c 1,36,37
 275 763 275 763 312.5 763 c 0,38,39
 350 763 350 763 370 750 c 1,20,21
EndSplineSet
EndChar

StartChar: quotesingle
Encoding: 39 39 82
Width: 211
Flags: HMW
HStem: 503 248 503 261
VStem: 43 117<694.5 711.5>
LayerCount: 2
Fore
SplineSet
43 710 m 128,-1,1
 43 723 43 723 50 751 c 1,2,3
 71 764 71 764 101.5 764 c 128,-1,4
 132 764 132 764 153 751 c 1,5,6
 160 723 160 723 160 709.5 c 128,-1,7
 160 696 160 696 154.5 668.5 c 0,8,9
 138.705882353 589.529411765 138.705882353 589.529411765 129 508 c 1,10,11
 119 503 119 503 101.5 503 c 128,-1,12
 84 503 84 503 74 508 c 1,13,14
 64 592 64 592 53.5 644.5 c 128,-1,0
 43 697 43 697 43 710 c 128,-1,1
EndSplineSet
EndChar

StartChar: quotesinglbase
Encoding: 8218 8218 83
Width: 229
Flags: HMW
HStem: -9 110
VStem: 58 131
LayerCount: 2
Fore
SplineSet
178 101 m 1,0,1
 189 78 189 78 189 25.5 c 0,2,3
 189 -27 189 -27 155.5 -74.5 c 128,-1,4
 122 -122 122 -122 57 -145 c 1,5,6
 43 -138 43 -138 35.5 -123.5 c 128,-1,7
 28 -109 28 -109 30 -94 c 1,8,9
 58 -81 58 -81 78.5 -58.5 c 128,-1,10
 99 -36 99 -36 100 -9 c 1,11,12
 66 -4 66 -4 58 3 c 1,13,14
 48 18 48 18 48 52 c 0,15,16
 48 86 48 86 58 101 c 1,17,18
 80 115 80 115 119.5 115 c 0,19,20
 159 115 159 115 178 101 c 1,0,1
EndSplineSet
EndChar

StartChar: quotedbl
Encoding: 34 34 84
Width: 390
Flags: HMW
HStem: 503 248 503 261
VStem: 46 117<694.5 711.5> 227 117<694.5 711.5>
LayerCount: 2
Fore
SplineSet
227 710 m 128,-1,1
 227 723 227 723 234 751 c 1,2,3
 255 764 255 764 285.5 764 c 128,-1,4
 316 764 316 764 337 751 c 1,5,6
 344 723 344 723 344 709.5 c 128,-1,7
 344 696 344 696 338.5 668.5 c 0,8,9
 322.705882353 589.529411765 322.705882353 589.529411765 313 508 c 1,10,11
 303 503 303 503 285.5 503 c 128,-1,12
 268 503 268 503 258 508 c 1,13,14
 248 592 248 592 237.5 644.5 c 128,-1,0
 227 697 227 697 227 710 c 128,-1,1
46 710 m 128,-1,16
 46 723 46 723 53 751 c 1,17,18
 74 764 74 764 104.5 764 c 128,-1,19
 135 764 135 764 156 751 c 1,20,21
 163 723 163 723 163 709.5 c 128,-1,22
 163 696 163 696 157.5 668.5 c 0,23,24
 141.705882353 589.529411765 141.705882353 589.529411765 132 508 c 1,25,26
 122 503 122 503 105 503 c 128,-1,27
 88 503 88 503 77 508 c 1,28,29
 67 592 67 592 56.5 644.5 c 128,-1,15
 46 697 46 697 46 710 c 128,-1,16
EndSplineSet
EndChar

StartChar: quotedblbase
Encoding: 8222 8222 85
Width: 423
Flags: HMW
HStem: -9 110
VStem: 58 131 252 131
LayerCount: 2
Fore
SplineSet
178 101 m 1,0,1
 189 78 189 78 189 25.5 c 0,2,3
 189 -27 189 -27 155.5 -74.5 c 128,-1,4
 122 -122 122 -122 57 -145 c 1,5,6
 43 -138 43 -138 35.5 -123.5 c 128,-1,7
 28 -109 28 -109 30 -94 c 1,8,9
 58 -81 58 -81 78.5 -58.5 c 128,-1,10
 99 -36 99 -36 100 -9 c 1,11,12
 66 -4 66 -4 58 3 c 1,13,14
 48 18 48 18 48 52 c 0,15,16
 48 86 48 86 58 101 c 1,17,18
 80 115 80 115 119.5 115 c 0,19,20
 159 115 159 115 178 101 c 1,0,1
372 101 m 1,21,22
 383 78 383 78 383 25.5 c 0,23,24
 383 -27 383 -27 349.5 -74.5 c 128,-1,25
 316 -122 316 -122 251 -145 c 1,26,27
 237 -138 237 -138 229.5 -123.5 c 128,-1,28
 222 -109 222 -109 224 -94 c 1,29,30
 252 -81 252 -81 272.5 -58.5 c 128,-1,31
 293 -36 293 -36 294 -9 c 1,32,33
 260 -4 260 -4 252 3 c 1,34,35
 242 18 242 18 242 52 c 0,36,37
 242 86 242 86 252 101 c 1,38,39
 274 115 274 115 313.5 115 c 0,40,41
 353 115 353 115 372 101 c 1,21,22
EndSplineSet
EndChar

StartChar: guilsinglleft
Encoding: 8249 8249 86
Width: 332
Flags: HMW
HStem: 37 435<232 236>
VStem: 33 262
LayerCount: 2
Fore
SplineSet
290 418 m 1,0,-1
 151 257 l 1,1,-1
 295 91 l 1,2,3
 289 74 289 74 271.5 58 c 128,-1,4
 254 42 254 42 236 37 c 1,5,-1
 39 222 l 1,6,7
 33 236 33 236 33 255 c 128,-1,8
 33 274 33 274 39 288 c 1,9,-1
 232 472 l 1,10,11
 250 467 250 467 267 451 c 128,-1,12
 284 435 284 435 290 418 c 1,0,-1
EndSplineSet
EndChar

StartChar: guilsinglright
Encoding: 8250 8250 87
Width: 332
Flags: HMW
HStem: 37 435<95 99>
VStem: 36 262
LayerCount: 2
Fore
SplineSet
42 92 m 1,0,-1
 180 253 l 1,1,-1
 36 418 l 1,2,3
 42 434 42 434 60 450.5 c 128,-1,4
 78 467 78 467 95 472 c 1,5,-1
 293 287 l 1,6,7
 306 254 306 254 293 222 c 1,8,-1
 99 37 l 1,9,10
 82 42 82 42 65 58.5 c 128,-1,11
 48 75 48 75 42 92 c 1,0,-1
EndSplineSet
EndChar

StartChar: guillemotleft
Encoding: 171 171 88
Width: 558
Flags: HMW
HStem: 37 435<232 236 232 463>
VStem: 33 262 260 262
LayerCount: 2
Fore
SplineSet
517 418 m 1,0,-1
 378 257 l 1,1,-1
 522 91 l 1,2,3
 516 74 516 74 498.5 58 c 128,-1,4
 481 42 481 42 463 37 c 1,5,-1
 266 222 l 1,6,7
 260 235 260 235 260 254.5 c 128,-1,8
 260 274 260 274 266 288 c 1,9,-1
 459 472 l 1,10,11
 477 467 477 467 494 451 c 128,-1,12
 511 435 511 435 517 418 c 1,0,-1
290 418 m 1,13,-1
 151 257 l 1,14,-1
 295 91 l 1,15,16
 289 74 289 74 271.5 58 c 128,-1,17
 254 42 254 42 236 37 c 1,18,-1
 39 222 l 1,19,20
 33 236 33 236 33 255 c 128,-1,21
 33 274 33 274 39 288 c 1,22,-1
 232 472 l 1,23,24
 250 467 250 467 267 451 c 128,-1,25
 284 435 284 435 290 418 c 1,13,-1
EndSplineSet
EndChar

StartChar: guillemotright
Encoding: 187 187 89
Width: 558
Flags: HMW
HStem: 37 435<95 99 95 326>
VStem: 36 262 263 262
LayerCount: 2
Fore
SplineSet
42 92 m 1,0,-1
 180 253 l 1,1,-1
 36 418 l 1,2,3
 42 434 42 434 60 450.5 c 128,-1,4
 78 467 78 467 95 472 c 1,5,-1
 293 287 l 1,6,7
 306 254 306 254 293 222 c 1,8,-1
 99 37 l 1,9,10
 82 42 82 42 65 58.5 c 128,-1,11
 48 75 48 75 42 92 c 1,0,-1
269 92 m 1,12,-1
 407 253 l 1,13,-1
 263 418 l 1,14,15
 269 434 269 434 287 450.5 c 128,-1,16
 305 467 305 467 322 472 c 1,17,-1
 520 287 l 1,18,19
 533 254 533 254 520 222 c 1,20,-1
 326 37 l 1,21,22
 309 42 309 42 292 58.5 c 128,-1,23
 275 75 275 75 269 92 c 1,12,-1
EndSplineSet
EndChar

StartChar: onesuperior
Encoding: 185 185 90
Width: 420
Flags: HMW
HStem: 340 76<86 188 274 357 86 188>
VStem: 188 86<416 575 575 583>
LayerCount: 2
Fore
SplineSet
59 628 m 1,0,1
 110 657 110 657 140.5 689 c 128,-1,2
 171 721 171 721 191 765 c 1,3,4
 210 770 210 770 231.5 770 c 0,5,6
 253 770 253 770 274 765 c 1,7,-1
 274 416 l 1,8,-1
 357 416 l 1,9,10
 361 401 361 401 361 379 c 0,11,12
 361 357 361 357 357 340 c 1,13,-1
 86 340 l 1,14,15
 82 359 82 359 82 380 c 0,16,17
 82 401 82 401 86 416 c 1,18,-1
 188 416 l 1,19,-1
 188 575 l 2,20,21
 188 584 188 584 189.5 608.5 c 128,-1,22
 191 633 191 633 191 640 c 1,23,24
 162 600 162 600 98 572 c 1,25,26
 66 588 66 588 59 628 c 1,0,1
EndSplineSet
EndChar

StartChar: twosuperior
Encoding: 178 178 91
Width: 420
Flags: HMW
HStem: 338 80<234 302> 694 79<179.5 210.5>
VStem: 248 94<626.5 656>
LayerCount: 2
Fore
SplineSet
353 418 m 1,0,1
 353 390 353 390 352 380 c 0,2,3
 344 338 344 338 302 338 c 2,4,-1
 84 338 l 1,5,6
 55 376 55 376 55 392 c 0,7,8
 55 446 55 446 131 508 c 2,9,-1
 204 568 l 1,10,11
 248 602 248 602 248 641 c 0,12,13
 248 664 248 664 233 679 c 128,-1,14
 218 694 218 694 195 694 c 0,15,16
 150 694 150 694 128 638 c 1,17,18
 110 640 110 640 89.5 649 c 128,-1,19
 69 658 69 658 61 669 c 1,20,21
 75 714 75 714 112.5 743.5 c 128,-1,22
 150 773 150 773 207.5 773 c 0,23,24
 265 773 265 773 303.5 736 c 128,-1,25
 342 699 342 699 342 650 c 0,26,27
 342 601 342 601 321.5 569.5 c 128,-1,28
 301 538 301 538 260 506 c 2,29,-1
 204 462 l 1,30,31
 161 430 161 430 149 410 c 1,32,33
 199 418 199 418 234 418 c 2,34,-1
 353 418 l 1,0,1
EndSplineSet
EndChar

StartChar: threesuperior
Encoding: 179 179 92
Width: 420
Flags: HMW
HStem: 334 72<162 202 161.5 231> 545 56<184.5 262.5> 692 74<73 152 72 317>
VStem: 259 91<453 495.5>
LayerCount: 2
Fore
SplineSet
316 680 m 2,0,-1
 258 623 l 2,1,2
 248 613 248 613 229 601 c 1,3,4
 280 601 280 601 315 566 c 128,-1,5
 350 531 350 531 350 469.5 c 0,6,7
 350 408 350 408 303 371 c 128,-1,8
 256 334 256 334 181.5 334 c 0,9,10
 107 334 107 334 51 378 c 1,11,12
 57 414 57 414 86 439 c 1,13,14
 135 406 135 406 175 406 c 0,15,16
 215 406 215 406 237 424.5 c 128,-1,17
 259 443 259 443 259 474.5 c 0,18,19
 259 506 259 506 241 525.5 c 128,-1,20
 223 545 223 545 195.5 545 c 0,21,22
 168 545 168 545 150 536 c 1,23,24
 139 541 139 541 128.5 554.5 c 128,-1,25
 118 568 118 568 115 583 c 1,26,-1
 194 662 l 2,27,28
 212 680 212 680 233 694 c 1,29,-1
 231 697 l 1,30,31
 209 692 209 692 152 692 c 2,32,-1
 72 692 l 1,33,34
 67 706 67 706 67 728 c 0,35,36
 67 750 67 750 73 766 c 1,37,-1
 317 766 l 1,38,39
 333 734 333 734 333 715 c 0,40,41
 333 696 333 696 316 680 c 2,0,-1
EndSplineSet
EndChar

StartChar: onequarter
Encoding: 188 188 93
Width: 946
Flags: HMW
HStem: -20 20G<270 270 270 371> 80 75<667 667 667 717 598 667> 258 76<62 164 250 333 62 164>
VStem: 164 86<334 493 493 501> 270 478 757 85<3 45 45 51>
LayerCount: 2
Fore
SplineSet
35 546 m 1,0,1
 86 575 86 575 116.5 607 c 128,-1,2
 147 639 147 639 167 683 c 1,3,4
 186 688 186 688 207.5 688 c 128,-1,5
 229 688 229 688 250 683 c 1,6,-1
 250 334 l 1,7,-1
 333 334 l 1,8,9
 337 319 337 319 337 297 c 128,-1,10
 337 275 337 275 333 258 c 1,11,-1
 62 258 l 1,12,13
 58 277 58 277 58 298 c 128,-1,14
 58 319 58 319 62 334 c 1,15,-1
 164 334 l 1,16,-1
 164 493 l 2,17,18
 164 502 164 502 165.5 526.5 c 128,-1,19
 167 551 167 551 167 558 c 1,20,21
 138 518 138 518 74 490 c 1,22,23
 42 506 42 506 35 546 c 1,0,1
270 0 m 1,24,-1
 646 683 l 1,25,26
 666 689 666 689 699.5 688.5 c 128,-1,27
 733 688 733 688 748 683 c 1,28,-1
 371 0 l 1,29,30
 351 -6 351 -6 317.5 -5.5 c 128,-1,31
 284 -5 284 -5 270 0 c 1,24,-1
843 206 m 1,32,-1
 842 155 l 1,33,-1
 903 155 l 1,34,35
 906 142 906 142 906 120 c 128,-1,36
 906 98 906 98 899 81 c 1,37,-1
 842 81 l 1,38,-1
 842 3 l 1,39,40
 826 -1 826 -1 801 -1 c 128,-1,41
 776 -1 776 -1 757 3 c 1,42,-1
 757 45 l 1,43,-1
 758 81 l 1,44,-1
 717 80 l 1,45,-1
 598 80 l 1,46,47
 578 112 578 112 578 130.5 c 128,-1,48
 578 149 578 149 593 179 c 1,49,-1
 710 432 l 1,50,51
 731 434 731 434 756 428.5 c 128,-1,52
 781 423 781 423 794 412 c 1,53,-1
 718 248 l 2,54,55
 686 180 686 180 667 155 c 1,56,-1
 669 153 l 1,57,58
 694 155 694 155 740 155 c 2,59,-1
 758 155 l 1,60,61
 757 163 757 163 757 179 c 2,62,-1
 757 212 l 2,63,64
 757 241 757 241 773 258 c 128,-1,65
 789 275 789 275 815 275 c 2,66,-1
 840 275 l 1,67,-1
 843 272 l 1,68,-1
 843 206 l 1,32,-1
EndSplineSet
Ligature2: "'frac' Diagonal Fractions lookup 4 subtable" one fraction four
Ligature2: "'frac' Diagonal Fractions lookup 4 subtable" one slash four
EndChar

StartChar: onehalf
Encoding: 189 189 94
Width: 946
Flags: HMW
HStem: -20 20G<255 255 255 356 628 628 628 846> 0 80<778 846> 258 76<62 164 250 333 62 164> 356 79<723.5 754.5>
VStem: 164 86<334 493 493 501> 255 478 792 94<288.5 318>
LayerCount: 2
Fore
SplineSet
255 0 m 1,0,-1
 631 683 l 1,1,2
 651 689 651 689 684.5 688.5 c 128,-1,3
 718 688 718 688 733 683 c 1,4,-1
 356 0 l 1,5,6
 336 -6 336 -6 302.5 -5.5 c 128,-1,7
 269 -5 269 -5 255 0 c 1,0,-1
35 546 m 1,8,9
 86 575 86 575 116.5 607 c 128,-1,10
 147 639 147 639 167 683 c 1,11,12
 186 688 186 688 207.5 688 c 0,13,14
 229 688 229 688 250 683 c 1,15,-1
 250 334 l 1,16,-1
 333 334 l 1,17,18
 337 319 337 319 337 297 c 0,19,20
 337 275 337 275 333 258 c 1,21,-1
 62 258 l 1,22,23
 58 277 58 277 58 298 c 0,24,25
 58 319 58 319 62 334 c 1,26,-1
 164 334 l 1,27,-1
 164 493 l 2,28,29
 164 502 164 502 165.5 526.5 c 128,-1,30
 167 551 167 551 167 558 c 1,31,32
 138 518 138 518 74 490 c 1,33,34
 42 506 42 506 35 546 c 1,8,9
897 80 m 1,35,36
 897 52 897 52 896 42 c 0,37,38
 888 0 888 0 846 0 c 2,39,-1
 628 0 l 1,40,41
 599 38 599 38 599 54 c 0,42,43
 599 108 599 108 675 170 c 2,44,-1
 748 230 l 1,45,46
 792 264 792 264 792 303 c 0,47,48
 792 326 792 326 777 341 c 128,-1,49
 762 356 762 356 739 356 c 0,50,51
 694 356 694 356 672 300 c 1,52,53
 654 302 654 302 633.5 311 c 128,-1,54
 613 320 613 320 605 331 c 1,55,56
 619 376 619 376 656.5 405.5 c 128,-1,57
 694 435 694 435 751.5 435 c 0,58,59
 809 435 809 435 847.5 398 c 128,-1,60
 886 361 886 361 886 312 c 0,61,62
 886 263 886 263 865.5 231.5 c 128,-1,63
 845 200 845 200 804 168 c 2,64,-1
 748 124 l 1,65,66
 705 92 705 92 693 72 c 1,67,68
 743 80 743 80 778 80 c 2,69,-1
 897 80 l 1,35,36
EndSplineSet
Ligature2: "'frac' Diagonal Fractions lookup 4 subtable" one fraction two
Ligature2: "'frac' Diagonal Fractions lookup 4 subtable" one slash two
EndChar

StartChar: threequarters
Encoding: 190 190 95
Width: 946
Flags: HMW
HStem: -20 20G<255 255 255 356> 80 75<662 662 662 712 593 662> 253 72<161 201 160.5 230> 464 56<183.5 261.5> 611 74<72 151 71 316>
VStem: 255 478 258 91<372 414.5> 752 85<3 45 45 51>
LayerCount: 2
Fore
SplineSet
255 0 m 1,0,-1
 631 683 l 1,1,2
 651 689 651 689 684.5 688.5 c 128,-1,3
 718 688 718 688 733 683 c 1,4,-1
 356 0 l 1,5,6
 336 -6 336 -6 302.5 -5.5 c 128,-1,7
 269 -5 269 -5 255 0 c 1,0,-1
315 599 m 2,8,-1
 257 542 l 2,9,10
 247 532 247 532 228 520 c 1,11,12
 279 520 279 520 314 485 c 128,-1,13
 349 450 349 450 349 388.5 c 128,-1,14
 349 327 349 327 302 290 c 128,-1,15
 255 253 255 253 180.5 253 c 128,-1,16
 106 253 106 253 50 297 c 1,17,18
 56 333 56 333 85 358 c 1,19,20
 134 325 134 325 174 325 c 128,-1,21
 214 325 214 325 236 343.5 c 128,-1,22
 258 362 258 362 258 393.5 c 128,-1,23
 258 425 258 425 240 444.5 c 128,-1,24
 222 464 222 464 194.5 464 c 128,-1,25
 167 464 167 464 149 455 c 1,26,27
 138 460 138 460 127.5 473.5 c 128,-1,28
 117 487 117 487 114 502 c 1,29,-1
 193 581 l 2,30,31
 211 599 211 599 232 613 c 1,32,-1
 230 616 l 1,33,34
 207 611 207 611 151 611 c 2,35,-1
 71 611 l 1,36,37
 66 625 66 625 66 647 c 128,-1,38
 66 669 66 669 72 685 c 1,39,-1
 316 685 l 1,40,41
 332 653 332 653 332 634 c 128,-1,42
 332 615 332 615 315 599 c 2,8,-1
838 206 m 1,43,-1
 837 155 l 1,44,-1
 898 155 l 1,45,46
 901 142 901 142 901 120 c 128,-1,47
 901 98 901 98 894 81 c 1,48,-1
 837 81 l 1,49,-1
 837 3 l 1,50,51
 821 -1 821 -1 796 -1 c 128,-1,52
 771 -1 771 -1 752 3 c 1,53,-1
 752 45 l 1,54,-1
 753 81 l 1,55,-1
 712 80 l 1,56,-1
 593 80 l 1,57,58
 573 112 573 112 573 130.5 c 128,-1,59
 573 149 573 149 588 179 c 1,60,-1
 705 432 l 1,61,62
 726 434 726 434 751 428.5 c 128,-1,63
 776 423 776 423 789 412 c 1,64,-1
 713 248 l 2,65,66
 681 180 681 180 662 155 c 1,67,-1
 664 153 l 1,68,69
 689 155 689 155 735 155 c 2,70,-1
 753 155 l 1,71,72
 752 163 752 163 752 179 c 2,73,-1
 752 212 l 2,74,75
 752 241 752 241 768 258 c 128,-1,76
 784 275 784 275 810 275 c 2,77,-1
 835 275 l 1,78,-1
 838 272 l 1,79,-1
 838 206 l 1,43,-1
EndSplineSet
Ligature2: "'frac' Diagonal Fractions lookup 4 subtable" three fraction four
Ligature2: "'frac' Diagonal Fractions lookup 4 subtable" three slash four
EndChar

StartChar: ordfeminine
Encoding: 170 170 96
Width: 424
Flags: HMW
HStem: 292 68<163 183.5> 476 61<174.5 203 148 206.5> 625 71<194.5 224> 640 20G
VStem: 40 87<399.5 433 399.5 453> 266 88<403 410 410 472 472 472 533 561 561 564>
LayerCount: 2
Fore
SplineSet
379 342 m 1,0,1
 377 330 377 330 366 316.5 c 128,-1,2
 355 303 355 303 342 296 c 1,3,4
 296 303 296 303 277 343 c 1,5,6
 222 292 222 292 162.5 292 c 128,-1,7
 103 292 103 292 71.5 326.5 c 128,-1,8
 40 361 40 361 40 408 c 0,9,10
 40 473 40 473 81.5 505 c 128,-1,11
 123 537 123 537 192 537 c 0,12,13
 214 537 214 537 266 533 c 1,14,-1
 266 561 l 2,15,16
 266 625 266 625 207 625 c 0,17,18
 153 625 153 625 81 597 c 1,19,20
 56 624 56 624 56 660 c 1,21,22
 141 696 141 696 212 696 c 0,23,24
 354 696 354 696 354 564 c 2,25,-1
 354 410 l 2,26,27
 354 360 354 360 379 342 c 1,0,1
179 360 m 0,28,29
 223 360 223 360 266 403 c 1,30,-1
 266 472 l 1,31,32
 220 476 220 476 192 476 c 128,-1,33
 164 476 164 476 145.5 459.5 c 128,-1,34
 127 443 127 443 127 417 c 128,-1,35
 127 391 127 391 141.5 375.5 c 128,-1,36
 156 360 156 360 179 360 c 0,28,29
EndSplineSet
EndChar

StartChar: ordmasculine
Encoding: 186 186 97
Width: 413
Flags: HMW
HStem: 292 70<183 229> 627 69<183 229 183 237>
VStem: 36 89<463.5 525.5> 287 90<463.5 525.5 463.5 530>
LayerCount: 2
Fore
SplineSet
321 655 m 1,0,1
 377 595 377 595 377 493.5 c 128,-1,2
 377 392 377 392 321 333 c 1,3,4
 277 292 277 292 206.5 292 c 128,-1,5
 136 292 136 292 92 333 c 1,6,7
 36 392 36 392 36 493.5 c 128,-1,8
 36 595 36 595 92 655 c 1,9,10
 136 696 136 696 206.5 696 c 128,-1,11
 277 696 277 696 321 655 c 1,0,1
125 495 m 0,12,13
 125 362 125 362 207 362 c 0,14,15
 287 362 287 362 287 494.5 c 128,-1,16
 287 627 287 627 207 627 c 0,17,18
 164 627 164 627 144.5 590 c 128,-1,19
 125 553 125 553 125 495 c 0,12,13
EndSplineSet
EndChar

StartChar: degree
Encoding: 176 176 98
Width: 327
Flags: HMW
HStem: 378 70<143 184 143 205.5> 601 71<143 184>
VStem: 18 79<502.5 547 502.5 567> 230 79<502.5 547>
LayerCount: 2
Fore
SplineSet
59.5 419.5 m 128,-1,1
 18 461 18 461 18 524.5 c 128,-1,2
 18 588 18 588 59.5 630 c 128,-1,3
 101 672 101 672 163.5 672 c 128,-1,4
 226 672 226 672 267.5 630 c 128,-1,5
 309 588 309 588 309 524.5 c 128,-1,6
 309 461 309 461 267.5 419.5 c 128,-1,7
 226 378 226 378 163.5 378 c 128,-1,0
 101 378 101 378 59.5 419.5 c 128,-1,1
97 525 m 128,-1,9
 97 491 97 491 115 469.5 c 128,-1,10
 133 448 133 448 163.5 448 c 128,-1,11
 194 448 194 448 212 469.5 c 128,-1,12
 230 491 230 491 230 524.5 c 128,-1,13
 230 558 230 558 212 579.5 c 128,-1,14
 194 601 194 601 163.5 601 c 128,-1,15
 133 601 133 601 115 580 c 128,-1,8
 97 559 97 559 97 525 c 128,-1,9
EndSplineSet
EndChar

StartChar: less
Encoding: 60 60 99
Width: 530
Flags: HMW
HStem: 49 487<423 423>
VStem: 48 112
LayerCount: 2
Fore
SplineSet
54 334 m 1,0,-1
 423 536 l 1,1,2
 466 510 466 510 471 455 c 1,3,-1
 234 330 l 1,4,-1
 160 296 l 1,5,-1
 160 290 l 1,6,-1
 234 256 l 1,7,-1
 471 131 l 1,8,9
 469 106 469 106 455 83.5 c 128,-1,10
 441 61 441 61 423 49 c 1,11,-1
 54 251 l 1,12,13
 41 298 41 298 54 334 c 1,0,-1
EndSplineSet
EndChar

StartChar: greater
Encoding: 62 62 100
Width: 530
Flags: HMW
HStem: 50 488<107 107>
VStem: 370 112
LayerCount: 2
Fore
SplineSet
476 252 m 1,0,-1
 107 50 l 1,1,2
 64 76 64 76 59 132 c 1,3,-1
 296 256 l 2,4,5
 314 266 314 266 370 290 c 1,6,-1
 370 297 l 1,7,8
 314 321 314 321 296 331 c 2,9,-1
 59 456 l 1,10,11
 61 481 61 481 75 503.5 c 128,-1,12
 89 526 89 526 107 538 c 1,13,-1
 476 335 l 1,14,15
 489 289 489 289 476 252 c 1,0,-1
EndSplineSet
EndChar

StartChar: plus
Encoding: 43 43 101
Width: 530
Flags: HMW
HStem: 249 89<56 170 56 170 360 474>
VStem: 218 94<78 202 78 209 386 509>
LayerCount: 2
Fore
SplineSet
219 337 m 1,0,-1
 218 386 l 1,1,-1
 218 509 l 1,2,3
 238 513 238 513 265.5 513 c 128,-1,4
 293 513 293 513 312 509 c 1,5,-1
 312 386 l 1,6,7
 311 337 l 1,8,-1
 360 338 l 1,9,-1
 474 338 l 1,10,11
 478 318 478 318 478 292 c 128,-1,12
 478 266 478 266 474 249 c 1,13,-1
 360 249 l 1,14,-1
 311 250 l 1,15,-1
 312 202 l 1,16,-1
 312 78 l 1,17,18
 293 74 293 74 265.5 74 c 128,-1,19
 238 74 238 74 218 78 c 1,20,-1
 218 202 l 1,21,-1
 219 250 l 1,22,-1
 170 249 l 1,23,-1
 56 249 l 1,24,25
 52 266 52 266 52 292.5 c 128,-1,26
 52 319 52 319 56 338 c 1,27,-1
 170 338 l 1,28,-1
 219 337 l 1,0,-1
EndSplineSet
EndChar

StartChar: plusminus
Encoding: 177 177 102
Width: 530
Flags: HMW
HStem: 0 86<67 463 67 463> 303 84<67 172 67 172 358 463>
VStem: 218 94<152 255 152 262.5 436 538>
LayerCount: 2
Fore
SplineSet
219 386 m 1,0,-1
 218 436 l 1,1,-1
 218 538 l 1,2,3
 238 542 238 542 265.5 542 c 128,-1,4
 293 542 293 542 312 538 c 1,5,-1
 312 436 l 1,6,7
 311 386 l 1,8,-1
 358 387 l 1,9,-1
 463 387 l 1,10,11
 467 367 467 367 467 344.5 c 128,-1,12
 467 322 467 322 463 303 c 1,13,-1
 358 303 l 1,14,-1
 311 304 l 1,15,-1
 312 255 l 1,16,-1
 312 152 l 1,17,18
 293 148 293 148 265.5 148 c 128,-1,19
 238 148 238 148 218 152 c 1,20,-1
 218 255 l 1,21,-1
 219 304 l 1,22,-1
 172 303 l 1,23,-1
 67 303 l 1,24,25
 63 322 63 322 63 344.5 c 128,-1,26
 63 367 63 367 67 387 c 1,27,-1
 172 387 l 1,28,-1
 219 386 l 1,0,-1
463 0 m 1,29,-1
 67 0 l 1,30,31
 63 20 63 20 63 42.5 c 128,-1,32
 63 65 63 65 67 86 c 1,33,-1
 463 86 l 1,34,35
 467 65 467 65 467 42.5 c 128,-1,36
 467 20 467 20 463 0 c 1,29,-1
EndSplineSet
EndChar

StartChar: hyphen
Encoding: 45 45 103
Width: 350
Flags: HMW
HStem: 222 89<51 299 51 299>
VStem: 51 248<222 222 222 311>
LayerCount: 2
Fore
SplineSet
299 222 m 1,0,-1
 51 222 l 1,1,2
 46 239 46 239 46 266.5 c 0,3,4
 46 294 46 294 51 311 c 1,5,-1
 299 311 l 1,6,7
 304 293 304 293 304 266 c 128,-1,8
 304 239 304 239 299 222 c 1,0,-1
EndSplineSet
EndChar

StartChar: equal
Encoding: 61 61 104
Width: 530
Flags: HMW
HStem: 154 89<56 474 56 474> 347 89<56 474 56 474>
VStem: 52 426<191.5 205 383.5 397>
LayerCount: 2
Fore
SplineSet
474 154 m 1,0,-1
 56 154 l 1,1,2
 52 173 52 173 52 198.5 c 0,3,4
 52 224 52 224 56 243 c 1,5,-1
 474 243 l 1,6,7
 478 224 478 224 478 198.5 c 0,8,9
 478 173 478 173 474 154 c 1,0,-1
474 347 m 1,10,-1
 56 347 l 1,11,12
 52 364 52 364 52 390 c 128,-1,13
 52 416 52 416 56 436 c 1,14,-1
 474 436 l 1,15,16
 478 416 478 416 478 390 c 128,-1,17
 478 364 478 364 474 347 c 1,10,-1
EndSplineSet
EndChar

StartChar: multiply
Encoding: 215 215 105
Width: 530
Flags: HMW
HStem: 100 387<136 136>
VStem: 72 386<165 165 165 422>
LayerCount: 2
Fore
SplineSet
264 230 m 1,0,-1
 136 100 l 1,1,2
 119 108 119 108 99.5 126.5 c 128,-1,3
 80 145 80 145 72 165 c 1,4,5
 171 263 171 263 178 270 c 0,6,7
 189.5 281.5 189.5 281.5 201 293 c 1,8,-1
 171 324 l 1,9,-1
 72 422 l 1,10,11
 92.0763358779 468.175572519 92.0763358779 468.175572519 136 487 c 1,12,-1
 235 388 l 1,13,14
 262 358 262 358 264 356 c 1,15,16
 272.235294118 362.588235294 272.235294118 362.588235294 282.117647059 373.294117647 c 128,-1,17
 292 384 292 384 295 387 c 2,18,-1
 393 487 l 1,19,20
 436.333333333 468.428571429 436.333333333 468.428571429 458 422 c 1,21,-1
 359 324 l 2,22,23
 354 318 354 318 342 307 c 128,-1,24
 330 296 330 296 327 293 c 1,25,26
 357 266 357 266 359 264 c 2,27,-1
 458 165 l 1,28,29
 436.846153846 116.346153846 436.846153846 116.346153846 393 101 c 1,30,-1
 295 200 l 1,31,-1
 264 230 l 1,0,-1
EndSplineSet
EndChar

StartChar: divide
Encoding: 247 247 106
Width: 530
Flags: HMW
HStem: 72 85<213 213 317 317> 250 89<56 474 56 474> 429 85<213 213 317 317>
VStem: 204 113
LayerCount: 2
Fore
SplineSet
213 429 m 1,0,1
 204 447 204 447 204 470.5 c 128,-1,2
 204 494 204 494 213 514 c 1,3,4
 234 526 234 526 266 526 c 128,-1,5
 298 526 298 526 317 514 c 1,6,7
 326 494 326 494 326 470.5 c 128,-1,8
 326 447 326 447 317 429 c 1,9,10
 300 417 300 417 265 417 c 128,-1,11
 230 417 230 417 213 429 c 1,0,1
213 72 m 1,12,13
 204 92 204 92 204 115.5 c 128,-1,14
 204 139 204 139 213 157 c 1,15,16
 234 169 234 169 266 169 c 128,-1,17
 298 169 298 169 317 157 c 1,18,19
 326 139 326 139 326 115.5 c 128,-1,20
 326 92 326 92 317 72 c 1,21,22
 300 60 300 60 266 60 c 128,-1,23
 232 60 232 60 213 72 c 1,12,13
474 250 m 1,24,-1
 56 250 l 1,25,26
 52 267 52 267 52 293 c 128,-1,27
 52 319 52 319 56 339 c 1,28,-1
 474 339 l 1,29,30
 478 319 478 319 478 293 c 128,-1,31
 478 267 478 267 474 250 c 1,24,-1
EndSplineSet
EndChar

StartChar: logicalnot
Encoding: 172 172 107
Width: 530
Flags: HMW
HStem: 255 89<51 331 51 467>
VStem: 378 95<115 209 209 216>
LayerCount: 2
Fore
SplineSet
379 256 m 1,0,-1
 331 255 l 1,1,-1
 51 255 l 1,2,3
 47 272 47 272 47 298 c 128,-1,4
 47 324 47 324 51 344 c 1,5,-1
 467 344 l 1,6,-1
 473 337 l 1,7,-1
 473 115 l 1,8,9
 454 111 454 111 427.5 111 c 128,-1,10
 401 111 401 111 378 115 c 1,11,-1
 378 209 l 1,12,-1
 379 256 l 1,0,-1
EndSplineSet
EndChar

StartChar: mu
Encoding: 956 956 108
Width: 554
Flags: HMW
HStem: -218 20 -10 90<241.5 283.5> 474 20G<78 78 180 180 371 371 474 474>
VStem: 78 102<148.5 180 180 494> 371 103<140 494>
LayerCount: 2
Fore
SplineSet
474 494 m 1,0,-1
 474 140 l 2,1,2
 474 70 474 70 502 45 c 1,3,4
 491 9 491 9 463 -7 c 1,5,6
 405 3 405 3 383 58 c 1,7,8
 334 -10 334 -10 256 -10 c 0,9,10
 208 -10 208 -10 174 18 c 1,11,-1
 174 -149 l 2,12,13
 174 -184 174 -184 164 -201 c 128,-1,14
 154 -218 154 -218 120.5 -218 c 0,15,16
 87 -218 87 -218 61 -198 c 1,17,18
 78 -168 78 -168 78 -107 c 2,19,-1
 78 494 l 1,20,21
 106 498 106 498 128 498 c 128,-1,22
 150 498 150 498 180 494 c 1,23,-1
 180 180 l 2,24,25
 180 133 180 133 204 106.5 c 128,-1,26
 228 80 228 80 268 80 c 0,27,28
 327 80 327 80 371 140 c 1,29,-1
 371 494 l 1,30,31
 399 498 399 498 421.5 498 c 0,32,33
 444 498 444 498 474 494 c 1,0,-1
EndSplineSet
EndChar

StartChar: percent
Encoding: 37 37 109
Width: 907
Flags: HMW
HStem: -20 20G<214 214 214 316> -12 68<679.5 723.5> 285 69<183 227.5> 329 69<679.5 723.5 679.5 730.5> 627 68<183 227.5 183 234>
VStem: 48 89<459.5 521.5> 274 89<459.5 521.5 459.5 526.5> 544 89<162 223.5> 771 88<162 223.5 162 229>
LayerCount: 2
Fore
SplineSet
859 193 m 128,-1,1
 859 79 859 79 810 29 c 0,2,3
 770 -12 770 -12 702 -12 c 128,-1,4
 634 -12 634 -12 593 29 c 1,5,6
 544 81 544 81 544 194 c 128,-1,7
 544 307 544 307 593 356 c 0,8,9
 634 398 634 398 701.5 398 c 128,-1,10
 769 398 769 398 810 356 c 0,11,0
 859 307 859 307 859 193 c 128,-1,1
702 329 m 128,-1,13
 633 329 633 329 633 192.5 c 128,-1,14
 633 56 633 56 702 56 c 128,-1,15
 771 56 771 56 771 192.5 c 128,-1,12
 771 329 771 329 702 329 c 128,-1,13
314 654 m 0,16,17
 363 604 363 604 363 490 c 128,-1,18
 363 376 363 376 314 327 c 0,19,20
 273 285 273 285 205.5 285 c 128,-1,21
 138 285 138 285 97 327 c 0,22,23
 48 376 48 376 48 490 c 128,-1,24
 48 604 48 604 97 654 c 0,25,26
 137 695 137 695 205.5 695 c 128,-1,27
 274 695 274 695 314 654 c 0,16,17
137 490.5 m 128,-1,29
 137 354 137 354 205.5 354 c 128,-1,30
 274 354 274 354 274 490.5 c 128,-1,31
 274 627 274 627 205.5 627 c 128,-1,28
 137 627 137 627 137 490.5 c 128,-1,29
214 0 m 1,32,-1
 591 683 l 1,33,34
 611 689 611 689 644.5 688.5 c 128,-1,35
 678 688 678 688 692 683 c 1,36,-1
 316 0 l 1,37,38
 296 -6 296 -6 262.5 -5.5 c 128,-1,39
 229 -5 229 -5 214 0 c 1,32,-1
EndSplineSet
Ligature2: "'frac' Diagonal Fractions lookup 4 subtable" zero fraction zero
Ligature2: "'frac' Diagonal Fractions lookup 4 subtable" zero slash zero
EndChar

StartChar: numbersign
Encoding: 35 35 110
Width: 645
Flags: HMW
HStem: 5 8 155 85<30 132 30 151 245 351 30 226 464 571> 412 86<77 190 77 209 302 409 77 283 521 619> 639 7
VStem: 23 602
LayerCount: 2
Fore
SplineSet
428 498 m 1,0,-1
 460 639 l 1,1,2
 477 646 477 646 506.5 646 c 128,-1,3
 536 646 536 646 553 639 c 1,4,-1
 521 498 l 1,5,-1
 619 498 l 1,6,7
 625 480 625 480 625 454.5 c 128,-1,8
 625 429 625 429 619 412 c 1,9,-1
 502 412 l 1,10,-1
 464 240 l 1,11,-1
 571 240 l 1,12,13
 578 223 578 223 578 197.5 c 128,-1,14
 578 172 578 172 571 155 c 1,15,-1
 445 155 l 1,16,-1
 413 13 l 1,17,18
 396 6 396 6 366 6 c 128,-1,19
 336 6 336 6 319 13 c 1,20,-1
 351 155 l 1,21,-1
 226 155 l 1,22,-1
 194 13 l 1,23,24
 178 6 178 6 147 6 c 128,-1,25
 116 6 116 6 100 13 c 1,26,-1
 132 155 l 1,27,-1
 30 155 l 1,28,29
 23 172 23 172 23 197.5 c 128,-1,30
 23 223 23 223 30 240 c 1,31,-1
 151 240 l 1,32,-1
 190 412 l 1,33,-1
 77 412 l 1,34,35
 71 429 71 429 71 454.5 c 128,-1,36
 71 480 71 480 77 498 c 1,37,-1
 209 498 l 1,38,-1
 241 639 l 1,39,40
 258 646 258 646 287.5 646 c 128,-1,41
 317 646 317 646 334 639 c 1,42,-1
 302 498 l 1,43,-1
 428 498 l 1,0,-1
283 412 m 1,44,-1
 245 240 l 1,45,-1
 370 240 l 1,46,-1
 409 412 l 1,47,-1
 283 412 l 1,44,-1
EndSplineSet
EndChar

StartChar: asterisk
Encoding: 42 42 111
Width: 504
Flags: HMW
HStem: 731 7
VStem: 208 88<656.5 675 656.5 675>
LayerCount: 2
Fore
SplineSet
45 547 m 1,0,1
 43 564 43 564 52 591.5 c 128,-1,2
 61 619 61 619 73 633 c 1,3,-1
 125 615 l 2,4,5
 159 603 159 603 226 562 c 1,6,7
 208 632 208 632 208 675 c 2,8,-1
 207 731 l 1,9,10
 223 738 223 738 251.5 738 c 128,-1,11
 280 738 280 738 297 731 c 1,12,-1
 296 675 l 2,13,14
 296 637 296 637 277 563 c 1,15,16
 345 603 345 603 379 615 c 1,17,-1
 432 632 l 1,18,19
 443 620 443 620 452 593 c 128,-1,20
 461 566 461 566 460 547 c 1,21,-1
 406 530 l 2,22,23
 368 518 368 518 293 514 c 1,24,25
 350 467 350 467 375 433 c 2,26,-1
 407 389 l 1,27,28
 399 374 399 374 376.5 357 c 128,-1,29
 354 340 354 340 335 336 c 1,30,-1
 303 381 l 2,31,32
 277 418 277 418 252 483 c 1,33,34
 227 417 227 417 201 382 c 1,35,-1
 169 336 l 1,36,37
 151 341 151 341 128.5 357.5 c 128,-1,38
 106 374 106 374 96 389 c 1,39,-1
 129 433 l 2,40,41
 152 464 152 464 210 514 c 1,42,43
 136 518 136 518 98 531 c 1,44,-1
 45 547 l 1,0,1
EndSplineSet
EndChar

StartChar: endash
Encoding: 8211 8211 112
Width: 531
Flags: HMW
HStem: 223 84<65 466 65 466>
VStem: 61 409<257.5 271>
LayerCount: 2
Fore
SplineSet
466 223 m 1,0,-1
 65 223 l 1,1,2
 61 240 61 240 61 264 c 128,-1,3
 61 288 61 288 65 307 c 1,4,-1
 466 307 l 1,5,6
 470 288 470 288 470 264 c 128,-1,7
 470 240 470 240 466 223 c 1,0,-1
EndSplineSet
EndChar

StartChar: emdash
Encoding: 8212 8212 113
Width: 799
Flags: HMW
HStem: 223 84<79 719 79 719>
VStem: 75 649<257.5 271>
LayerCount: 2
Fore
SplineSet
719 223 m 1,0,-1
 79 223 l 1,1,2
 75 240 75 240 75 264 c 128,-1,3
 75 288 75 288 79 307 c 1,4,-1
 719 307 l 1,5,6
 724 289 724 289 724 264 c 128,-1,7
 724 239 724 239 719 223 c 1,0,-1
EndSplineSet
EndChar

StartChar: slash
Encoding: 47 47 114
Width: 422
Flags: HMW
HStem: -111 872<97 323>
VStem: 7 406
LayerCount: 2
Fore
SplineSet
7 -77 m 1,0,-1
 323 761 l 1,1,2
 373 758 373 758 413 728 c 1,3,-1
 97 -111 l 1,4,5
 47 -108 47 -108 7 -77 c 1,0,-1
EndSplineSet
EndChar

StartChar: backslash
Encoding: 92 92 115
Width: 422
Flags: HMW
HStem: -111 872<99 326>
VStem: 10 405
LayerCount: 2
Fore
SplineSet
326 -111 m 1,0,-1
 10 728 l 1,1,2
 49 758 49 758 99 761 c 1,3,-1
 415 -77 l 1,4,5
 377 -106 377 -106 326 -111 c 1,0,-1
EndSplineSet
EndChar

StartChar: bar
Encoding: 124 124 116
Width: 255
Flags: HMW
HStem: -145 924<121.5 135.5>
VStem: 79 97<-141 774 -141 774>
LayerCount: 2
Fore
SplineSet
79 -141 m 1,0,-1
 79 774 l 1,1,2
 98 779 98 779 127.5 779 c 0,3,4
 157 779 157 779 176 774 c 1,5,-1
 176 -141 l 1,6,7
 156 -145 156 -145 127.5 -145 c 0,8,9
 99 -145 99 -145 79 -141 c 1,0,-1
EndSplineSet
EndChar

StartChar: brokenbar
Encoding: 166 166 117
Width: 249
Flags: HMW
HStem: -145 924<118.5 132.5>
VStem: 77 96<-141 246 -141 246 387 774>
LayerCount: 2
Fore
SplineSet
77 -141 m 1,0,-1
 77 246 l 1,1,2
 94 251 94 251 123.5 251 c 0,3,4
 153 251 153 251 173 246 c 1,5,-1
 173 -141 l 1,6,7
 152 -145 152 -145 124 -145 c 0,8,9
 96 -145 96 -145 77 -141 c 1,0,-1
77 387 m 1,10,-1
 77 774 l 1,11,12
 94 779 94 779 123.5 779 c 0,13,14
 153 779 153 779 173 774 c 1,15,-1
 173 387 l 1,16,17
 152 383 152 383 124 383 c 0,18,19
 96 383 96 383 77 387 c 1,10,-1
EndSplineSet
EndChar

StartChar: paragraph
Encoding: 182 182 118
Width: 671
Flags: HMW
HStem: -156 82<176 207 175.5 229> 592 91<596.5 604 604 643>
VStem: 287 105<60 78 78 251 251 251> 457 106<-133 593 -133 677 -133 677>
LayerCount: 2
Fore
SplineSet
287 60 m 2,0,-1
 287 251 l 1,1,-1
 268 251 l 2,2,3
 167 251 167 251 104.5 308 c 128,-1,4
 42 365 42 365 42 472 c 0,5,6
 42 579 42 579 105 633.5 c 128,-1,7
 168 688 168 688 272 688 c 0,8,9
 298 688 298 688 386 684 c 1,10,-1
 392 678 l 1,11,-1
 392 78 l 2,12,13
 392 13 392 13 383 -29 c 128,-1,14
 374 -71 374 -71 347 -101 c 0,15,16
 298 -156 298 -156 200 -156 c 0,17,18
 131 -156 131 -156 70 -132 c 1,19,20
 70 -85 70 -85 95 -53 c 1,21,22
 152 -74 152 -74 197 -74 c 0,23,24
 242 -74 242 -74 264.5 -45 c 0,25,26
 287 -16 287 -16 287 60 c 2,0,-1
457 -133 m 1,27,-1
 457 677 l 1,28,-1
 463 683 l 1,29,-1
 643 683 l 1,30,31
 648 667 648 667 648 637 c 128,-1,32
 648 607 648 607 643 592 c 1,33,-1
 604 592 l 2,34,35
 576 592 576 592 563 593 c 1,36,-1
 563 -133 l 1,37,38
 540 -137 540 -137 509 -137 c 0,39,40
 478 -137 478 -137 457 -133 c 1,27,-1
EndSplineSet
EndChar

StartChar: braceleft
Encoding: 123 123 119
Width: 346
Flags: HMW
HStem: -169 988<318 318>
VStem: 38 108 124 105<3 4 4 172 477 479 479 646>
LayerCount: 2
Fore
SplineSet
42 360 m 1,0,1
 78 371 78 371 101 402.5 c 128,-1,2
 124 434 124 434 124 477 c 2,3,-1
 124 647 l 2,4,5
 124 716 124 716 163 758 c 128,-1,6
 202 800 202 800 266 810 c 1,7,-1
 318 819 l 1,8,9
 329 807 329 807 334.5 785 c 128,-1,10
 340 763 340 763 336 748 c 1,11,-1
 287 732 l 2,12,13
 229 714 229 714 229 646 c 2,14,-1
 229 479 l 2,15,16
 229 431 229 431 206.5 389 c 128,-1,17
 184 347 184 347 146 329 c 1,18,-1
 146 321 l 1,19,20
 184 304 184 304 206.5 262 c 128,-1,21
 229 220 229 220 229 172 c 2,22,-1
 229 4 l 2,23,24
 229 -63 229 -63 287 -82 c 1,25,-1
 336 -97 l 1,26,27
 340 -113 340 -113 334.5 -135 c 128,-1,28
 329 -157 329 -157 318 -169 c 1,29,-1
 266 -160 l 2,30,31
 201 -149 201 -149 162.5 -107.5 c 128,-1,32
 124 -66 124 -66 124 3 c 2,33,-1
 124 174 l 2,34,35
 124 217 124 217 101 248.5 c 128,-1,36
 78 280 78 280 42 291 c 1,37,38
 38 304 38 304 38 325.5 c 128,-1,39
 38 347 38 347 42 360 c 1,0,1
EndSplineSet
EndChar

StartChar: braceright
Encoding: 125 125 120
Width: 346
Flags: HMW
HStem: -169 988<29 29>
VStem: 117 105<4 172 172 174 479 646 646 647>
LayerCount: 2
Fore
SplineSet
304 360 m 1,0,1
 309 347 309 347 309 325.5 c 128,-1,2
 309 304 309 304 304 291 c 1,3,4
 268 280 268 280 245 248 c 128,-1,5
 222 216 222 216 222 174 c 2,6,-1
 222 3 l 2,7,8
 222 -66 222 -66 183.5 -107.5 c 128,-1,9
 145 -149 145 -149 80 -160 c 2,10,-1
 29 -169 l 1,11,12
 18 -157 18 -157 12 -134.5 c 128,-1,13
 6 -112 6 -112 10 -97 c 1,14,-1
 60 -82 l 1,15,16
 117 -63 117 -63 117 4 c 2,17,-1
 117 172 l 2,18,19
 117 220 117 220 140 262 c 128,-1,20
 163 304 163 304 200 321 c 1,21,-1
 200 329 l 1,22,23
 163 347 163 347 140 389 c 128,-1,24
 117 431 117 431 117 479 c 2,25,-1
 117 646 l 2,26,27
 117 715 117 715 60 732 c 1,28,-1
 10 748 l 1,29,30
 6 763 6 763 12 785 c 128,-1,31
 18 807 18 807 29 819 c 1,32,-1
 80 810 l 1,33,34
 144 800 144 800 183 758 c 128,-1,35
 222 716 222 716 222 647 c 2,36,-1
 222 477 l 2,37,38
 222 434 222 434 245 402.5 c 128,-1,39
 268 371 268 371 304 360 c 1,0,1
EndSplineSet
EndChar

StartChar: parenleft
Encoding: 40 40 121
Width: 332
Flags: HMW
HStem: -180 1009<254 254>
VStem: 62 112<247 402.5 247 412.5>
LayerCount: 2
Fore
SplineSet
316 773 m 1,0,1
 174 588 174 588 174 324.5 c 128,-1,2
 174 61 174 61 316 -124 c 1,3,4
 298 -166 298 -166 254 -180 c 1,5,6
 164 -91 164 -91 113 48.5 c 128,-1,7
 62 188 62 188 62 325 c 128,-1,8
 62 462 62 462 113 601 c 128,-1,9
 164 740 164 740 254 829 c 1,10,11
 298 815 298 815 316 773 c 1,0,1
EndSplineSet
EndChar

StartChar: parenright
Encoding: 41 41 122
Width: 332
Flags: HMW
HStem: -180 1009<78 78>
VStem: 158 111<247 402.5>
LayerCount: 2
Fore
SplineSet
16 -124 m 1,0,1
 158 63 158 63 158 324.5 c 128,-1,2
 158 586 158 586 16 773 c 1,3,4
 34 815 34 815 78 829 c 1,5,6
 168 741 168 741 218.5 601.5 c 128,-1,7
 269 462 269 462 269 324.5 c 128,-1,8
 269 187 269 187 218.5 47.5 c 128,-1,9
 168 -92 168 -92 78 -180 c 1,10,11
 34 -166 34 -166 16 -124 c 1,0,1
EndSplineSet
EndChar

StartChar: bracketleft
Encoding: 91 91 123
Width: 344
Flags: HMW
HStem: -145 80 731 80
VStem: 99 104<-64 730 -64 809 -64 809>
LayerCount: 2
Fore
SplineSet
309 -142 m 1,0,-1
 106 -149 l 1,1,-1
 99 -143 l 1,2,-1
 99 809 l 1,3,-1
 106 815 l 1,4,-1
 309 808 l 1,5,6
 313 796 313 796 313 778 c 0,7,8
 313 760 313 760 305 733 c 1,9,-1
 203 730 l 1,10,-1
 203 -64 l 1,11,-1
 305 -67 l 1,12,13
 313 -94 313 -94 313 -112 c 0,14,15
 313 -130 313 -130 309 -142 c 1,0,-1
EndSplineSet
EndChar

StartChar: bracketright
Encoding: 93 93 124
Width: 344
Flags: HMW
HStem: -145 80 731 80
VStem: 141 103<-64 730 730 730>
LayerCount: 2
Fore
SplineSet
237 -149 m 1,0,-1
 35 -142 l 1,1,2
 31 -130 31 -130 31 -112 c 0,3,4
 31 -94 31 -94 39 -67 c 1,5,-1
 141 -64 l 1,6,-1
 141 730 l 1,7,-1
 39 733 l 1,8,9
 31 760 31 760 31 778 c 0,10,11
 31 796 31 796 35 808 c 1,12,-1
 237 815 l 1,13,-1
 244 809 l 1,14,-1
 244 -143 l 1,15,-1
 237 -149 l 1,0,-1
EndSplineSet
EndChar

StartChar: currency
Encoding: 164 164 125
Width: 575
Flags: HMW
HStem: 120 78<264.5 309.5> 471 79<264 309.5 264 324>
VStem: 68 105<311 357> 402 104<311 357 311 371>
LayerCount: 2
Fore
SplineSet
103 213 m 1,0,1
 68 265 68 265 68 333.5 c 128,-1,2
 68 402 68 402 102 455 c 1,3,-1
 32 532 l 1,4,5
 50 565 50 565 88 589 c 1,6,-1
 166 517 l 1,7,8
 219 550 219 550 286.5 550 c 128,-1,9
 354 550 354 550 407 517 c 1,10,-1
 486 590 l 1,11,12
 521 571 521 571 543 534 c 1,13,-1
 471 456 l 1,14,15
 506 402 506 402 506 334.5 c 128,-1,16
 506 267 506 267 471 213 c 1,17,-1
 542 136 l 1,18,19
 524 103 524 103 486 79 c 1,20,-1
 406 152 l 1,21,22
 356 120 356 120 287.5 120 c 128,-1,23
 219 120 219 120 167 152 c 1,24,-1
 88 80 l 1,25,26
 52 101 52 101 32 136 c 1,27,-1
 103 213 l 1,0,1
203.5 431.5 m 128,-1,29
 173 392 173 392 173 334.5 c 128,-1,30
 173 277 173 277 203.5 237.5 c 128,-1,31
 234 198 234 198 287 198 c 128,-1,32
 340 198 340 198 371 237.5 c 128,-1,33
 402 277 402 277 402 334.5 c 128,-1,34
 402 392 402 392 371 431.5 c 128,-1,35
 340 471 340 471 287 471 c 128,-1,28
 234 471 234 471 203.5 431.5 c 128,-1,29
EndSplineSet
Substitution2: "'c2sc' Capitals to Small Capitals lookup 3 subtable" currency.smcp
Substitution2: "'aalt' Access All Alternates lookup 0 subtable" currency.smcp
EndChar

StartChar: dollar
Encoding: 36 36 126
Width: 499
Flags: HMW
HStem: -39 161<200 282 219.5 283> 522 166<204 273>
VStem: 56 106<440.5 477.5 440.5 489.5> 200 83<-39 37 -39 39 -39 39> 204 83<608 688 608 688 608 688> 352 108<167 206.5>
LayerCount: 2
Fore
SplineSet
33 98 m 1,0,1
 34 119 34 119 46 143.5 c 128,-1,2
 58 168 58 168 74 178 c 1,3,4
 175 122 175 122 255 122 c 0,5,6
 297 122 297 122 324.5 139.5 c 128,-1,7
 352 157 352 157 352 189 c 0,8,9
 352 242 352 242 279 268 c 2,10,-1
 179 304 l 1,11,12
 56 350 56 350 56 450 c 0,13,14
 56 510 56 510 96 552.5 c 128,-1,15
 136 595 136 595 204 606 c 1,16,-1
 204 688 l 1,17,18
 217 692 217 692 244.5 692 c 0,19,20
 272 692 272 692 287 688 c 1,21,-1
 287 608 l 1,22,23
 367 600 367 600 443 565 c 1,24,25
 443 514 443 514 405 483 c 1,26,27
 320 522 320 522 250 522 c 0,28,29
 210 522 210 522 186 504.5 c 128,-1,30
 162 487 162 487 162 460.5 c 0,31,32
 162 434 162 434 178.5 420 c 128,-1,33
 195 406 195 406 231 394 c 1,34,-1
 328 358 l 2,35,36
 388 336 388 336 424 296 c 128,-1,37
 460 256 460 256 460 193.5 c 0,38,39
 460 131 460 131 412.5 87.5 c 128,-1,40
 365 44 365 44 283 37 c 1,41,-1
 283 -39 l 1,42,43
 266 -42 266 -42 240.5 -42 c 0,44,45
 215 -42 215 -42 200 -39 c 1,46,-1
 200 39 l 1,47,48
 99 53 99 53 33 98 c 1,0,1
EndSplineSet
Substitution2: "'c2sc' Capitals to Small Capitals lookup 3 subtable" dollar.smcp
Substitution2: "'aalt' Access All Alternates lookup 0 subtable" dollar.smcp
EndChar

StartChar: cent
Encoding: 162 162 127
Width: 468
Flags: HMW
HStem: -31 182<205 284.5 227 288> 506 175<208 283>
VStem: 42 108<266.5 384 263 403> 205 83<-31 68 -31 68> 335 95
LayerCount: 2
Fore
SplineSet
205 -31 m 1,0,-1
 205 68 l 1,1,2
 120 83 120 83 81 155 c 128,-1,3
 42 227 42 227 42 331.5 c 0,4,5
 42 436 42 436 88.5 500.5 c 128,-1,6
 135 565 135 565 208 581 c 1,7,-1
 208 681 l 1,8,9
 223 684 223 684 248.5 684 c 0,10,11
 274 684 274 684 291 681 c 1,12,-1
 291 583 l 1,13,14
 357 572 357 572 393.5 529 c 128,-1,15
 430 486 430 486 430 439 c 0,16,17
 430 378 430 378 375 378 c 0,18,19
 357 378 357 378 335 383 c 1,20,21
 338 434 338 434 317.5 470 c 128,-1,22
 297 506 297 506 247 506 c 0,23,24
 150 506 150 506 150 328.5 c 0,25,26
 150 151 150 151 262 151 c 0,27,28
 321 151 321 151 381 202 c 1,29,30
 415 181 415 181 427 144 c 1,31,32
 373 83 373 83 288 68 c 1,33,-1
 288 -31 l 1,34,35
 272 -34 272 -34 246 -34 c 128,-1,36
 220 -34 220 -34 205 -31 c 1,0,-1
EndSplineSet
Substitution2: "'c2sc' Capitals to Small Capitals lookup 3 subtable" cent.smcp
Substitution2: "'aalt' Access All Alternates lookup 0 subtable" cent.smcp
EndChar

StartChar: sterling
Encoding: 163 163 128
Width: 529
Flags: HMW
HStem: -1 89<308 421> 267 79<58 67 58 134 58 67 370.5 399> 574 87<254 304>
VStem: 76 104<457.5 508 454 524> 134 96<240.5 266 266 267>
LayerCount: 2
Fore
SplineSet
215 345 m 1,0,-1
 399 346 l 1,1,2
 411 307 411 307 399 267 c 1,3,4
 286 267 286 267 230 268 c 1,5,-1
 230 266 l 2,6,7
 230 177 230 177 165 86 c 1,8,-1
 168 83 l 1,9,10
 260 88 260 88 308 88 c 2,11,-1
 492 88 l 1,12,13
 492 64 492 64 490 50 c 0,14,15
 481 -1 481 -1 421 -1 c 2,16,-1
 68 -1 l 1,17,18
 55 50 55 50 55 71 c 128,-1,19
 55 92 55 92 69 111 c 1,20,-1
 85 136 l 1,21,22
 134 207 134 207 134 267 c 1,23,-1
 58 267 l 1,24,25
 46 305 46 305 58 346 c 1,26,27
 67 346 67 346 86.5 345.5 c 128,-1,28
 106 345 106 345 116 345 c 1,29,30
 88 410.333333333 88 410.333333333 82 437.666666667 c 128,-1,31
 76 465 76 465 76 483 c 0,32,33
 76 552 76 552 128 606.5 c 128,-1,34
 180 661 180 661 275 661 c 0,35,36
 393 661 393 661 474 587 c 1,37,38
 472 566 472 566 456 546 c 128,-1,39
 440 526 440 526 420 519 c 1,40,41
 354 574 354 574 283 574 c 0,42,43
 238 574 238 574 209 548 c 128,-1,44
 180 522 180 522 180 477 c 0,45,46
 180 440.652173913 180 440.652173913 196 396.826086957 c 128,-1,47
 212 353 212 353 215 345 c 1,0,-1
EndSplineSet
Substitution2: "'c2sc' Capitals to Small Capitals lookup 3 subtable" sterling.smcp
Substitution2: "'aalt' Access All Alternates lookup 0 subtable" sterling.smcp
EndChar

StartChar: Euro
Encoding: 8364 8364 129
Width: 566
Flags: HMW
HStem: -13 88<308 368> 212 71<25 97 25 104 25 97 210 415 210 210> 362 71<25 97 25 104 209 415> 573 88<307.5 368 259 368.5>
VStem: 97 104<283 323 316 362>
LayerCount: 2
Fore
SplineSet
496 515 m 1,0,1
 420 573 420 573 345 573 c 0,2,3
 235 573 235 573 209 433 c 1,4,-1
 415 433 l 1,5,6
 419 414 419 414 419 396.5 c 0,7,8
 419 379 419 379 415 362 c 1,9,-1
 201 362 l 1,10,-1
 201 323 l 2,11,12
 201 296 201 296 202 283 c 1,13,-1
 415 283 l 1,14,15
 419 264 419 264 419 246.5 c 0,16,17
 419 229 419 229 415 212 c 1,18,-1
 210 212 l 1,19,20
 236 75 236 75 345 75 c 0,21,22
 420 75 420 75 496 133 c 1,23,24
 533 110 533 110 544 68 c 1,25,26
 447 -13 447 -13 331 -13 c 0,27,28
 141 -13 141 -13 104 212 c 1,29,-1
 25 212 l 1,30,31
 21 229 21 229 21 246.5 c 0,32,33
 21 264 21 264 25 283 c 1,34,-1
 97 283 l 1,35,36
 96 296 96 296 96 322.5 c 0,37,38
 96 349 96 349 97 362 c 1,39,-1
 25 362 l 1,40,41
 21 379 21 379 21 396.5 c 0,42,43
 21 414 21 414 25 433 c 1,44,-1
 104 433 l 1,45,46
 140 661 140 661 331 661 c 0,47,48
 446 661 446 661 544 580 c 1,49,50
 539 562 539 562 526 543.5 c 128,-1,51
 513 525 513 525 496 515 c 1,0,1
EndSplineSet
Substitution2: "'c2sc' Capitals to Small Capitals lookup 3 subtable" Euro.smcp
Substitution2: "'aalt' Access All Alternates lookup 0 subtable" Euro.smcp
EndChar

StartChar: yen
Encoding: 165 165 130
Width: 516
Flags: HMW
HStem: 171 71<55 201 55 206 55 201 313 459> 321 71<55 134 55 166 55 134 380 459> 638 20
VStem: 206 102<0 171 0 171>
LayerCount: 2
Fore
SplineSet
459 171 m 1,0,-1
 308 171 l 1,1,-1
 308 0 l 1,2,3
 285 -4 285 -4 255.5 -4 c 0,4,5
 226 -4 226 -4 206 0 c 1,6,-1
 206 171 l 1,7,-1
 55 171 l 1,8,9
 50 193 50 193 50 206 c 128,-1,10
 50 219 50 219 55 242 c 1,11,-1
 201 242 l 1,12,-1
 166 321 l 1,13,-1
 55 321 l 1,14,15
 50 343 50 343 50 356 c 128,-1,16
 50 369 50 369 55 392 c 1,17,-1
 134 392 l 1,18,-1
 24 638 l 1,19,20
 60 658 60 658 93 658 c 0,21,22
 126 658 126 658 143 618 c 2,23,-1
 217 439 l 1,24,25
 233 403 233 403 258 323 c 1,26,-1
 264 323 l 1,27,28
 288 399 288 399 307 440 c 1,29,-1
 395 650 l 1,30,31
 418 656 418 656 440 656 c 0,32,33
 462 656 462 656 489 649 c 1,34,-1
 493 643 l 1,35,-1
 380 392 l 1,36,-1
 459 392 l 1,37,38
 463 373 463 373 463 355.5 c 0,39,40
 463 338 463 338 459 321 c 1,41,-1
 348 321 l 1,42,-1
 313 242 l 1,43,-1
 459 242 l 1,44,45
 463 223 463 223 463 205.5 c 0,46,47
 463 188 463 188 459 171 c 1,0,-1
EndSplineSet
Substitution2: "'c2sc' Capitals to Small Capitals lookup 3 subtable" yen.smcp
Substitution2: "'aalt' Access All Alternates lookup 0 subtable" yen.smcp
EndChar

StartChar: at
Encoding: 64 64 131
Width: 949
Flags: HMW
HStem: -188 80<363.5 486.5> 5 81<436 469.5> 9 79<691 730.5 691 754.5> 406 75<452.5 504> 600 77<389 586>
VStem: 50 104<116.5 332.5 116.5 355> 284 100<186 277.5 186 297> 564 98<145 157 132 376> 805 102<216.5 386>
LayerCount: 2
Fore
SplineSet
663 412 m 1,0,-1
 662 157 l 2,1,2
 662 88 662 88 705 88 c 0,3,4
 748 88 748 88 776.5 137.5 c 128,-1,5
 805 187 805 187 805 293 c 0,6,7
 805 432 805 432 719.5 516 c 128,-1,8
 634 600 634 600 487 600 c 0,9,10
 340 600 340 600 247 494 c 128,-1,11
 154 388 154 388 154 226.5 c 0,12,13
 154 65 154 65 235 -21.5 c 128,-1,14
 316 -108 316 -108 453 -108 c 0,15,16
 566 -108 566 -108 656 -71 c 1,17,18
 683 -100 683 -100 683 -144 c 1,19,20
 569 -188 569 -188 446 -188 c 0,21,22
 268 -188 268 -188 159 -80.5 c 128,-1,23
 50 27 50 27 50 224 c 0,24,25
 50 421 50 421 174 549 c 128,-1,26
 298 677 298 677 487 677 c 0,27,28
 676 677 676 677 791.5 571.5 c 128,-1,29
 907 466 907 466 907 290 c 0,30,31
 907 158 907 158 846.5 83.5 c 128,-1,32
 786 9 786 9 703 9 c 128,-1,33
 620 9 620 9 582 71 c 1,34,35
 520 5 520 5 444.5 5 c 0,36,37
 369 5 369 5 326.5 65 c 128,-1,38
 284 125 284 125 284 231 c 0,39,40
 284 337 284 337 338 409 c 128,-1,41
 392 481 392 481 491 481 c 0,42,43
 590 481 590 481 663 412 c 1,0,-1
465 86 m 0,44,45
 490 86 490 86 517.5 103 c 128,-1,46
 545 120 545 120 564 145 c 1,47,-1
 564 376 l 1,48,49
 534 406 534 406 485.5 406 c 0,50,51
 437 406 437 406 410.5 356 c 128,-1,52
 384 306 384 306 384 229 c 0,53,54
 384 86 384 86 465 86 c 0,44,45
EndSplineSet
EndChar

StartChar: copyright
Encoding: 169 169 132
Width: 802
Flags: HMW
HStem: -19 73<321.5 480.5 321.5 502.5> 143 69<383 427> 474 67<374.5 429> 629 73<321.5 480.5>
VStem: 40 87<262 420 262 443> 228 89<299.5 384.5 299.5 411> 676 86<262 420>
LayerCount: 2
Fore
SplineSet
40 341 m 128,-1,1
 40 494 40 494 144 598 c 128,-1,2
 248 702 248 702 400.5 702 c 0,3,4
 553 702 553 702 657.5 598 c 128,-1,5
 762 494 762 494 762 341 c 128,-1,6
 762 188 762 188 658 84.5 c 128,-1,7
 554 -19 554 -19 401 -19 c 128,-1,8
 248 -19 248 -19 144 84.5 c 128,-1,0
 40 188 40 188 40 341 c 128,-1,1
127 341 m 128,-1,10
 127 221 127 221 205 137.5 c 128,-1,11
 283 54 283 54 401 54 c 128,-1,12
 519 54 519 54 597.5 137.5 c 128,-1,13
 676 221 676 221 676 341 c 128,-1,14
 676 461 676 461 597.5 545 c 128,-1,15
 519 629 519 629 401 629 c 128,-1,16
 283 629 283 629 205 545 c 128,-1,9
 127 461 127 461 127 341 c 128,-1,10
472 380 m 1,17,18
 475 418 475 418 457.5 446 c 128,-1,19
 440 474 440 474 400.5 474 c 0,20,21
 361 474 361 474 339 440 c 128,-1,22
 317 406 317 406 317 342.5 c 0,23,24
 317 279 317 279 342.5 245.5 c 128,-1,25
 368 212 368 212 413.5 212 c 0,26,27
 459 212 459 212 511 253 c 1,28,29
 538 239 538 239 548 203 c 1,30,31
 522 177 522 177 481 160 c 128,-1,32
 440 143 440 143 400 143 c 0,33,34
 316 143 316 143 272 198.5 c 128,-1,35
 228 254 228 254 228 346.5 c 0,36,37
 228 439 228 439 280 490 c 128,-1,38
 332 541 332 541 402 541 c 0,39,40
 472 541 472 541 512 503.5 c 128,-1,41
 552 466 552 466 552 422 c 0,42,43
 552 375 552 375 506 375 c 0,44,45
 487 375 487 375 472 380 c 1,17,18
EndSplineSet
EndChar

StartChar: registered
Encoding: 174 174 133
Width: 593
Flags: HMW
HStem: 219 63<241 351.5 241 369.5> 451 48<260 309 260 309> 564 47<260 335 287 298> 681 62<241 351.5>
VStem: 34 69<426 536 426 554> 199 61<359 451 359 498 498 564> 335 63<523 540.5> 490 68<426 536>
LayerCount: 2
Fore
SplineSet
34 481 m 128,-1,1
 34 591 34 591 110 667 c 128,-1,2
 186 743 186 743 296 743 c 128,-1,3
 406 743 406 743 482 667 c 128,-1,4
 558 591 558 591 558 481 c 128,-1,5
 558 371 558 371 482 295 c 128,-1,6
 406 219 406 219 296 219 c 128,-1,7
 186 219 186 219 110 295 c 128,-1,0
 34 371 34 371 34 481 c 128,-1,1
103 481 m 128,-1,9
 103 398 103 398 158.5 340 c 128,-1,10
 214 282 214 282 296.5 282 c 0,11,12
 379 282 379 282 434.5 340 c 128,-1,13
 490 398 490 398 490 481 c 128,-1,14
 490 564 490 564 434.5 622.5 c 128,-1,15
 379 681 379 681 296.5 681 c 0,16,17
 214 681 214 681 158.5 622.5 c 128,-1,8
 103 564 103 564 103 481 c 128,-1,9
398 536 m 0,18,19
 398 486 398 486 348 470 c 1,20,21
 364 464 364 464 381 431 c 2,22,-1
 394 405 l 2,23,24
 405 384 405 384 416 377 c 1,25,26
 402 354 402 354 376.5 354 c 0,27,28
 351 354 351 354 337 385 c 1,29,-1
 312 431 l 2,30,31
 302 451 302 451 282 451 c 2,32,-1
 260 451 l 1,33,-1
 260 359 l 1,34,35
 230 350 230 350 199 359 c 1,36,-1
 199 606 l 1,37,-1
 202 609 l 1,38,39
 266 611 266 611 308 611 c 0,40,41
 350 611 350 611 374 590.5 c 128,-1,42
 398 570 398 570 398 536 c 0,18,19
260 564 m 1,43,-1
 260 498 l 1,44,45
 273 499 273 499 295 499 c 0,46,47
 335 499 335 499 335 531.5 c 0,48,49
 335 564 335 564 298 564 c 2,50,-1
 260 564 l 1,43,-1
EndSplineSet
EndChar

StartChar: asciicircum
Encoding: 94 94 134
Width: 530
Flags: HMW
HStem: 566 82<262 268 262 262> 566 87
VStem: 44 442<306 306>
LayerCount: 2
Fore
SplineSet
321 648 m 1,0,-1
 486 306 l 1,1,2
 468 301 468 301 436.5 301 c 128,-1,3
 405 301 405 301 384 306 c 1,4,-1
 302 482 l 1,5,6
 291 508 291 508 268 566 c 1,7,-1
 262 566 l 1,8,9
 239 508 239 508 228 482 c 1,10,-1
 146 306 l 1,11,12
 125 301 125 301 93.5 301 c 128,-1,13
 62 301 62 301 44 306 c 1,14,-1
 209 648 l 1,15,16
 229 653 229 653 265 653 c 128,-1,17
 301 653 301 653 321 648 c 1,0,-1
EndSplineSet
EndChar

StartChar: underscore
Encoding: 95 95 135
Width: 530
Flags: HMW
HStem: -155 81<0 530 0 530>
VStem: -5 539<-121.5 -109>
LayerCount: 2
Fore
SplineSet
530 -155 m 1,0,-1
 0 -155 l 1,1,2
 -5 -140 -5 -140 -5 -115 c 128,-1,3
 -5 -90 -5 -90 0 -74 c 1,4,-1
 530 -74 l 1,5,6
 534 -91 534 -91 534 -115 c 128,-1,7
 534 -139 534 -139 530 -155 c 1,0,-1
EndSplineSet
EndChar

StartChar: section
Encoding: 167 167 136
Width: 485
Flags: HMW
HStem: -108 79<207 258.5 207 286.5> -13 20G 617 79<227 271> 641 20G
VStem: 32 102<277 315.5> 69 104<543 576 543 593> 314 104<12 45> 352 103<272 311.5>
LayerCount: 2
Fore
SplineSet
455 304 m 0,0,1
 455 214 455 214 349 156 c 1,2,3
 418 108 418 108 418 41 c 0,4,5
 418 -26 418 -26 366 -67 c 128,-1,6
 314 -108 314 -108 224 -108 c 0,7,8
 134 -108 134 -108 66 -66 c 1,9,10
 65 -47 65 -47 75.5 -25 c 128,-1,11
 86 -3 86 -3 99 7 c 1,12,13
 173 -29 173 -29 234 -29 c 0,14,15
 271 -29 271 -29 292.5 -13 c 128,-1,16
 314 3 314 3 314 30 c 0,17,18
 314 70 314 70 251 95 c 2,19,-1
 193 118 l 2,20,21
 117 148 117 148 74.5 185.5 c 128,-1,22
 32 223 32 223 32 284 c 0,23,24
 32 329 32 329 61 367.5 c 128,-1,25
 90 406 90 406 138 432 c 1,26,27
 69 477 69 477 69 545.5 c 0,28,29
 69 614 69 614 120 655 c 128,-1,30
 171 696 171 696 249.5 696 c 0,31,32
 328 696 328 696 404 661 c 1,33,34
 405 641 405 641 396 619 c 128,-1,35
 387 597 387 597 374 586 c 1,36,37
 302 617 302 617 259 617 c 0,38,39
 216 617 216 617 194.5 601 c 128,-1,40
 173 585 173 585 173 558 c 0,41,42
 173 519 173 519 236 494 c 2,43,-1
 294 471 l 2,44,45
 370 440 370 440 412.5 402.5 c 128,-1,46
 455 365 455 365 455 304 c 0,0,1
249 382 m 2,47,-1
 210 397 l 1,48,49
 134 358 134 358 134 300 c 0,50,51
 134 268 134 268 161 247 c 128,-1,52
 188 226 188 226 238 207 c 2,53,-1
 276 192 l 1,54,55
 352 231 352 231 352 288 c 0,56,57
 352 320 352 320 325.5 341 c 128,-1,58
 299 362 299 362 249 382 c 2,47,-1
EndSplineSet
EndChar

StartChar: acute
Encoding: 180 180 137
Width: 398
Flags: HMW
HStem: 538 201<169 267>
VStem: 123 217<580 671>
LayerCount: 2
Fore
SplineSet
123 580 m 1,0,-1
 267 739 l 1,1,2
 290 731 290 731 311 712 c 128,-1,3
 332 693 332 693 340 671 c 1,4,-1
 169 538 l 1,5,6
 155 542 155 542 142 554 c 128,-1,7
 129 566 129 566 123 580 c 1,0,-1
EndSplineSet
EndChar

StartChar: grave
Encoding: 96 96 138
Width: 398
Flags: HMW
HStem: 538 201<136 235>
VStem: 64 216<580 671>
LayerCount: 2
Fore
SplineSet
136 739 m 1,0,-1
 280 580 l 1,1,2
 266 547 266 547 235 538 c 1,3,-1
 64 671 l 1,4,5
 72 693 72 693 92.5 712 c 128,-1,6
 113 731 113 731 136 739 c 1,0,-1
EndSplineSet
EndChar

StartChar: tilde
Encoding: 732 732 139
Width: 398
Flags: HMW
HStem: 556 85<270 282 270 287.5> 607 86<116 128.5>
VStem: 22 354<600 649>
LayerCount: 2
Fore
SplineSet
210 571 m 2,0,-1
 155 598 l 1,1,2
 139 607 139 607 120.5 607 c 0,3,4
 102 607 102 607 84 582 c 1,5,-1
 73 568 l 1,6,7
 58 568 58 568 43 577 c 128,-1,8
 28 586 28 586 22 600 c 1,9,-1
 31 620 l 2,10,11
 64 693 64 693 131 693 c 0,12,13
 158 693 158 693 188 678 c 2,14,-1
 243 650 l 2,15,16
 259 641 259 641 276.5 641 c 0,17,18
 294 641 294 641 314 667 c 2,19,-1
 325 681 l 1,20,21
 340 681 340 681 355 671.5 c 128,-1,22
 370 662 370 662 376 649 c 1,23,-1
 367 629 l 2,24,25
 334 556 334 556 267 556 c 0,26,27
 242 556 242 556 210 571 c 2,0,-1
EndSplineSet
EndChar

StartChar: asciitilde
Encoding: 126 126 140
Width: 586
Flags: HMW
HStem: 211 97<398 418 398 425.5> 279 97<168 188>
VStem: 40 506<265 322>
LayerCount: 2
Fore
SplineSet
276 356 m 1,0,-1
 354 320 l 1,1,2
 385 308 385 308 406 308 c 0,3,4
 440 308 440 308 466 340 c 1,5,-1
 485 362 l 1,6,7
 503 361 503 361 521.5 349.5 c 128,-1,8
 540 338 540 338 546 322 c 1,9,-1
 533 299 l 2,10,11
 484 211 484 211 395 211 c 0,12,13
 357 211 357 211 310 231 c 1,14,-1
 231 267 l 2,15,16
 205 279 205 279 175.5 279 c 0,17,18
 146 279 146 279 120 247 c 1,19,-1
 101 225 l 1,20,21
 83 227 83 227 64.5 238 c 128,-1,22
 46 249 46 249 40 265 c 1,23,-1
 53 288 l 2,24,25
 102 376 102 376 191 376 c 0,26,27
 228 376 228 376 276 356 c 1,0,-1
EndSplineSet
EndChar

StartChar: dieresis
Encoding: 168 168 141
Width: 398
Flags: HMW
HStem: 573 79<58 58 154 154 244 244 340 340>
VStem: 50 104 236 104
LayerCount: 2
Fore
SplineSet
244 573 m 1,0,1
 236 592 236 592 236 612.5 c 128,-1,2
 236 633 236 633 244 652 c 1,3,4
 263 664 263 664 292 664 c 128,-1,5
 321 664 321 664 340 652 c 1,6,7
 348 636 348 636 348 612 c 128,-1,8
 348 588 348 588 340 573 c 1,9,10
 323 561 323 561 293 561 c 128,-1,11
 263 561 263 561 244 573 c 1,0,1
58 573 m 1,12,13
 50 589 50 589 50 612.5 c 128,-1,14
 50 636 50 636 58 652 c 1,15,16
 77 664 77 664 106 664 c 128,-1,17
 135 664 135 664 154 652 c 1,18,19
 162 633 162 633 162 612 c 128,-1,20
 162 591 162 591 154 573 c 1,21,22
 135 561 135 561 105 561 c 128,-1,23
 75 561 75 561 58 573 c 1,12,13
EndSplineSet
EndChar

StartChar: cedilla
Encoding: 184 184 142
Width: 398
Flags: HMW
HStem: -223 20 -223 58<176.5 199.5 175 226.5> -87 50 -87 87<182 200>
VStem: 229 83<-136.5 -115.5>
LayerCount: 2
Fore
SplineSet
145 -74 m 1,0,1
 158 -30 158 -30 171 0 c 1,2,-1
 236 0 l 1,3,4
 222 -28 222 -28 219 -37 c 1,5,6
 261 -39 261 -39 286.5 -63 c 128,-1,7
 312 -87 312 -87 312 -127.5 c 0,8,9
 312 -168 312 -168 278 -195.5 c 128,-1,10
 244 -223 244 -223 194 -223 c 0,11,12
 144 -223 144 -223 113 -203 c 1,13,14
 114 -176 114 -176 134 -151 c 1,15,16
 157 -165 157 -165 181.5 -165 c 0,17,18
 206 -165 206 -165 217.5 -154 c 128,-1,19
 229 -143 229 -143 229 -126 c 128,-1,20
 229 -109 229 -109 217.5 -98 c 128,-1,21
 206 -87 206 -87 190.5 -87 c 0,22,23
 175 -87 175 -87 163 -92 c 1,24,25
 151 -87 151 -87 145 -74 c 1,0,1
EndSplineSet
EndChar

StartChar: circumflex
Encoding: 710 710 143
Width: 398
Flags: HMW
HStem: 541 182
VStem: 53 291<584 592>
LayerCount: 2
Fore
SplineSet
294 546 m 1,0,-1
 201 637 l 1,1,-1
 101 541 l 1,2,3
 70 553 70 553 53 584 c 1,4,-1
 159 717 l 1,5,6
 197 730 197 730 246 718 c 1,7,-1
 344 592 l 1,8,9
 329 559 329 559 294 546 c 1,0,-1
EndSplineSet
EndChar

StartChar: macron
Encoding: 175 175 144
Width: 398
Flags: HMW
HStem: 575 83<59 340 59 340>
VStem: 59 281<575 575 575 658>
LayerCount: 2
Fore
SplineSet
340 575 m 1,0,-1
 59 575 l 1,1,2
 54 592 54 592 54 616 c 128,-1,3
 54 640 54 640 59 658 c 1,4,-1
 340 658 l 1,5,6
 344 639 344 639 344 616.5 c 0,7,8
 344 594 344 594 340 575 c 1,0,-1
EndSplineSet
EndChar

StartChar: ae
Encoding: 230 230 145
Width: 781
Flags: HMW
HStem: -13 84<507 568.5> 214 75<435 634 435 726 435 634> 228 72<211 250 180.5 255> 421 83<232 275.5> 430 77<505.5 571.5>
VStem: 43 103<121.5 169 121.5 192> 331 104<214 333> 634 100<289 301 301 336>
LayerCount: 2
Fore
SplineSet
726 214 m 1,0,-1
 435 214 l 1,1,2
 438 146 438 146 464 108.5 c 128,-1,3
 490 71 490 71 552 71 c 0,4,5
 614 71 614 71 688 110 c 1,6,7
 714 86 714 86 720 43 c 1,8,9
 643 -13 643 -13 531.5 -13 c 0,10,11
 420 -13 420 -13 370 70 c 1,12,13
 291 -13 291 -13 191 -13 c 0,14,15
 120 -13 120 -13 81.5 31 c 128,-1,16
 43 75 43 75 43 135 c 0,17,18
 43 217 43 217 96 258.5 c 128,-1,19
 149 300 149 300 235 300 c 0,20,21
 286 300 286 300 331 293 c 1,22,-1
 331 333 l 2,23,24
 331 421 331 421 250 421 c 0,25,26
 186 421 186 421 92 383 c 1,27,28
 64 409 64 409 62 458 c 1,29,30
 165 504 165 504 260 504 c 0,31,32
 355 504 355 504 396 443 c 1,33,34
 450 507 450 507 540 507 c 0,35,36
 630 507 630 507 682 446.5 c 128,-1,37
 734 386 734 386 734 293 c 0,38,39
 734 251 734 251 726 214 c 1,0,-1
213 69 m 0,40,41
 288 69 288 69 342 138 c 1,42,43
 333 176 333 176 330 223 c 1,44,45
 294 228 294 228 245 228 c 0,46,47
 196 228 196 228 171 205.5 c 128,-1,48
 146 183 146 183 146 146.5 c 0,49,50
 146 110 146 110 164 89.5 c 128,-1,51
 182 69 182 69 213 69 c 0,40,41
536 430 m 0,52,53
 443 430 443 430 435 289 c 1,54,-1
 634 289 l 1,55,-1
 634 301 l 2,56,57
 634 358 634 358 610 394 c 128,-1,58
 586 430 586 430 536 430 c 0,52,53
EndSplineSet
Substitution2: "'smcp' Lowercase to Small Capitals lookup 2 subtable" ae.smcp
Substitution2: "'aalt' Access All Alternates lookup 0 subtable" ae.smcp
EndChar

StartChar: aacute
Encoding: 225 225 147
Width: 507
Flags: HMW
HStem: -13 82<191.5 223> 228 72<211 248.5 180.5 255> 421 83<235.5 275> 538 201<215 313>
VStem: 43 103<121.5 169 121.5 191> 169 217<580 671> 331 102<129 132 132 224 224 224 293 332 332 337>
LayerCount: 2
Fore
SplineSet
461 46 m 1,0,1
 449 9 449 9 422 -7 c 1,2,3
 363 4 363 4 342 55 c 1,4,5
 272 -13 272 -13 196.5 -13 c 0,6,7
 121 -13 121 -13 82 31 c 128,-1,8
 43 75 43 75 43 134 c 0,9,10
 43 216 43 216 96 258 c 128,-1,11
 149 300 149 300 235 300 c 0,12,13
 285 300 285 300 331 293 c 1,14,-1
 331 332 l 2,15,16
 331 421 331 421 249 421 c 0,17,18
 191 421 191 421 92 383 c 1,19,20
 64 409 64 409 62 458 c 1,21,22
 165 504 165 504 269 504 c 0,23,24
 346 504 346 504 389.5 462 c 128,-1,25
 433 420 433 420 433 337 c 2,26,-1
 433 132 l 2,27,28
 433 70 433 70 461 46 c 1,0,1
213 69 m 0,29,30
 277 69 277 69 331 129 c 1,31,-1
 331 224 l 1,32,33
 291 228 291 228 243.5 228 c 0,34,35
 196 228 196 228 171 205.5 c 128,-1,36
 146 183 146 183 146 146.5 c 0,37,38
 146 110 146 110 164 89.5 c 128,-1,39
 182 69 182 69 213 69 c 0,29,30
169 580 m 1,40,-1
 313 739 l 1,41,42
 336 731 336 731 357 712 c 128,-1,43
 378 693 378 693 386 671 c 1,44,-1
 215 538 l 1,45,46
 201 542 201 542 188 554 c 128,-1,47
 175 566 175 566 169 580 c 1,40,-1
EndSplineSet
Substitution2: "'smcp' Lowercase to Small Capitals lookup 2 subtable" aacute.smcp
Substitution2: "'aalt' Access All Alternates lookup 0 subtable" aacute.smcp
EndChar

StartChar: adieresis
Encoding: 228 228 149
Width: 507
Flags: HMW
HStem: -13 82<191.5 223> 228 72<211 248.5 180.5 255> 421 83<235.5 275> 573 79<104 104 200 200 290 290 386 386>
VStem: 43 103<121.5 169 121.5 191> 96 104 282 104 331 102<129 132 132 224 224 224 293 332 332 337>
LayerCount: 2
Fore
SplineSet
461 46 m 1,0,1
 449 9 449 9 422 -7 c 1,2,3
 363 4 363 4 342 55 c 1,4,5
 272 -13 272 -13 196.5 -13 c 128,-1,6
 121 -13 121 -13 82 31 c 128,-1,7
 43 75 43 75 43 134 c 0,8,9
 43 216 43 216 96 258 c 128,-1,10
 149 300 149 300 235 300 c 0,11,12
 285 300 285 300 331 293 c 1,13,-1
 331 332 l 2,14,15
 331 421 331 421 249 421 c 0,16,17
 191 421 191 421 92 383 c 1,18,19
 64 409 64 409 62 458 c 1,20,21
 165 504 165 504 269 504 c 0,22,23
 346 504 346 504 389.5 462 c 128,-1,24
 433 420 433 420 433 337 c 2,25,-1
 433 132 l 2,26,27
 433 70 433 70 461 46 c 1,0,1
213 69 m 0,28,29
 277 69 277 69 331 129 c 1,30,-1
 331 224 l 1,31,32
 291 228 291 228 243.5 228 c 128,-1,33
 196 228 196 228 171 205.5 c 128,-1,34
 146 183 146 183 146 146.5 c 128,-1,35
 146 110 146 110 164 89.5 c 128,-1,36
 182 69 182 69 213 69 c 0,28,29
290 573 m 1,37,38
 282 592 282 592 282 612.5 c 128,-1,39
 282 633 282 633 290 652 c 1,40,41
 309 664 309 664 338 664 c 128,-1,42
 367 664 367 664 386 652 c 1,43,44
 394 636 394 636 394 612 c 128,-1,45
 394 588 394 588 386 573 c 1,46,47
 369 561 369 561 339 561 c 128,-1,48
 309 561 309 561 290 573 c 1,37,38
104 573 m 1,49,50
 96 589 96 589 96 612.5 c 128,-1,51
 96 636 96 636 104 652 c 1,52,53
 123 664 123 664 152 664 c 128,-1,54
 181 664 181 664 200 652 c 1,55,56
 208 633 208 633 208 612 c 128,-1,57
 208 591 208 591 200 573 c 1,58,59
 181 561 181 561 151 561 c 128,-1,60
 121 561 121 561 104 573 c 1,49,50
EndSplineSet
Substitution2: "'smcp' Lowercase to Small Capitals lookup 2 subtable" adieresis.smcp
Substitution2: "'aalt' Access All Alternates lookup 0 subtable" adieresis.smcp
EndChar

StartChar: aring
Encoding: 229 229 151
Width: 507
Flags: HMW
HStem: -13 82<191.5 223> 228 72<211 248.5 180.5 255> 421 83<235.5 275> 539 59<230.5 259.5 230.5 280.5> 707 59<230.5 259.5>
VStem: 43 103<121.5 169 121.5 191> 124 71<636.5 667.5 636.5 683.5> 295 71<636.5 667.5> 331 102<129 132 132 224 224 224 293 332 332 337>
LayerCount: 2
Fore
SplineSet
461 46 m 1,0,1
 449 9 449 9 422 -7 c 1,2,3
 363 4 363 4 342 55 c 1,4,5
 272 -13 272 -13 196.5 -13 c 128,-1,6
 121 -13 121 -13 82 31 c 128,-1,7
 43 75 43 75 43 134 c 0,8,9
 43 216 43 216 96 258 c 128,-1,10
 149 300 149 300 235 300 c 0,11,12
 285 300 285 300 331 293 c 1,13,-1
 331 332 l 2,14,15
 331 421 331 421 249 421 c 0,16,17
 191 421 191 421 92 383 c 1,18,19
 64 409 64 409 62 458 c 1,20,21
 165 504 165 504 269 504 c 0,22,23
 346 504 346 504 389.5 462 c 128,-1,24
 433 420 433 420 433 337 c 2,25,-1
 433 132 l 2,26,27
 433 70 433 70 461 46 c 1,0,1
213 69 m 0,28,29
 277 69 277 69 331 129 c 1,30,-1
 331 224 l 1,31,32
 291 228 291 228 243.5 228 c 128,-1,33
 196 228 196 228 171 205.5 c 128,-1,34
 146 183 146 183 146 146.5 c 128,-1,35
 146 110 146 110 164 89.5 c 128,-1,36
 182 69 182 69 213 69 c 0,28,29
158.5 572 m 128,-1,38
 124 605 124 605 124 652.5 c 128,-1,39
 124 700 124 700 158 733 c 128,-1,40
 192 766 192 766 245 766 c 128,-1,41
 298 766 298 766 332 733 c 128,-1,42
 366 700 366 700 366 652.5 c 128,-1,43
 366 605 366 605 331.5 572 c 128,-1,44
 297 539 297 539 245 539 c 128,-1,37
 193 539 193 539 158.5 572 c 128,-1,38
195 652 m 128,-1,46
 195 629 195 629 209 613.5 c 128,-1,47
 223 598 223 598 245 598 c 128,-1,48
 267 598 267 598 281 613.5 c 128,-1,49
 295 629 295 629 295 652 c 128,-1,50
 295 675 295 675 281 691 c 128,-1,51
 267 707 267 707 245 707 c 128,-1,52
 223 707 223 707 209 691 c 128,-1,45
 195 675 195 675 195 652 c 128,-1,46
EndSplineSet
Substitution2: "'smcp' Lowercase to Small Capitals lookup 2 subtable" aring.smcp
Substitution2: "'aalt' Access All Alternates lookup 0 subtable" aring.smcp
EndChar

StartChar: ccedilla
Encoding: 231 231 152
Width: 471
Flags: HMW
HStem: -223 20 -223 58<226 249.5 225 276.5> -87 50 427 80<219.5 287.5>
VStem: 44 107<184 305 184 336.5> 278 84<-136.5 -115.5> 339 95
LayerCount: 2
Fore
SplineSet
195 -74 m 1,0,1
 201 -46 201 -46 216 -11 c 1,2,3
 158 -3 158 -3 118.5 34 c 0,4,5
 44 103.784810127 44 103.784810127 44 238.892405063 c 128,-1,6
 44 374 44 374 105 440.5 c 128,-1,7
 166 507 166 507 252 507 c 128,-1,8
 338 507 338 507 386 460.5 c 128,-1,9
 434 414 434 414 434 356.5 c 128,-1,10
 434 299 434 299 382 299 c 0,11,12
 358 299 358 299 339 303 c 1,13,14
 343 427 343 427 251 427 c 0,15,16
 203 427 203 427 177 380.5 c 128,-1,17
 151 334 151 334 151 244 c 0,18,19
 151 72 151 72 264 72 c 0,20,21
 320 72 320 72 385 122 c 1,22,23
 399 114 399 114 412 96 c 128,-1,24
 425 78 425 78 429 61 c 1,25,26
 367 -1 367 -1 280 -11 c 1,27,28
 271 -29 271 -29 269 -37 c 1,29,30
 310 -39 310 -39 336 -63 c 128,-1,31
 362 -87 362 -87 362 -127.5 c 128,-1,32
 362 -168 362 -168 328 -195.5 c 128,-1,33
 294 -223 294 -223 244 -223 c 128,-1,34
 194 -223 194 -223 163 -203 c 1,35,36
 165 -174 165 -174 184 -151 c 1,37,38
 205 -165 205 -165 230.5 -165 c 128,-1,39
 256 -165 256 -165 267 -154 c 128,-1,40
 278 -143 278 -143 278 -126 c 128,-1,41
 278 -109 278 -109 267 -98 c 128,-1,42
 256 -87 256 -87 240 -87 c 128,-1,43
 224 -87 224 -87 212 -92 c 1,44,45
 198 -86 198 -86 195 -74 c 1,0,1
EndSplineSet
Substitution2: "'smcp' Lowercase to Small Capitals lookup 2 subtable" ccedilla.smcp
Substitution2: "'aalt' Access All Alternates lookup 0 subtable" ccedilla.smcp
EndChar

StartChar: eacute
Encoding: 233 233 154
Width: 500
Flags: HMW
HStem: -13 84<223.5 285> 214 75<150 352 150 444 150 352> 430 77<220 288> 538 201<226 324>
VStem: 44 106<214 214 214 289 214 320.5> 180 217<580 671> 352 99<289 302 302 337>
LayerCount: 2
Fore
SplineSet
444 214 m 1,0,-1
 150 214 l 1,1,2
 153 146 153 146 179.5 108.5 c 128,-1,3
 206 71 206 71 269 71 c 128,-1,4
 332 71 332 71 405 109 c 1,5,6
 430 86 430 86 438 43 c 1,7,8
 359 -13 359 -13 250 -13 c 0,9,10
 135.2 -13 135.2 -13 87.5 66.5 c 0,11,12
 44 139 44 139 44 250.5 c 128,-1,13
 44 362 44 362 98 434.5 c 128,-1,14
 152 507 152 507 249 507 c 128,-1,15
 346 507 346 507 398.5 446.5 c 128,-1,16
 451 386 451 386 451 293 c 0,17,18
 451 253 451 253 444 214 c 1,0,-1
252 430 m 0,19,20
 158 430 158 430 150 289 c 1,21,-1
 352 289 l 1,22,-1
 352 302 l 2,23,24
 352 359 352 359 327.5 394.5 c 128,-1,25
 303 430 303 430 252 430 c 0,19,20
180 580 m 1,26,-1
 324 739 l 1,27,28
 347 731 347 731 368 712 c 128,-1,29
 389 693 389 693 397 671 c 1,30,-1
 226 538 l 1,31,32
 212 542 212 542 199 554 c 128,-1,33
 186 566 186 566 180 580 c 1,26,-1
EndSplineSet
Substitution2: "'smcp' Lowercase to Small Capitals lookup 2 subtable" eacute.smcp
Substitution2: "'aalt' Access All Alternates lookup 0 subtable" eacute.smcp
EndChar

StartChar: edieresis
Encoding: 235 235 156
Width: 500
Flags: HMW
HStem: -13 84<223.5 285> 214 75<150 352 150 444 150 352> 430 77<220 288> 573 79<114 114 210 210 300 300 396 396>
VStem: 44 106<214 214 214 289 214 320.5> 106 104 292 104 352 99<289 302 302 337>
LayerCount: 2
Fore
SplineSet
444 214 m 1,0,-1
 150 214 l 1,1,2
 153 146 153 146 179.5 108.5 c 128,-1,3
 206 71 206 71 269 71 c 128,-1,4
 332 71 332 71 405 109 c 1,5,6
 430 86 430 86 438 43 c 1,7,8
 359 -13 359 -13 250 -13 c 0,9,10
 135.2 -13 135.2 -13 87.5 66.5 c 0,11,12
 44 139 44 139 44 250.5 c 128,-1,13
 44 362 44 362 98 434.5 c 128,-1,14
 152 507 152 507 249 507 c 128,-1,15
 346 507 346 507 398.5 446.5 c 128,-1,16
 451 386 451 386 451 293 c 0,17,18
 451 253 451 253 444 214 c 1,0,-1
252 430 m 0,19,20
 158 430 158 430 150 289 c 1,21,-1
 352 289 l 1,22,-1
 352 302 l 2,23,24
 352 359 352 359 327.5 394.5 c 128,-1,25
 303 430 303 430 252 430 c 0,19,20
300 573 m 1,26,27
 292 592 292 592 292 612.5 c 128,-1,28
 292 633 292 633 300 652 c 1,29,30
 319 664 319 664 348 664 c 128,-1,31
 377 664 377 664 396 652 c 1,32,33
 404 636 404 636 404 612 c 128,-1,34
 404 588 404 588 396 573 c 1,35,36
 379 561 379 561 349 561 c 128,-1,37
 319 561 319 561 300 573 c 1,26,27
114 573 m 1,38,39
 106 589 106 589 106 612.5 c 128,-1,40
 106 636 106 636 114 652 c 1,41,42
 133 664 133 664 162 664 c 128,-1,43
 191 664 191 664 210 652 c 1,44,45
 218 633 218 633 218 612 c 128,-1,46
 218 591 218 591 210 573 c 1,47,48
 191 561 191 561 161 561 c 128,-1,49
 131 561 131 561 114 573 c 1,38,39
EndSplineSet
Substitution2: "'smcp' Lowercase to Small Capitals lookup 2 subtable" edieresis.smcp
Substitution2: "'aalt' Access All Alternates lookup 0 subtable" edieresis.smcp
EndChar

StartChar: hbar
Encoding: 295 295 157
Width: 547
Flags: HMW
HStem: 409 93<310.5 331.5> 569 69<81 81>
VStem: 81 101<0 347 436 569 569 569 638 669> 370 103<88.5 106 106 313 313 338>
LayerCount: 2
Fore
SplineSet
182 669 m 2,0,-1
 182 637 l 1,1,-1
 342 639 l 1,2,3
 346 622 346 622 346 603.5 c 0,4,5
 346 585 346 585 342 568 c 1,6,-1
 182 570 l 1,7,-1
 182 436 l 1,8,9
 255 502 255 502 340 502 c 0,10,11
 407 502 407 502 440 457 c 128,-1,12
 473 412 473 412 473 338 c 2,13,-1
 473 106 l 2,14,15
 473 47 473 47 489 15 c 1,16,17
 462 -7 462 -7 428.5 -7 c 0,18,19
 395 -7 395 -7 382.5 9.5 c 128,-1,20
 370 26 370 26 370 59 c 2,21,-1
 370 313 l 2,22,23
 370 365 370 365 356.5 387 c 128,-1,24
 343 409 343 409 310 409 c 0,25,26
 277 409 277 409 242.5 392 c 128,-1,27
 208 375 208 375 182 347 c 1,28,-1
 182 0 l 1,29,30
 163 -4 163 -4 132 -4 c 0,31,32
 101 -4 101 -4 81 0 c 1,33,-1
 81 569 l 1,34,-1
 11 568 l 1,35,36
 6 590 6 590 6 603.5 c 0,37,38
 6 617 6 617 11 639 c 1,39,-1
 81 638 l 1,40,-1
 81 729 l 1,41,-1
 87 735 l 1,42,-1
 127 735 l 2,43,44
 158 735 158 735 170 720 c 128,-1,45
 182 705 182 705 182 669 c 2,0,-1
EndSplineSet
Substitution2: "'smcp' Lowercase to Small Capitals lookup 2 subtable" hbar.smcp
Substitution2: "'aalt' Access All Alternates lookup 0 subtable" hbar.smcp
EndChar

StartChar: dotlessi
Encoding: 305 305 158
Width: 271
Flags: HMW
HStem: 418 79<37 114 37 114>
VStem: 92 103<0 366 366 384>
LayerCount: 2
Fore
SplineSet
195 408 m 2,0,-1
 195 0 l 1,1,2
 176 -4 176 -4 143.5 -4 c 0,3,4
 111 -4 111 -4 92 0 c 1,5,-1
 92 366 l 2,6,7
 92 394 92 394 82 406 c 128,-1,8
 72 418 72 418 48 418 c 2,9,-1
 37 418 l 1,10,11
 32 440 32 440 32 455 c 128,-1,12
 32 470 32 470 37 493 c 1,13,14
 70 497 70 497 100 497 c 2,15,-1
 114 497 l 2,16,17
 152 497 152 497 173.5 473 c 128,-1,18
 195 449 195 449 195 408 c 2,0,-1
EndSplineSet
EndChar

StartChar: itilde
Encoding: 297 297 159
Width: 268
Flags: HMW
HStem: 418 79<34 111 34 111> 556 85<192 204 192 209.5>
VStem: -56 354<600 649> 89 103<0 366 366 384>
LayerCount: 2
Fore
SplineSet
192 408 m 2,0,-1
 192 0 l 1,1,2
 173 -4 173 -4 140.5 -4 c 0,3,4
 108 -4 108 -4 89 0 c 1,5,-1
 89 366 l 2,6,7
 89 394 89 394 79 406 c 128,-1,8
 69 418 69 418 45 418 c 2,9,-1
 34 418 l 1,10,11
 29 440 29 440 29 455 c 128,-1,12
 29 470 29 470 34 493 c 1,13,14
 67 497 67 497 97 497 c 2,15,-1
 111 497 l 2,16,17
 149 497 149 497 170.5 473 c 128,-1,18
 192 449 192 449 192 408 c 2,0,-1
132 571 m 2,19,-1
 77 598 l 1,20,21
 61 607 61 607 42.5 607 c 0,22,23
 24 607 24 607 6 582 c 1,24,-1
 -5 568 l 1,25,26
 -20 568 -20 568 -35 577 c 128,-1,27
 -50 586 -50 586 -56 600 c 1,28,-1
 -47 620 l 2,29,30
 -14 693 -14 693 53 693 c 0,31,32
 80 693 80 693 110 678 c 2,33,-1
 165 650 l 2,34,35
 181 641 181 641 198.5 641 c 0,36,37
 216 641 216 641 236 667 c 2,38,-1
 247 681 l 1,39,40
 262 681 262 681 277 671.5 c 128,-1,41
 292 662 292 662 298 649 c 1,42,-1
 289 629 l 2,43,44
 256 556 256 556 189 556 c 0,45,46
 164 556 164 556 132 571 c 2,19,-1
EndSplineSet
Substitution2: "'smcp' Lowercase to Small Capitals lookup 2 subtable" itilde.smcp
Substitution2: "'aalt' Access All Alternates lookup 0 subtable" itilde.smcp
EndChar

StartChar: ij
Encoding: 307 307 160
Width: 546
Flags: HMW
HStem: -219 21G 418 79<37 114 37 114> 587 89<70 70 180 180 343 343 453 453>
VStem: 61 119 92 103<0 366 366 384> 334 119 367 102<-32 18 18 366 366 384>
LayerCount: 2
Fore
SplineSet
195 408 m 2,0,-1
 195 0 l 1,1,2
 176 -4 176 -4 143.5 -4 c 128,-1,3
 111 -4 111 -4 92 0 c 1,4,-1
 92 366 l 2,5,6
 92 394 92 394 82 406 c 128,-1,7
 72 418 72 418 48 418 c 2,8,-1
 37 418 l 1,9,10
 32 440 32 440 32 455 c 128,-1,11
 32 470 32 470 37 493 c 1,12,13
 70 497 70 497 100 497 c 2,14,-1
 114 497 l 2,15,16
 152 497 152 497 173.5 473 c 128,-1,17
 195 449 195 449 195 408 c 2,0,-1
70 587 m 1,18,19
 61 605 61 605 61 631.5 c 128,-1,20
 61 658 61 658 70 676 c 1,21,22
 91 688 91 688 126 688 c 128,-1,23
 161 688 161 688 180 676 c 1,24,25
 189 658 189 658 189 631.5 c 128,-1,26
 189 605 189 605 180 587 c 1,27,28
 164 574 164 574 126 574 c 128,-1,29
 88 574 88 574 70 587 c 1,18,19
469 408 m 2,30,-1
 469 18 l 2,31,32
 469 -118.935483871 469 -118.935483871 434.5 -159 c 0,33,34
 398.699115044 -200.575221239 398.699115044 -200.575221239 325 -219 c 1,35,36
 300 -195 300 -195 295 -156 c 1,37,38
 337 -135 337 -135 352 -109.5 c 128,-1,39
 367 -84 367 -84 367 -32 c 2,40,-1
 367 366 l 2,41,42
 367 394 367 394 357.5 406 c 128,-1,43
 348 418 348 418 324 418 c 2,44,-1
 304 418 l 1,45,46
 299 440 299 440 299 455 c 128,-1,47
 299 470 299 470 304 493 c 1,48,49
 340 497 340 497 377 497 c 2,50,-1
 390 497 l 2,51,52
 427 497 427 497 448 473 c 128,-1,53
 469 449 469 449 469 408 c 2,30,-1
343 587 m 1,54,55
 334 605 334 605 334 631.5 c 128,-1,56
 334 658 334 658 343 676 c 1,57,58
 364 688 364 688 399 688 c 128,-1,59
 434 688 434 688 453 676 c 1,60,61
 462 658 462 658 462 631.5 c 128,-1,62
 462 605 462 605 453 587 c 1,63,64
 437 574 437 574 399 574 c 128,-1,65
 361 574 361 574 343 587 c 1,54,55
EndSplineSet
Substitution2: "'smcp' Lowercase to Small Capitals lookup 2 subtable" ij.smcp
Substitution2: "'aalt' Access All Alternates lookup 0 subtable" ij.smcp
EndChar

StartChar: igrave
Encoding: 236 236 161
Width: 268
Flags: HMW
HStem: 418 79<34 111 34 111> 538 201<61 160>
VStem: -11 216<580 671> 89 103<0 366 366 384>
LayerCount: 2
Fore
SplineSet
192 408 m 2,0,-1
 192 0 l 1,1,2
 173 -4 173 -4 140.5 -4 c 0,3,4
 108 -4 108 -4 89 0 c 1,5,-1
 89 366 l 2,6,7
 89 394 89 394 79 406 c 128,-1,8
 69 418 69 418 45 418 c 2,9,-1
 34 418 l 1,10,11
 29 440 29 440 29 455 c 128,-1,12
 29 470 29 470 34 493 c 1,13,14
 67 497 67 497 97 497 c 2,15,-1
 111 497 l 2,16,17
 149 497 149 497 170.5 473 c 128,-1,18
 192 449 192 449 192 408 c 2,0,-1
61 739 m 1,19,-1
 205 580 l 1,20,21
 191 547 191 547 160 538 c 1,22,-1
 -11 671 l 1,23,24
 -3 693 -3 693 17.5 712 c 128,-1,25
 38 731 38 731 61 739 c 1,19,-1
EndSplineSet
Substitution2: "'smcp' Lowercase to Small Capitals lookup 2 subtable" igrave.smcp
Substitution2: "'aalt' Access All Alternates lookup 0 subtable" igrave.smcp
EndChar

StartChar: iacute
Encoding: 237 237 162
Width: 268
Flags: HMW
HStem: 418 79<34 111 34 111> 538 201<92 190>
VStem: 46 217<580 671> 89 103<0 366 366 384>
LayerCount: 2
Fore
SplineSet
192 408 m 2,0,-1
 192 0 l 1,1,2
 173 -4 173 -4 140.5 -4 c 0,3,4
 108 -4 108 -4 89 0 c 1,5,-1
 89 366 l 2,6,7
 89 394 89 394 79 406 c 128,-1,8
 69 418 69 418 45 418 c 2,9,-1
 34 418 l 1,10,11
 29 440 29 440 29 455 c 128,-1,12
 29 470 29 470 34 493 c 1,13,14
 67 497 67 497 97 497 c 2,15,-1
 111 497 l 2,16,17
 149 497 149 497 170.5 473 c 128,-1,18
 192 449 192 449 192 408 c 2,0,-1
46 580 m 1,19,-1
 190 739 l 1,20,21
 213 731 213 731 234 712 c 128,-1,22
 255 693 255 693 263 671 c 1,23,-1
 92 538 l 1,24,25
 78 542 78 542 65 554 c 128,-1,26
 52 566 52 566 46 580 c 1,19,-1
EndSplineSet
Substitution2: "'smcp' Lowercase to Small Capitals lookup 2 subtable" iacute.smcp
Substitution2: "'aalt' Access All Alternates lookup 0 subtable" iacute.smcp
EndChar

StartChar: icircumflex
Encoding: 238 238 163
Width: 268
Flags: HMW
HStem: 418 79<34 111 34 111> 541 182
VStem: -25 291<584 592> 89 103<0 366 366 384>
LayerCount: 2
Fore
SplineSet
192 408 m 2,0,-1
 192 0 l 1,1,2
 173 -4 173 -4 140.5 -4 c 0,3,4
 108 -4 108 -4 89 0 c 1,5,-1
 89 366 l 2,6,7
 89 394 89 394 79 406 c 128,-1,8
 69 418 69 418 45 418 c 2,9,-1
 34 418 l 1,10,11
 29 440 29 440 29 455 c 128,-1,12
 29 470 29 470 34 493 c 1,13,14
 67 497 67 497 97 497 c 2,15,-1
 111 497 l 2,16,17
 149 497 149 497 170.5 473 c 128,-1,18
 192 449 192 449 192 408 c 2,0,-1
216 546 m 1,19,-1
 123 637 l 1,20,-1
 23 541 l 1,21,22
 -8 553 -8 553 -25 584 c 1,23,-1
 81 717 l 1,24,25
 119 730 119 730 168 718 c 1,26,-1
 266 592 l 1,27,28
 251 559 251 559 216 546 c 1,19,-1
EndSplineSet
Substitution2: "'smcp' Lowercase to Small Capitals lookup 2 subtable" icircumflex.smcp
Substitution2: "'aalt' Access All Alternates lookup 0 subtable" icircumflex.smcp
EndChar

StartChar: idieresis
Encoding: 239 239 164
Width: 268
Flags: HMW
HStem: 418 79<34 111 34 111> 573 79<-20 -20 76 76 166 166 262 262>
VStem: -28 104 89 103<0 366 366 384> 158 104
LayerCount: 2
Fore
SplineSet
192 408 m 2,0,-1
 192 0 l 1,1,2
 173 -4 173 -4 140.5 -4 c 128,-1,3
 108 -4 108 -4 89 0 c 1,4,-1
 89 366 l 2,5,6
 89 394 89 394 79 406 c 128,-1,7
 69 418 69 418 45 418 c 2,8,-1
 34 418 l 1,9,10
 29 440 29 440 29 455 c 128,-1,11
 29 470 29 470 34 493 c 1,12,13
 67 497 67 497 97 497 c 2,14,-1
 111 497 l 2,15,16
 149 497 149 497 170.5 473 c 128,-1,17
 192 449 192 449 192 408 c 2,0,-1
166 573 m 1,18,19
 158 592 158 592 158 612.5 c 128,-1,20
 158 633 158 633 166 652 c 1,21,22
 185 664 185 664 214 664 c 128,-1,23
 243 664 243 664 262 652 c 1,24,25
 270 636 270 636 270 612 c 128,-1,26
 270 588 270 588 262 573 c 1,27,28
 245 561 245 561 215 561 c 128,-1,29
 185 561 185 561 166 573 c 1,18,19
-20 573 m 1,30,31
 -28 589 -28 589 -28 612.5 c 128,-1,32
 -28 636 -28 636 -20 652 c 1,33,34
 -1 664 -1 664 28 664 c 128,-1,35
 57 664 57 664 76 652 c 1,36,37
 84 633 84 633 84 612 c 128,-1,38
 84 591 84 591 76 573 c 1,39,40
 57 561 57 561 27 561 c 128,-1,41
 -3 561 -3 561 -20 573 c 1,30,31
EndSplineSet
Substitution2: "'smcp' Lowercase to Small Capitals lookup 2 subtable" idieresis.smcp
Substitution2: "'aalt' Access All Alternates lookup 0 subtable" idieresis.smcp
EndChar

StartChar: jcircumflex
Encoding: 309 309 165
Width: 274
Flags: HMW
HStem: -219 21G 418 79<32 118 32 118> 541 182
VStem: -20 291<584 592> 95 102<-32 18 18 366 366 384>
LayerCount: 2
Fore
SplineSet
197 408 m 2,0,-1
 197 18 l 2,1,2
 197 -118.935483871 197 -118.935483871 162.5 -159 c 0,3,4
 126.699115044 -200.575221239 126.699115044 -200.575221239 53 -219 c 1,5,6
 28 -195 28 -195 23 -156 c 1,7,8
 65 -135 65 -135 80 -109.5 c 128,-1,9
 95 -84 95 -84 95 -32 c 2,10,-1
 95 366 l 2,11,12
 95 394 95 394 85.5 406 c 128,-1,13
 76 418 76 418 52 418 c 2,14,-1
 32 418 l 1,15,16
 27 440 27 440 27 455 c 128,-1,17
 27 470 27 470 32 493 c 1,18,19
 68 497 68 497 105 497 c 2,20,-1
 118 497 l 2,21,22
 155 497 155 497 176 473 c 128,-1,23
 197 449 197 449 197 408 c 2,0,-1
221 546 m 1,24,-1
 128 637 l 1,25,-1
 28 541 l 1,26,27
 -3 553 -3 553 -20 584 c 1,28,-1
 86 717 l 1,29,30
 124 730 124 730 173 718 c 1,31,-1
 271 592 l 1,32,33
 256 559 256 559 221 546 c 1,24,-1
EndSplineSet
Substitution2: "'smcp' Lowercase to Small Capitals lookup 2 subtable" jcircumflex.smcp
Substitution2: "'aalt' Access All Alternates lookup 0 subtable" jcircumflex.smcp
EndChar

StartChar: kcommaaccent
Encoding: 311 311 166
Width: 502
Flags: HMW
HStem: -263 21G -219 21G -71 18 215 86<217.5 218.5 213 248> 488 9
VStem: 78 101<0 213 0 299 299 669> 235 98<-142.5 -114.5>
LayerCount: 2
Fore
SplineSet
403 186 m 2,0,-1
 437 103 l 1,1,2
 460 42 460 42 485 25 c 1,3,4
 457 -7 457 -7 416 -7 c 0,5,6
 390 -7 390 -7 376 6.5 c 128,-1,7
 362 20 362 20 350 51 c 2,8,-1
 310 149 l 2,9,10
 294 188 294 188 276.5 201.5 c 128,-1,11
 259 215 259 215 235 215 c 0,12,13
 211 215 211 215 179 213 c 1,14,-1
 179 0 l 1,15,16
 160 -4 160 -4 129 -4 c 0,17,18
 98 -4 98 -4 78 0 c 1,19,-1
 78 729 l 1,20,-1
 84 735 l 1,21,-1
 124 735 l 2,22,23
 155 735 155 735 167 720 c 128,-1,24
 179 705 179 705 179 669 c 2,25,-1
 179 299 l 1,26,-1
 213 301 l 2,27,28
 229 301 229 301 237 315 c 2,29,-1
 325 453 l 1,30,31
 350 497 350 497 389 497 c 0,32,33
 428 497 428 497 447 496 c 1,34,-1
 453 488 l 1,35,-1
 344 315 l 2,36,37
 329 291 329 291 311 276 c 1,38,39
 373 260 373 260 403 186 c 2,0,-1
323 -58 m 1,40,41
 333 -82 333 -82 333 -110 c 0,42,43
 333 -160 333 -160 300 -200.5 c 128,-1,44
 267 -241 267 -241 209 -263 c 1,45,46
 182 -255 182 -255 175 -219 c 1,47,48
 235 -180 235 -180 235 -123 c 0,49,50
 235 -95 235 -95 222 -71 c 1,51,52
 242 -58 242 -58 271 -54 c 128,-1,53
 300 -50 300 -50 323 -58 c 1,40,41
EndSplineSet
Substitution2: "'smcp' Lowercase to Small Capitals lookup 2 subtable" kcommaaccent.smcp
Substitution2: "'aalt' Access All Alternates lookup 0 subtable" kcommaaccent.smcp
EndChar

StartChar: kgreenlandic
Encoding: 312 312 167
Width: 502
Flags: HMW
HStem: 215 86<217.5 218.5 213 248> 488 9
VStem: 78 101<0 213 0 299 299 432>
LayerCount: 2
Fore
SplineSet
403 186 m 2,0,-1
 437 103 l 1,1,2
 460 42 460 42 485 25 c 1,3,4
 457 -7 457 -7 416 -7 c 0,5,6
 390 -7 390 -7 376 6.5 c 128,-1,7
 362 20 362 20 350 51 c 2,8,-1
 310 149 l 2,9,10
 294 188 294 188 276.5 201.5 c 128,-1,11
 259 215 259 215 235 215 c 0,12,13
 211 215 211 215 179 213 c 1,14,-1
 179 0 l 1,15,16
 160 -4 160 -4 129 -4 c 0,17,18
 98 -4 98 -4 78 0 c 1,19,-1
 78 492 l 1,20,-1
 84 498 l 1,21,-1
 124 498 l 2,22,23
 155 498 155 498 167 483 c 128,-1,24
 179 468 179 468 179 432 c 2,25,-1
 179 299 l 1,26,-1
 213 301 l 2,27,28
 229 301 229 301 237 315 c 2,29,-1
 325 453 l 1,30,31
 350 497 350 497 389 497 c 0,32,33
 428 497 428 497 447 496 c 1,34,-1
 453 488 l 1,35,-1
 344 315 l 2,36,37
 329 291 329 291 311 276 c 1,38,39
 373 260 373 260 403 186 c 2,0,-1
EndSplineSet
Substitution2: "'smcp' Lowercase to Small Capitals lookup 2 subtable" kgreenlandic.smcp
Substitution2: "'aalt' Access All Alternates lookup 0 subtable" kgreenlandic.smcp
EndChar

StartChar: ldot
Encoding: 320 320 168
Width: 350
Flags: HMW
HStem: -4 81<142.5 254> 307 93<248 248 353 353>
VStem: 76 102<107 122 122 669> 241 112
LayerCount: 2
Fore
SplineSet
217 77 m 2,0,-1
 254 77 l 1,1,2
 263 52 263 52 263 33 c 0,3,4
 263 14 263 14 260 3 c 1,5,6
 220 -4 220 -4 175 -4 c 0,7,8
 76 -4 76 -4 76 99 c 2,9,-1
 76 729 l 1,10,-1
 83 735 l 1,11,-1
 122 735 l 2,12,13
 153 735 153 735 165.5 719.5 c 128,-1,14
 178 704 178 704 178 669 c 2,15,-1
 178 122 l 2,16,17
 178 77 178 77 217 77 c 2,0,-1
241 354 m 128,-1,19
 241 386 241 386 248 400 c 1,20,21
 268 413 268 413 301 413 c 128,-1,22
 334 413 334 413 353 400 c 1,23,24
 360 386 360 386 360 354 c 128,-1,25
 360 322 360 322 353 307 c 1,26,27
 335 294 335 294 301.5 294 c 0,28,29
 268 294 268 294 248 307 c 1,30,18
 241 322 241 322 241 354 c 128,-1,19
EndSplineSet
Substitution2: "'smcp' Lowercase to Small Capitals lookup 2 subtable" ldot.smcp
Substitution2: "'aalt' Access All Alternates lookup 0 subtable" ldot.smcp
EndChar

StartChar: lslash
Encoding: 322 322 169
Width: 331
Flags: HMW
HStem: -4 81<171.5 283>
VStem: 106 100<107 122 122 305 305 305 444 669>
LayerCount: 2
Fore
SplineSet
246 77 m 2,0,-1
 283 77 l 1,1,2
 291 55 291 55 291 32.5 c 0,3,4
 291 10 291 10 289 3 c 1,5,6
 249 -4 249 -4 204 -4 c 0,7,8
 106 -4 106 -4 106 99 c 2,9,-1
 106 305 l 1,10,-1
 36 269 l 1,11,-1
 28 273 l 1,12,13
 18 311 18 311 27 351 c 1,14,-1
 106 392 l 1,15,-1
 106 729 l 1,16,-1
 112 735 l 1,17,-1
 150 735 l 2,18,19
 182 735 182 735 194 720 c 128,-1,20
 206 705 206 705 206 669 c 2,21,-1
 206 444 l 1,22,-1
 285 486 l 1,23,-1
 293 482 l 1,24,25
 303 444 303 444 294 404 c 1,26,-1
 206 358 l 1,27,-1
 206 122 l 2,28,29
 206 77 206 77 246 77 c 2,0,-1
EndSplineSet
Substitution2: "'smcp' Lowercase to Small Capitals lookup 2 subtable" lslash.smcp
Substitution2: "'aalt' Access All Alternates lookup 0 subtable" lslash.smcp
EndChar

StartChar: ntilde
Encoding: 241 241 171
Width: 546
Flags: HMW
HStem: 409 94<309 331> 478 20G<84 123 123 142.5> 556 85<349 361 349 366.5>
VStem: 78 103<0 347 0 492> 101 354<600 649> 369 103<88.5 106 106 313 313 339>
LayerCount: 2
Fore
SplineSet
472 339 m 2,0,-1
 472 106 l 2,1,2
 472 46 472 46 489 15 c 1,3,4
 462 -7 462 -7 428 -7 c 0,5,6
 394 -7 394 -7 381.5 9.5 c 128,-1,7
 369 26 369 26 369 59 c 2,8,-1
 369 313 l 2,9,10
 369 365 369 365 355.5 387 c 128,-1,11
 342 409 342 409 309 409 c 0,12,13
 276 409 276 409 241.5 392.5 c 128,-1,14
 207 376 207 376 181 347 c 1,15,-1
 181 0 l 1,16,17
 162 -4 162 -4 130 -4 c 128,-1,18
 98 -4 98 -4 78 0 c 1,19,-1
 78 492 l 1,20,-1
 84 498 l 1,21,-1
 123 498 l 2,22,23
 177 498 177 498 180 436 c 1,24,25
 254 503 254 503 339 503 c 0,26,27
 406 503 406 503 439 458 c 128,-1,28
 472 413 472 413 472 339 c 2,0,-1
289 571 m 2,29,-1
 234 598 l 1,30,31
 218 607 218 607 199.5 607 c 0,32,33
 181 607 181 607 163 582 c 1,34,-1
 152 568 l 1,35,36
 137 568 137 568 122 577 c 128,-1,37
 107 586 107 586 101 600 c 1,38,-1
 110 620 l 2,39,40
 143 693 143 693 210 693 c 0,41,42
 237 693 237 693 267 678 c 2,43,-1
 322 650 l 2,44,45
 338 641 338 641 356 641 c 0,46,47
 374 641 374 641 393 667 c 1,48,-1
 404 681 l 1,49,50
 419 681 419 681 434 671.5 c 128,-1,51
 449 662 449 662 455 649 c 1,52,-1
 446 629 l 2,53,54
 413 556 413 556 346 556 c 0,55,56
 321 556 321 556 289 571 c 2,29,-1
EndSplineSet
Substitution2: "'smcp' Lowercase to Small Capitals lookup 2 subtable" ntilde.smcp
Substitution2: "'aalt' Access All Alternates lookup 0 subtable" ntilde.smcp
EndChar

StartChar: oe
Encoding: 339 339 172
Width: 829
Flags: HMW
HStem: -13 79<230.5 299.5> -13 84<554.5 615.5> 214 75<482 681 482 774 482 681> 430 77<551.5 619>
VStem: 44 107<206 288> 370 112<214 214 214 289 214 293> 681 100<289 301 301 336.5>
LayerCount: 2
Fore
SplineSet
774 214 m 1,0,-1
 482 214 l 1,1,2
 485 146 485 146 511 108.5 c 128,-1,3
 537 71 537 71 599.5 71 c 0,4,5
 662 71 662 71 735 109 c 1,6,7
 760 86 760 86 768 44 c 1,8,9
 690 -13 690 -13 580 -13 c 0,10,11
 470 -13 470 -13 422 68 c 1,12,13
 371 -13 371 -13 260 -13 c 0,14,15
 170 -13 170 -13 115 42 c 0,16,17
 44 112 44 112 44 246.5 c 0,18,19
 44 381 44 381 115 452 c 0,20,21
 170 507 170 507 260 507 c 0,22,23
 371 507 371 507 424 421 c 1,24,25
 476 507 476 507 576.5 507 c 0,26,27
 677 507 677 507 729 446.5 c 128,-1,28
 781 386 781 386 781 293 c 0,29,30
 781 253 781 253 774 214 c 1,0,-1
151 247 m 128,-1,32
 151 66 151 66 260.5 66 c 0,33,34
 370 66 370 66 370 247 c 128,-1,35
 370 428 370 428 260.5 428 c 0,36,31
 151 428 151 428 151 247 c 128,-1,32
583 430 m 0,37,38
 490 430 490 430 482 289 c 1,39,-1
 681 289 l 1,40,-1
 681 301 l 2,41,42
 681 359 681 359 657.5 394.5 c 128,-1,43
 634 430 634 430 583 430 c 0,37,38
EndSplineSet
Substitution2: "'smcp' Lowercase to Small Capitals lookup 2 subtable" oe.smcp
Substitution2: "'aalt' Access All Alternates lookup 0 subtable" oe.smcp
EndChar

StartChar: oacute
Encoding: 243 243 174
Width: 520
Flags: HMW
HStem: -13 79<230.5 289.5> 428 79<230.5 289.5 230.5 303> 538 201<230 328>
VStem: 44 107<205.5 288> 184 217<580 671> 370 106<205.5 288 205.5 293>
LayerCount: 2
Fore
SplineSet
476 247 m 128,-1,1
 476 113 476 113 405 42 c 0,2,3
 350 -13 350 -13 260 -13 c 128,-1,4
 170 -13 170 -13 115 42 c 0,5,6
 44 113 44 113 44 247 c 128,-1,7
 44 381 44 381 115 452 c 0,8,9
 170 507 170 507 260 507 c 128,-1,10
 350 507 350 507 405 452 c 0,11,0
 476 381 476 381 476 247 c 128,-1,1
151 247 m 128,-1,13
 151 66 151 66 260.5 66 c 0,14,15
 370 66 370 66 370 247 c 128,-1,16
 370 428 370 428 260.5 428 c 0,17,12
 151 428 151 428 151 247 c 128,-1,13
184 580 m 1,18,-1
 328 739 l 1,19,20
 351 731 351 731 372 712 c 128,-1,21
 393 693 393 693 401 671 c 1,22,-1
 230 538 l 1,23,24
 216 542 216 542 203 554 c 128,-1,25
 190 566 190 566 184 580 c 1,18,-1
EndSplineSet
Substitution2: "'smcp' Lowercase to Small Capitals lookup 2 subtable" oacute.smcp
Substitution2: "'aalt' Access All Alternates lookup 0 subtable" oacute.smcp
EndChar

StartChar: otilde
Encoding: 245 245 176
Width: 520
Flags: HMW
HStem: -13 79<230.5 289.5> 428 79<230.5 289.5 230.5 303> 556 85<331 343 331 348.5>
VStem: 44 107<205.5 288> 83 354<600 649> 370 106<205.5 288 205.5 293>
LayerCount: 2
Fore
SplineSet
476 247 m 128,-1,1
 476 113 476 113 405 42 c 0,2,3
 350 -13 350 -13 260 -13 c 128,-1,4
 170 -13 170 -13 115 42 c 0,5,6
 44 113 44 113 44 247 c 128,-1,7
 44 381 44 381 115 452 c 0,8,9
 170 507 170 507 260 507 c 128,-1,10
 350 507 350 507 405 452 c 0,11,0
 476 381 476 381 476 247 c 128,-1,1
151 247 m 128,-1,13
 151 66 151 66 260.5 66 c 0,14,15
 370 66 370 66 370 247 c 128,-1,16
 370 428 370 428 260.5 428 c 0,17,12
 151 428 151 428 151 247 c 128,-1,13
271 571 m 2,18,-1
 216 598 l 1,19,20
 200 607 200 607 181.5 607 c 0,21,22
 163 607 163 607 145 582 c 1,23,-1
 134 568 l 1,24,25
 119 568 119 568 104 577 c 128,-1,26
 89 586 89 586 83 600 c 1,27,-1
 92 620 l 2,28,29
 125 693 125 693 192 693 c 0,30,31
 219 693 219 693 249 678 c 2,32,-1
 304 650 l 2,33,34
 320 641 320 641 338 641 c 0,35,36
 356 641 356 641 375 667 c 1,37,-1
 386 681 l 1,38,39
 401 681 401 681 416 671.5 c 128,-1,40
 431 662 431 662 437 649 c 1,41,-1
 428 629 l 2,42,43
 395 556 395 556 328 556 c 0,44,45
 303 556 303 556 271 571 c 2,18,-1
EndSplineSet
Substitution2: "'smcp' Lowercase to Small Capitals lookup 2 subtable" otilde.smcp
Substitution2: "'aalt' Access All Alternates lookup 0 subtable" otilde.smcp
EndChar

StartChar: oslash
Encoding: 248 248 178
Width: 522
Flags: HMW
HStem: -13 76<250.5 290> 431 76<231 271> 530 20G<386 386>
VStem: 45 98<227 286.5> 378 99<208 267.5>
LayerCount: 2
Fore
SplineSet
407 451 m 1,0,1
 477 380 477 380 477 246 c 128,-1,2
 477 112 477 112 406 42 c 0,3,4
 351 -13 351 -13 260 -13 c 0,5,6
 210 -13 210 -13 169 5 c 1,7,-1
 133 -56 l 1,8,9
 95 -51 95 -51 74 -23 c 1,10,-1
 112 44 l 1,11,12
 45 112 45 112 45 247 c 128,-1,13
 45 382 45 382 115 452 c 0,14,15
 171 507 171 507 260 507 c 0,16,17
 310 507 310 507 351 489 c 1,18,-1
 386 550 l 1,19,20
 424 544 424 544 445 517 c 1,21,-1
 407 451 l 1,0,1
351 115.5 m 128,-1,23
 378 168 378 168 378 243 c 128,-1,24
 378 318 378 318 359 363 c 1,25,-1
 208 76 l 1,26,27
 230 63 230 63 261 63 c 0,28,22
 324 63 324 63 351 115.5 c 128,-1,23
170.5 379 m 128,-1,30
 143 327 143 327 143 252.5 c 128,-1,31
 143 178 143 178 161 134 c 1,32,-1
 311 419 l 1,33,34
 287 431 287 431 261 431 c 0,35,29
 198 431 198 431 170.5 379 c 128,-1,30
EndSplineSet
Substitution2: "'smcp' Lowercase to Small Capitals lookup 2 subtable" oslash.smcp
Substitution2: "'aalt' Access All Alternates lookup 0 subtable" oslash.smcp
EndChar

StartChar: rcommaaccent
Encoding: 343 343 180
Width: 368
Flags: HMW
HStem: -263 21G -219 21G -71 18 402 99<276.5 297>
VStem: 87 103<0 326 0 343 0 369.5> 106 98<-142.5 -114.5>
LayerCount: 2
Fore
SplineSet
50 446 m 1,0,1
 60 483 60 483 88 501 c 1,2,3
 157 486 157 486 179 412 c 1,4,5
 219 501 219 501 310 501 c 0,6,7
 334 501 334 501 363 495 c 1,8,9
 363 437 363 437 338 397 c 1,10,11
 329 400 329 400 297 402 c 1,12,13
 229 402 229 402 190 326 c 1,14,-1
 190 0 l 1,15,16
 171 -4 171 -4 138.5 -4 c 0,17,18
 106 -4 106 -4 87 0 c 1,19,-1
 87 343 l 2,20,21
 87 411 87 411 50 446 c 1,0,1
194 -58 m 1,22,23
 204 -82 204 -82 204 -110 c 0,24,25
 204 -160 204 -160 171 -200.5 c 128,-1,26
 138 -241 138 -241 80 -263 c 1,27,28
 53 -255 53 -255 46 -219 c 1,29,30
 106 -180 106 -180 106 -123 c 0,31,32
 106 -95 106 -95 93 -71 c 1,33,34
 113 -58 113 -58 142 -54 c 128,-1,35
 171 -50 171 -50 194 -58 c 1,22,23
EndSplineSet
Substitution2: "'smcp' Lowercase to Small Capitals lookup 2 subtable" rcommaaccent.smcp
Substitution2: "'aalt' Access All Alternates lookup 0 subtable" rcommaaccent.smcp
EndChar

StartChar: germandbls
Encoding: 223 223 181
Width: 627
Flags: HMW
HStem: -13 80<392.5 426.5 390.5 465.5> 390 81 619 80<283.5 362>
VStem: 105 105<0 391 391 391 471 495 0 506 0 568.5> 337 109<339 360.5 339 365> 484 110<109.5 140>
LayerCount: 2
Fore
SplineSet
105 0 m 1,0,-1
 105 391 l 1,1,-1
 19 390 l 1,2,3
 15 406 15 406 15 431 c 0,4,5
 15 456 15 456 19 473 c 1,6,-1
 105 471 l 1,7,-1
 105 506 l 2,8,9
 105 598 105 598 164.5 648.5 c 128,-1,10
 224 699 224 699 324 699 c 128,-1,11
 424 699 424 699 483.5 645 c 128,-1,12
 543 591 543 591 543 500 c 0,13,14
 543 462 543 462 528 422 c 1,15,-1
 526 422 l 1,16,-1
 528 421 l 1,17,18
 487 411 487 411 466.5 390 c 128,-1,19
 446 369 446 369 446 346 c 0,20,21
 446 323 446 323 483 291 c 2,22,-1
 520 258 l 2,23,24
 594 192 594 192 594 128.5 c 0,25,26
 594 65 594 65 543.5 26 c 128,-1,27
 493 -13 493 -13 417.5 -13 c 0,28,29
 342 -13 342 -13 284 16 c 1,30,31
 285 34 285 34 294.5 56 c 128,-1,32
 304 78 304 78 318 90 c 1,33,34
 361 67 361 67 399.5 67 c 0,35,36
 438 67 438 67 461 84 c 128,-1,37
 484 101 484 101 484 130.5 c 0,38,39
 484 160 484 160 444 195 c 2,40,-1
 403 230 l 1,41,42
 337 288 337 288 337 341 c 0,43,44
 337 377 337 377 363.5 409.5 c 128,-1,45
 390 442 390 442 435 460 c 1,46,47
 439 482 439 482 439 495 c 0,48,49
 439 548 439 548 409 583.5 c 128,-1,50
 379 619 379 619 323 619 c 0,51,52
 210 619 210 619 210 495 c 2,53,-1
 210 0 l 1,54,55
 189 -4 189 -4 157 -4 c 128,-1,56
 125 -4 125 -4 105 0 c 1,0,-1
EndSplineSet
Substitution2: "'smcp' Lowercase to Small Capitals lookup 2 subtable" germandbls.smcp
Substitution2: "'aalt' Access All Alternates lookup 0 subtable" germandbls.smcp
EndChar

StartChar: uacute
Encoding: 250 250 183
Width: 547
Flags: HMW
HStem: -9 93<214.5 238> 474 20G<364 364 468 468> 480 20G<109.5 142> 538 201<238 336>
VStem: 74 103<155 180 180 388 388 405.5> 192 217<580 671> 364 104<145 494>
LayerCount: 2
Fore
SplineSet
74 155 m 2,0,-1
 74 388 l 2,1,2
 74 448 74 448 57 478 c 1,3,4
 82 500 82 500 122 500 c 0,5,6
 177 500 177 500 177 435 c 2,7,-1
 177 180 l 2,8,9
 177 128 177 128 190 106 c 128,-1,10
 203 84 203 84 236 84 c 0,11,12
 269 84 269 84 303 100.5 c 128,-1,13
 337 117 337 117 364 145 c 1,14,-1
 364 494 l 1,15,16
 392 498 392 498 415 498 c 0,17,18
 438 498 438 498 468 494 c 1,19,-1
 468 140 l 2,20,21
 468 70 468 70 496 45 c 1,22,23
 485 9 485 9 457 -7 c 1,24,25
 394 4 394 4 373 65 c 1,26,27
 295 -9 295 -9 206 -9 c 0,28,29
 140 -9 140 -9 107 36 c 128,-1,30
 74 81 74 81 74 155 c 2,0,-1
192 580 m 1,31,-1
 336 739 l 1,32,33
 359 731 359 731 380 712 c 128,-1,34
 401 693 401 693 409 671 c 1,35,-1
 238 538 l 1,36,37
 224 542 224 542 211 554 c 128,-1,38
 198 566 198 566 192 580 c 1,31,-1
EndSplineSet
Substitution2: "'smcp' Lowercase to Small Capitals lookup 2 subtable" uacute.smcp
Substitution2: "'aalt' Access All Alternates lookup 0 subtable" uacute.smcp
EndChar

StartChar: udieresis
Encoding: 252 252 185
Width: 547
Flags: HMW
HStem: -9 93<214.5 238> 474 20G<364 364 468 468> 480 20G<109.5 142> 573 79<127 127 223 223 313 313 409 409>
VStem: 74 103<155 180 180 388 388 405.5> 119 104 305 104 364 104<145 494>
LayerCount: 2
Fore
SplineSet
74 155 m 2,0,-1
 74 388 l 2,1,2
 74 448 74 448 57 478 c 1,3,4
 82 500 82 500 122 500 c 0,5,6
 177 500 177 500 177 435 c 2,7,-1
 177 180 l 2,8,9
 177 128 177 128 190 106 c 128,-1,10
 203 84 203 84 236 84 c 128,-1,11
 269 84 269 84 303 100.5 c 128,-1,12
 337 117 337 117 364 145 c 1,13,-1
 364 494 l 1,14,15
 392 498 392 498 415 498 c 128,-1,16
 438 498 438 498 468 494 c 1,17,-1
 468 140 l 2,18,19
 468 70 468 70 496 45 c 1,20,21
 485 9 485 9 457 -7 c 1,22,23
 394 4 394 4 373 65 c 1,24,25
 295 -9 295 -9 206 -9 c 0,26,27
 140 -9 140 -9 107 36 c 128,-1,28
 74 81 74 81 74 155 c 2,0,-1
313 573 m 1,29,30
 305 592 305 592 305 612.5 c 128,-1,31
 305 633 305 633 313 652 c 1,32,33
 332 664 332 664 361 664 c 128,-1,34
 390 664 390 664 409 652 c 1,35,36
 417 636 417 636 417 612 c 128,-1,37
 417 588 417 588 409 573 c 1,38,39
 392 561 392 561 362 561 c 128,-1,40
 332 561 332 561 313 573 c 1,29,30
127 573 m 1,41,42
 119 589 119 589 119 612.5 c 128,-1,43
 119 636 119 636 127 652 c 1,44,45
 146 664 146 664 175 664 c 128,-1,46
 204 664 204 664 223 652 c 1,47,48
 231 633 231 633 231 612 c 128,-1,49
 231 591 231 591 223 573 c 1,50,51
 204 561 204 561 174 561 c 128,-1,52
 144 561 144 561 127 573 c 1,41,42
EndSplineSet
Substitution2: "'smcp' Lowercase to Small Capitals lookup 2 subtable" udieresis.smcp
Substitution2: "'aalt' Access All Alternates lookup 0 subtable" udieresis.smcp
EndChar

StartChar: ydieresis
Encoding: 255 255 187
Width: 468
Flags: HMW
HStem: -218 77<88.5 135.5 88.5 167.5> 471 20G<453 453> 478 20G<392 408.5> 481 20G<70.5 91.5> 573 79<92 92 188 188 278 278 374 374>
VStem: 5 451 84 104 270 104
LayerCount: 2
Fore
SplineSet
456 485 m 1,0,-1
 324 16 l 2,1,2
 288 -109 288 -109 241.5 -163.5 c 128,-1,3
 195 -218 195 -218 101 -218 c 0,4,5
 47 -218 47 -218 5 -202 c 1,6,7
 4 -184 4 -184 10.5 -162 c 128,-1,8
 17 -140 17 -140 28 -128 c 1,9,10
 63 -141 63 -141 106 -141 c 128,-1,11
 149 -141 149 -141 176 -110 c 128,-1,12
 203 -79 203 -79 222 -17 c 1,13,-1
 225 -5 l 1,14,15
 193 -4 193 -4 175 7.5 c 128,-1,16
 157 19 157 19 148 49 c 2,17,-1
 16 486 l 1,18,19
 52 501 52 501 79 501 c 0,20,21
 118 501 118 501 131 455 c 2,22,-1
 199 225 l 2,23,24
 209 193 209 193 236 78 c 0,25,26
 238 71 238 71 245 71 c 1,27,-1
 355 494 l 1,28,29
 372 498 372 498 400.5 498 c 128,-1,30
 429 498 429 498 453 491 c 1,31,-1
 456 485 l 1,0,-1
278 573 m 1,32,33
 270 592 270 592 270 612.5 c 128,-1,34
 270 633 270 633 278 652 c 1,35,36
 297 664 297 664 326 664 c 128,-1,37
 355 664 355 664 374 652 c 1,38,39
 382 636 382 636 382 612 c 128,-1,40
 382 588 382 588 374 573 c 1,41,42
 357 561 357 561 327 561 c 128,-1,43
 297 561 297 561 278 573 c 1,32,33
92 573 m 1,44,45
 84 589 84 589 84 612.5 c 128,-1,46
 84 636 84 636 92 652 c 1,47,48
 111 664 111 664 140 664 c 128,-1,49
 169 664 169 664 188 652 c 1,50,51
 196 633 196 633 196 612 c 128,-1,52
 196 591 196 591 188 573 c 1,53,54
 169 561 169 561 139 561 c 128,-1,55
 109 561 109 561 92 573 c 1,44,45
EndSplineSet
Substitution2: "'smcp' Lowercase to Small Capitals lookup 2 subtable" ydieresis.smcp
Substitution2: "'aalt' Access All Alternates lookup 0 subtable" ydieresis.smcp
EndChar

StartChar: eth
Encoding: 240 240 188
Width: 517
Flags: HMW
HStem: -13 78<228.5 287.5> 410 77<224 265.5 224 276.5>
VStem: 42 107<203 282> 368 106<206 274>
LayerCount: 2
Fore
SplineSet
111 572 m 1,0,-1
 197 631 l 1,1,2
 163 658 163 658 117 682 c 1,3,4
 120 701 120 701 132 720.5 c 128,-1,5
 144 740 144 740 158 748 c 1,6,7
 221 721 221 721 272 682 c 1,8,-1
 359 742 l 1,9,10
 391 718 391 718 396 688 c 1,11,-1
 323 638 l 1,12,13
 474 487 474 487 474 245 c 0,14,15
 474 113 474 113 403 42 c 0,16,17
 348 -13 348 -13 258 -13 c 128,-1,18
 168 -13 168 -13 113 42 c 0,19,20
 42 113 42 113 42 238 c 0,21,22
 42 363 42 363 113 434 c 1,23,24
 169 487 169 487 253 487 c 0,25,26
 288 487 288 487 325 470 c 1,27,28
 303 529 303 529 248 586 c 1,29,-1
 149 517 l 1,30,31
 118 539 118 539 111 572 c 1,0,-1
368 245 m 0,32,33
 368 324 368 324 352 380 c 1,34,35
 309 410 309 410 259 410 c 0,36,37
 149 410 149 410 149 237.5 c 0,38,39
 149 65 149 65 258.5 65 c 0,40,41
 368 65 368 65 368 245 c 0,32,33
EndSplineSet
Substitution2: "'smcp' Lowercase to Small Capitals lookup 2 subtable" eth.smcp
Substitution2: "'aalt' Access All Alternates lookup 0 subtable" eth.smcp
EndChar

StartChar: thorn
Encoding: 254 254 189
Width: 528
Flags: HMW
HStem: -215 21G<84 122 84 84> -209 21G<78 78> -9 83<273 306 261 339.5> 416 86<285 312>
VStem: 78 100<-172 -149 -149 24 110 351 446 669> 379 105<191 311>
LayerCount: 2
Fore
SplineSet
438.5 434 m 128,-1,1
 484 366 484 366 484 246 c 128,-1,2
 484 126 484 126 427 58.5 c 128,-1,3
 370 -9 370 -9 294 -9 c 0,4,5
 236 -9 236 -9 178 24 c 1,6,-1
 178 -149 l 2,7,8
 178 -185 178 -185 166 -200 c 128,-1,9
 154 -215 154 -215 122 -215 c 2,10,-1
 84 -215 l 1,11,-1
 78 -209 l 1,12,-1
 78 729 l 1,13,-1
 84 735 l 1,14,-1
 122 735 l 2,15,16
 154 735 154 735 166 720 c 128,-1,17
 178 705 178 705 178 669 c 2,18,-1
 178 446 l 1,19,20
 236 502 236 502 314.5 502 c 128,-1,0
 393 502 393 502 438.5 434 c 128,-1,1
288 416 m 0,21,22
 223 416 223 416 178 351 c 1,23,-1
 178 110 l 1,24,25
 234 74 234 74 278.5 74 c 128,-1,26
 323 74 323 74 351 119.5 c 128,-1,27
 379 165 379 165 379 250 c 128,-1,28
 379 335 379 335 353 375.5 c 128,-1,29
 327 416 327 416 288 416 c 0,21,22
EndSplineSet
Substitution2: "'smcp' Lowercase to Small Capitals lookup 2 subtable" thorn.smcp
Substitution2: "'aalt' Access All Alternates lookup 0 subtable" thorn.smcp
EndChar

StartChar: AE
Encoding: 198 198 190
Width: 876
Flags: HMW
HStem: -1 91<569 758> 165 88<253 347 286 346> 301 88<558.5 755 566 755> 593 90<503 566 566 804>
VStem: 401 103<130 139 139 166 166 166 252 302 388 528>
LayerCount: 2
Fore
SplineSet
401 166 m 1,0,-1
 346 165 l 1,1,-1
 257 165 l 1,2,-1
 204 166 l 1,3,-1
 123 -1 l 1,4,5
 103 -5 103 -5 73.5 -5 c 128,-1,6
 44 -5 44 -5 19 2 c 1,7,-1
 15 8 l 1,8,-1
 343 673 l 1,9,10
 364 683 364 683 407 683 c 2,11,-1
 809 683 l 1,12,13
 813 662 813 662 813 639.5 c 128,-1,14
 813 617 813 617 804 593 c 1,15,16
 653.5 593 653.5 593 503 593 c 1,17,-1
 504 528 l 1,18,-1
 504 388 l 1,19,-1
 566 389 l 1,20,-1
 755 389 l 1,21,22
 760 371 760 371 760 344.5 c 128,-1,23
 760 318 760 318 755 301 c 1,24,-1
 566 301 l 2,25,26
 527 301 527 301 504 302 c 1,27,-1
 504 139 l 2,28,29
 504 130 504 130 503.5 113.5 c 128,-1,30
 503 97 503 97 503 87 c 1,31,32
 532 90 532 90 569 90 c 2,33,-1
 829 90 l 1,34,35
 829 63 829 63 826 49 c 1,36,37
 819 -1 819 -1 758 -1 c 2,38,-1
 461 -1 l 2,39,40
 433 -1 433 -1 417 16.5 c 128,-1,41
 401 34 401 34 401 65 c 2,42,-1
 401 166 l 1,0,-1
347 253 m 1,43,-1
 401 252 l 1,44,-1
 401 578 l 1,45,-1
 396 578 l 1,46,47
 362 494 362 494 333 433 c 2,48,-1
 245 252 l 1,49,-1
 286 253 l 1,50,-1
 347 253 l 1,43,-1
EndSplineSet
Substitution2: "'c2sc' Capitals to Small Capitals lookup 3 subtable" ae.smcp
Substitution2: "'aalt' Access All Alternates lookup 0 subtable" ae.smcp
EndChar

StartChar: Agrave
Encoding: 192 192 191
Width: 611
Flags: HMW
HStem: -13 20G<20 20 591 591> 165 88<228 352 252 352 352 355.5 252 369> 578 105<246 303 246 298> 728 174<218 390>
VStem: 20 571<7 7> 172 249<782 818>
LayerCount: 2
Fore
SplineSet
429 166 m 1,0,-1
 369 165 l 1,1,-1
 232 165 l 1,2,-1
 174 166 l 1,3,-1
 121 -1 l 1,4,5
 104 -5 104 -5 76 -5 c 128,-1,6
 48 -5 48 -5 23 2 c 1,7,-1
 20 7 l 1,8,-1
 246 683 l 1,9,10
 267 687 267 687 307 687 c 128,-1,11
 347 687 347 687 367 683 c 1,12,-1
 591 7 l 1,13,14
 570 -7 570 -7 537 -7 c 128,-1,15
 504 -7 504 -7 490 5 c 128,-1,16
 476 17 476 17 466 49 c 2,17,-1
 429 166 l 1,0,-1
201 252 m 1,18,-1
 252 253 l 1,19,-1
 352 253 l 2,20,21
 354 253 354 253 373.5 252.5 c 128,-1,22
 393 252 393 252 402 252 c 1,23,-1
 356 397 l 2,24,25
 321 509 321 509 303 578 c 1,26,-1
 298 578 l 1,27,28
 286 523 286 523 259 433 c 1,29,-1
 201 252 l 1,18,-1
218 902 m 1,30,-1
 421 782 l 1,31,32
 413 743 413 743 390 728 c 1,33,-1
 172 818 l 1,34,35
 175 842 175 842 189 866.5 c 128,-1,36
 203 891 203 891 218 902 c 1,30,-1
EndSplineSet
Substitution2: "'c2sc' Capitals to Small Capitals lookup 3 subtable" agrave.smcp
Substitution2: "'aalt' Access All Alternates lookup 0 subtable" agrave.smcp
EndChar

StartChar: Aacute
Encoding: 193 193 192
Width: 611
Flags: HMW
HStem: -13 20G<20 20 591 591> 165 88<228 352 252 352 352 355.5 252 369> 578 105<246 303 246 298> 728 174<237 409>
VStem: 20 571<7 7> 206 249<782 818>
LayerCount: 2
Fore
SplineSet
429 166 m 1,0,-1
 369 165 l 1,1,-1
 232 165 l 1,2,-1
 174 166 l 1,3,-1
 121 -1 l 1,4,5
 104 -5 104 -5 76 -5 c 128,-1,6
 48 -5 48 -5 23 2 c 1,7,-1
 20 7 l 1,8,-1
 246 683 l 1,9,10
 267 687 267 687 307 687 c 128,-1,11
 347 687 347 687 367 683 c 1,12,-1
 591 7 l 1,13,14
 570 -7 570 -7 537 -7 c 128,-1,15
 504 -7 504 -7 490 5 c 128,-1,16
 476 17 476 17 466 49 c 2,17,-1
 429 166 l 1,0,-1
201 252 m 1,18,-1
 252 253 l 1,19,-1
 352 253 l 2,20,21
 354 253 354 253 373.5 252.5 c 128,-1,22
 393 252 393 252 402 252 c 1,23,-1
 356 397 l 2,24,25
 321 509 321 509 303 578 c 1,26,-1
 298 578 l 1,27,28
 286 523 286 523 259 433 c 1,29,-1
 201 252 l 1,18,-1
206 782 m 1,30,-1
 409 902 l 1,31,32
 424 891 424 891 438 866.5 c 128,-1,33
 452 842 452 842 455 818 c 1,34,-1
 237 728 l 1,35,36
 226 735 226 735 217 751 c 128,-1,37
 208 767 208 767 206 782 c 1,30,-1
EndSplineSet
Substitution2: "'c2sc' Capitals to Small Capitals lookup 3 subtable" aacute.smcp
Substitution2: "'aalt' Access All Alternates lookup 0 subtable" aacute.smcp
EndChar

StartChar: Acircumflex
Encoding: 194 194 193
Width: 611
Flags: HMW
HStem: -13 20G<20 20 591 591> 165 88<228 352 252 352 352 355.5 252 369> 578 105<246 303 246 298> 812 80
VStem: 20 571<7 7> 146 318<775 782>
LayerCount: 2
Fore
SplineSet
429 166 m 1,0,-1
 369 165 l 1,1,-1
 232 165 l 1,2,-1
 174 166 l 1,3,-1
 121 -1 l 1,4,5
 104 -5 104 -5 76 -5 c 128,-1,6
 48 -5 48 -5 23 2 c 1,7,-1
 20 7 l 1,8,-1
 246 683 l 1,9,10
 267 687 267 687 307 687 c 128,-1,11
 347 687 347 687 367 683 c 1,12,-1
 591 7 l 1,13,14
 570 -7 570 -7 537 -7 c 128,-1,15
 504 -7 504 -7 490 5 c 128,-1,16
 476 17 476 17 466 49 c 2,17,-1
 429 166 l 1,0,-1
201 252 m 1,18,-1
 252 253 l 1,19,-1
 352 253 l 2,20,21
 354 253 354 253 373.5 252.5 c 128,-1,22
 393 252 393 252 402 252 c 1,23,-1
 356 397 l 2,24,25
 321 509 321 509 303 578 c 1,26,-1
 298 578 l 1,27,28
 286 523 286 523 259 433 c 1,29,-1
 201 252 l 1,18,-1
419 737 m 1,30,-1
 306 812 l 1,31,-1
 191 729 l 1,32,33
 178 734 178 734 164 747.5 c 128,-1,34
 150 761 150 761 146 775 c 1,35,-1
 260 888 l 1,36,37
 307 897 307 897 352 888 c 1,38,-1
 464 782 l 1,39,40
 459 766 459 766 445.5 753.5 c 128,-1,41
 432 741 432 741 419 737 c 1,30,-1
EndSplineSet
Substitution2: "'c2sc' Capitals to Small Capitals lookup 3 subtable" acircumflex.smcp
Substitution2: "'aalt' Access All Alternates lookup 0 subtable" acircumflex.smcp
EndChar

StartChar: Atilde
Encoding: 195 195 194
Width: 611
Flags: HMW
HStem: -13 20G<20 20 591 591> 165 88<228 352 252 352 352 355.5 252 369> 578 105<246 303 246 298> 741 85<379.5 392 379.5 398>
VStem: 20 571<7 7> 126 362<784 833>
LayerCount: 2
Fore
SplineSet
429 166 m 1,0,-1
 369 165 l 1,1,-1
 232 165 l 1,2,-1
 174 166 l 1,3,-1
 121 -1 l 1,4,5
 104 -5 104 -5 76 -5 c 128,-1,6
 48 -5 48 -5 23 2 c 1,7,-1
 20 7 l 1,8,-1
 246 683 l 1,9,10
 267 687 267 687 307 687 c 128,-1,11
 347 687 347 687 367 683 c 1,12,-1
 591 7 l 1,13,14
 570 -7 570 -7 537 -7 c 128,-1,15
 504 -7 504 -7 490 5 c 128,-1,16
 476 17 476 17 466 49 c 2,17,-1
 429 166 l 1,0,-1
201 252 m 1,18,-1
 252 253 l 1,19,-1
 352 253 l 2,20,21
 354 253 354 253 373.5 252.5 c 128,-1,22
 393 252 393 252 402 252 c 1,23,-1
 356 397 l 2,24,25
 321 509 321 509 303 578 c 1,26,-1
 298 578 l 1,27,28
 286 523 286 523 259 433 c 1,29,-1
 201 252 l 1,18,-1
318 756 m 1,30,-1
 262 783 l 2,31,32
 242 792 242 792 225 792 c 128,-1,33
 208 792 208 792 190 767 c 1,34,-1
 178 753 l 1,35,36
 163 753 163 753 147.5 762 c 128,-1,37
 132 771 132 771 126 784 c 1,38,-1
 135 804 l 2,39,40
 149 837 149 837 176.5 857 c 128,-1,41
 204 877 204 877 234 877 c 128,-1,42
 264 877 264 877 296 861 c 1,43,-1
 352 835 l 1,44,45
 368 826 368 826 386.5 826 c 128,-1,46
 405 826 405 826 424 851 c 1,47,-1
 436 865 l 1,48,49
 473 863 473 863 488 833 c 1,50,-1
 479 814 l 1,51,52
 446 741 446 741 377 741 c 0,53,54
 352 741 352 741 318 756 c 1,30,-1
EndSplineSet
Substitution2: "'c2sc' Capitals to Small Capitals lookup 3 subtable" atilde.smcp
Substitution2: "'aalt' Access All Alternates lookup 0 subtable" atilde.smcp
EndChar

StartChar: Adieresis
Encoding: 196 196 195
Width: 611
Flags: HMW
HStem: -13 20G<20 20 591 591> 165 88<228 352 252 352 352 355.5 252 369> 578 105<246 303 246 298> 748 94
VStem: 20 571<7 7> 153 97<748 748 830 830> 364 97<748 748 830 830>
LayerCount: 2
Fore
SplineSet
429 166 m 1,0,-1
 369 165 l 1,1,-1
 232 165 l 1,2,-1
 174 166 l 1,3,-1
 121 -1 l 1,4,5
 104 -5 104 -5 76 -5 c 128,-1,6
 48 -5 48 -5 23 2 c 1,7,-1
 20 7 l 1,8,-1
 246 683 l 1,9,10
 267 687 267 687 307 687 c 128,-1,11
 347 687 347 687 367 683 c 1,12,-1
 591 7 l 1,13,14
 570 -7 570 -7 537 -7 c 128,-1,15
 504 -7 504 -7 490 5 c 128,-1,16
 476 17 476 17 466 49 c 2,17,-1
 429 166 l 1,0,-1
201 252 m 1,18,-1
 252 253 l 1,19,-1
 352 253 l 2,20,21
 354 253 354 253 373.5 252.5 c 128,-1,22
 393 252 393 252 402 252 c 1,23,-1
 356 397 l 2,24,25
 321 509 321 509 303 578 c 1,26,-1
 298 578 l 1,27,28
 286 523 286 523 259 433 c 1,29,-1
 201 252 l 1,18,-1
364 830 m 1,30,31
 383 842 383 842 411.5 842 c 128,-1,32
 440 842 440 842 461 830 c 1,33,34
 470 812 470 812 470 789 c 128,-1,35
 470 766 470 766 461 748 c 1,36,37
 443 736 443 736 411.5 736 c 128,-1,38
 380 736 380 736 364 748 c 1,39,40
 354 763 354 763 354 789 c 128,-1,41
 354 815 354 815 364 830 c 1,30,31
153 830 m 1,42,43
 172 842 172 842 201.5 842 c 128,-1,44
 231 842 231 842 250 830 c 1,45,46
 260 815 260 815 260 789 c 128,-1,47
 260 763 260 763 250 748 c 1,48,49
 233 736 233 736 201.5 736 c 128,-1,50
 170 736 170 736 153 748 c 1,51,52
 144 766 144 766 144 789 c 128,-1,53
 144 812 144 812 153 830 c 1,42,43
EndSplineSet
Substitution2: "'c2sc' Capitals to Small Capitals lookup 3 subtable" adieresis.smcp
Substitution2: "'aalt' Access All Alternates lookup 0 subtable" adieresis.smcp
EndChar

StartChar: Aring
Encoding: 197 197 196
Width: 611
Flags: HMW
HStem: -13 20G<20 20 591 591> -5 12 165 88<228 352 252 352 352 355.5 252 369> 835 59<292 321.5>
VStem: 186 70<765 796.5 765 812> 357 71<765 796.5>
LayerCount: 2
Fore
SplineSet
429 166 m 1,0,-1
 369 165 l 1,1,-1
 232 165 l 1,2,-1
 174 166 l 1,3,-1
 121 -1 l 1,4,5
 104 -5 104 -5 76 -5 c 128,-1,6
 48 -5 48 -5 23 2 c 1,7,-1
 20 7 l 1,8,-1
 245 681 l 1,9,10
 186 713 186 713 186 781 c 0,11,12
 186 828 186 828 220 861 c 128,-1,13
 254 894 254 894 306.5 894 c 128,-1,14
 359 894 359 894 393.5 861 c 128,-1,15
 428 828 428 828 428 781 c 0,16,17
 428 712 428 712 367 681 c 1,18,-1
 591 7 l 1,19,20
 570 -7 570 -7 537 -7 c 128,-1,21
 504 -7 504 -7 490 5 c 128,-1,22
 476 17 476 17 466 49 c 2,23,-1
 429 166 l 1,0,-1
201 252 m 1,24,-1
 252 253 l 1,25,-1
 352 253 l 2,26,27
 354 253 354 253 373.5 252.5 c 128,-1,28
 393 252 393 252 402 252 c 1,29,-1
 356 397 l 2,30,31
 321 509 321 509 303 578 c 1,32,-1
 298 578 l 1,33,34
 286 523 286 523 259 433 c 1,35,-1
 201 252 l 1,24,-1
270.5 819.5 m 128,-1,37
 256 804 256 804 256 780.5 c 128,-1,38
 256 757 256 757 270.5 741.5 c 128,-1,39
 285 726 285 726 307 726 c 128,-1,40
 329 726 329 726 343 741.5 c 128,-1,41
 357 757 357 757 357 780.5 c 128,-1,42
 357 804 357 804 343 819.5 c 128,-1,43
 329 835 329 835 307 835 c 128,-1,36
 285 835 285 835 270.5 819.5 c 128,-1,37
EndSplineSet
Substitution2: "'c2sc' Capitals to Small Capitals lookup 3 subtable" aring.smcp
Substitution2: "'aalt' Access All Alternates lookup 0 subtable" aring.smcp
EndChar

StartChar: Ccedilla
Encoding: 199 199 197
Width: 604
Flags: HMW
HStem: -223 20 -223 58<293.5 316.5 292 343.5> -87 50 -11 91 610 86<268.5 375>
VStem: 49 112<255.5 426.5 255.5 462.5> 346 83<-136.5 -115.5>
LayerCount: 2
Fore
SplineSet
262 -74 m 1,0,1
 272 -40 272 -40 283 -11 c 1,2,3
 221 -6 221 -6 174.5 25.5 c 128,-1,4
 128 57 128 57 101.5 106.5 c 0,5,6
 49 204.566037736 49 204.566037736 49 338 c 0,7,8
 49 515 49 515 126.5 605.5 c 128,-1,9
 204 696 204 696 317.5 696 c 128,-1,10
 431 696 431 696 497.5 638 c 128,-1,11
 564 580 564 580 564 501 c 0,12,13
 564 441 564 441 504 441 c 0,14,15
 486 441 486 441 460 447 c 1,16,17
 462 513 462 513 428.5 561.5 c 128,-1,18
 395 610 395 610 318.5 610 c 128,-1,19
 242 610 242 610 201.5 540.5 c 128,-1,20
 161 471 161 471 161 343 c 128,-1,21
 161 215 161 215 205 147.5 c 128,-1,22
 249 80 249 80 331.5 80 c 128,-1,23
 414 80 414 80 506 156 c 1,24,25
 547 129 547 129 559 87 c 1,26,27
 476 4 476 4 347 -11 c 1,28,29
 338 -29 338 -29 336 -37 c 1,30,31
 378 -39 378 -39 403.5 -63 c 128,-1,32
 429 -87 429 -87 429 -127.5 c 128,-1,33
 429 -168 429 -168 395 -195.5 c 128,-1,34
 361 -223 361 -223 311 -223 c 128,-1,35
 261 -223 261 -223 230 -203 c 1,36,37
 231 -176 231 -176 251 -151 c 1,38,39
 272 -165 272 -165 297.5 -165 c 128,-1,40
 323 -165 323 -165 334.5 -154 c 128,-1,41
 346 -143 346 -143 346 -126 c 128,-1,42
 346 -109 346 -109 334.5 -98 c 128,-1,43
 323 -87 323 -87 306.5 -87 c 128,-1,44
 290 -87 290 -87 280 -92 c 1,45,46
 268 -87 268 -87 262 -74 c 1,0,1
EndSplineSet
Substitution2: "'c2sc' Capitals to Small Capitals lookup 3 subtable" ccedilla.smcp
Substitution2: "'aalt' Access All Alternates lookup 0 subtable" ccedilla.smcp
EndChar

StartChar: Egrave
Encoding: 200 200 198
Width: 566
Flags: HMW
HStem: -1 91<260 448> 301 88<249.5 445 257 445> 593 90<194 257 257 494> 728 174<210 382>
VStem: 90 105<129 138 138 302 388 528> 164 249<782 818>
LayerCount: 2
Fore
SplineSet
195 138 m 1,0,-1
 194 87 l 1,1,2
 224 90 224 90 260 90 c 2,3,-1
 519 90 l 1,4,5
 519 63 519 63 516 49 c 0,6,7
 507 -1 507 -1 448 -1 c 2,8,-1
 151 -1 l 2,9,10
 123 -1 123 -1 106.5 16.5 c 128,-1,11
 90 34 90 34 90 65 c 2,12,-1
 90 677 l 1,13,-1
 97 683 l 1,14,-1
 499 683 l 1,15,16
 502 667 502 667 502 640.5 c 128,-1,17
 502 614 502 614 494 593 c 1,18,19
 344 593 344 593 194 593 c 1,20,21
 195 528 l 1,22,-1
 195 388 l 1,23,-1
 257 389 l 1,24,-1
 445 389 l 1,25,26
 450 371 450 371 450 344.5 c 128,-1,27
 450 318 450 318 445 301 c 1,28,-1
 257 301 l 2,29,30
 218 301 218 301 195 302 c 1,31,-1
 195 138 l 1,0,-1
210 902 m 1,32,-1
 413 782 l 1,33,34
 405 743 405 743 382 728 c 1,35,-1
 164 818 l 1,36,37
 167 842 167 842 181 866.5 c 128,-1,38
 195 891 195 891 210 902 c 1,32,-1
EndSplineSet
Substitution2: "'c2sc' Capitals to Small Capitals lookup 3 subtable" egrave.smcp
Substitution2: "'aalt' Access All Alternates lookup 0 subtable" egrave.smcp
EndChar

StartChar: Eacute
Encoding: 201 201 199
Width: 566
Flags: HMW
HStem: -1 91<260 448> 301 88<249.5 445 257 445> 593 90<194 257 257 494> 728 174<229 401>
VStem: 90 105<129 138 138 302 388 528> 198 249<782 818>
LayerCount: 2
Fore
SplineSet
195 138 m 1,0,-1
 194 87 l 1,1,2
 224 90 224 90 260 90 c 2,3,-1
 519 90 l 1,4,5
 519 63 519 63 516 49 c 0,6,7
 507 -1 507 -1 448 -1 c 2,8,-1
 151 -1 l 2,9,10
 123 -1 123 -1 106.5 16.5 c 128,-1,11
 90 34 90 34 90 65 c 2,12,-1
 90 677 l 1,13,-1
 97 683 l 1,14,-1
 499 683 l 1,15,16
 502 667 502 667 502 640.5 c 128,-1,17
 502 614 502 614 494 593 c 1,18,19
 344 593 344 593 194 593 c 1,20,21
 195 528 l 1,22,-1
 195 388 l 1,23,-1
 257 389 l 1,24,-1
 445 389 l 1,25,26
 450 371 450 371 450 344.5 c 128,-1,27
 450 318 450 318 445 301 c 1,28,-1
 257 301 l 2,29,30
 218 301 218 301 195 302 c 1,31,-1
 195 138 l 1,0,-1
198 782 m 1,32,-1
 401 902 l 1,33,34
 416 891 416 891 430 866.5 c 128,-1,35
 444 842 444 842 447 818 c 1,36,-1
 229 728 l 1,37,38
 218 735 218 735 209 751 c 128,-1,39
 200 767 200 767 198 782 c 1,32,-1
EndSplineSet
Substitution2: "'c2sc' Capitals to Small Capitals lookup 3 subtable" eacute.smcp
Substitution2: "'aalt' Access All Alternates lookup 0 subtable" eacute.smcp
EndChar

StartChar: Ecircumflex
Encoding: 202 202 200
Width: 566
Flags: HMW
HStem: -1 91<260 448> 301 88<249.5 445 257 445> 593 90<194 257 257 494> 812 80
VStem: 90 105<129 138 138 302 388 528> 138 318<775 782>
LayerCount: 2
Fore
SplineSet
195 138 m 1,0,-1
 194 87 l 1,1,2
 224 90 224 90 260 90 c 2,3,-1
 519 90 l 1,4,5
 519 63 519 63 516 49 c 0,6,7
 507 -1 507 -1 448 -1 c 2,8,-1
 151 -1 l 2,9,10
 123 -1 123 -1 106.5 16.5 c 128,-1,11
 90 34 90 34 90 65 c 2,12,-1
 90 677 l 1,13,-1
 97 683 l 1,14,-1
 499 683 l 1,15,16
 502 667 502 667 502 640.5 c 128,-1,17
 502 614 502 614 494 593 c 1,18,19
 344 593 344 593 194 593 c 1,20,21
 195 528 l 1,22,-1
 195 388 l 1,23,-1
 257 389 l 1,24,-1
 445 389 l 1,25,26
 450 371 450 371 450 344.5 c 128,-1,27
 450 318 450 318 445 301 c 1,28,-1
 257 301 l 2,29,30
 218 301 218 301 195 302 c 1,31,-1
 195 138 l 1,0,-1
411 737 m 1,32,-1
 298 812 l 1,33,-1
 183 729 l 1,34,35
 170 734 170 734 156 747.5 c 128,-1,36
 142 761 142 761 138 775 c 1,37,-1
 252 888 l 1,38,39
 299 897 299 897 344 888 c 1,40,-1
 456 782 l 1,41,42
 451 766 451 766 437.5 753.5 c 128,-1,43
 424 741 424 741 411 737 c 1,32,-1
EndSplineSet
Substitution2: "'c2sc' Capitals to Small Capitals lookup 3 subtable" ecircumflex.smcp
Substitution2: "'aalt' Access All Alternates lookup 0 subtable" ecircumflex.smcp
EndChar

StartChar: Edieresis
Encoding: 203 203 201
Width: 566
Flags: HMW
HStem: -1 91<260 448> 301 88<249.5 445 257 445> 593 90<194 257 257 494> 748 94
VStem: 90 105<129 138 138 302 388 528> 145 97<748 748 830 830> 356 97<748 748 830 830>
LayerCount: 2
Fore
SplineSet
195 138 m 1,0,-1
 194 87 l 1,1,2
 224 90 224 90 260 90 c 2,3,-1
 519 90 l 1,4,5
 519 63 519 63 516 49 c 0,6,7
 507 -1 507 -1 448 -1 c 2,8,-1
 151 -1 l 2,9,10
 123 -1 123 -1 106.5 16.5 c 128,-1,11
 90 34 90 34 90 65 c 2,12,-1
 90 677 l 1,13,-1
 97 683 l 1,14,-1
 499 683 l 1,15,16
 502 667 502 667 502 640.5 c 128,-1,17
 502 614 502 614 494 593 c 1,18,19
 344 593 344 593 194 593 c 1,20,21
 195 528 l 1,22,-1
 195 388 l 1,23,-1
 257 389 l 1,24,-1
 445 389 l 1,25,26
 450 371 450 371 450 344.5 c 128,-1,27
 450 318 450 318 445 301 c 1,28,-1
 257 301 l 2,29,30
 218 301 218 301 195 302 c 1,31,-1
 195 138 l 1,0,-1
356 830 m 1,32,33
 375 842 375 842 403.5 842 c 128,-1,34
 432 842 432 842 453 830 c 1,35,36
 462 812 462 812 462 789 c 128,-1,37
 462 766 462 766 453 748 c 1,38,39
 435 736 435 736 403.5 736 c 128,-1,40
 372 736 372 736 356 748 c 1,41,42
 346 763 346 763 346 789 c 128,-1,43
 346 815 346 815 356 830 c 1,32,33
145 830 m 1,44,45
 164 842 164 842 193.5 842 c 128,-1,46
 223 842 223 842 242 830 c 1,47,48
 252 815 252 815 252 789 c 128,-1,49
 252 763 252 763 242 748 c 1,50,51
 226 736 226 736 194 736 c 128,-1,52
 162 736 162 736 145 748 c 1,53,54
 136 766 136 766 136 789 c 128,-1,55
 136 812 136 812 145 830 c 1,44,45
EndSplineSet
Substitution2: "'c2sc' Capitals to Small Capitals lookup 3 subtable" edieresis.smcp
Substitution2: "'aalt' Access All Alternates lookup 0 subtable" edieresis.smcp
EndChar

StartChar: Igrave
Encoding: 204 204 202
Width: 294
Flags: HMW
HStem: -4 691<139 155> 728 174<58 230>
VStem: 12 249<782 818> 94 106<0 683 0 683>
LayerCount: 2
Fore
SplineSet
94 0 m 1,0,-1
 94 683 l 1,1,2
 114 687 114 687 146.5 687 c 0,3,4
 179 687 179 687 200 683 c 1,5,-1
 200 0 l 1,6,7
 179 -4 179 -4 146.5 -4 c 0,8,9
 114 -4 114 -4 94 0 c 1,0,-1
58 902 m 1,10,-1
 261 782 l 1,11,12
 253 743 253 743 230 728 c 1,13,-1
 12 818 l 1,14,15
 15 842 15 842 29 866.5 c 128,-1,16
 43 891 43 891 58 902 c 1,10,-1
EndSplineSet
Substitution2: "'c2sc' Capitals to Small Capitals lookup 3 subtable" igrave.smcp
Substitution2: "'aalt' Access All Alternates lookup 0 subtable" igrave.smcp
EndChar

StartChar: Iacute
Encoding: 205 205 203
Width: 294
Flags: HMW
HStem: -4 691<139 155> 728 174<77 249>
VStem: 46 249<782 818> 94 106<0 683 0 683>
LayerCount: 2
Fore
SplineSet
94 0 m 1,0,-1
 94 683 l 1,1,2
 114 687 114 687 146.5 687 c 0,3,4
 179 687 179 687 200 683 c 1,5,-1
 200 0 l 1,6,7
 179 -4 179 -4 146.5 -4 c 0,8,9
 114 -4 114 -4 94 0 c 1,0,-1
46 782 m 1,10,-1
 249 902 l 1,11,12
 264 891 264 891 278 866.5 c 128,-1,13
 292 842 292 842 295 818 c 1,14,-1
 77 728 l 1,15,16
 66 735 66 735 57 751 c 128,-1,17
 48 767 48 767 46 782 c 1,10,-1
EndSplineSet
Substitution2: "'c2sc' Capitals to Small Capitals lookup 3 subtable" iacute.smcp
Substitution2: "'aalt' Access All Alternates lookup 0 subtable" iacute.smcp
EndChar

StartChar: Itilde
Encoding: 296 296 204
Width: 294
Flags: HMW
HStem: -4 691<139 155> 741 85<219.5 232 219.5 238>
VStem: -34 362<784 833> 94 106<0 683 0 683>
LayerCount: 2
Fore
SplineSet
94 0 m 1,0,-1
 94 683 l 1,1,2
 114 687 114 687 146.5 687 c 0,3,4
 179 687 179 687 200 683 c 1,5,-1
 200 0 l 1,6,7
 179 -4 179 -4 146.5 -4 c 0,8,9
 114 -4 114 -4 94 0 c 1,0,-1
158 756 m 1,10,-1
 102 783 l 2,11,12
 82 792 82 792 65 792 c 0,13,14
 48 792 48 792 30 767 c 1,15,-1
 18 753 l 1,16,17
 3 753 3 753 -12.5 762 c 128,-1,18
 -28 771 -28 771 -34 784 c 1,19,-1
 -25 804 l 2,20,21
 -11 837 -11 837 16.5 857 c 128,-1,22
 44 877 44 877 74 877 c 0,23,24
 104 877 104 877 136 861 c 1,25,-1
 192 835 l 1,26,27
 208 826 208 826 226.5 826 c 0,28,29
 245 826 245 826 264 851 c 1,30,-1
 276 865 l 1,31,32
 313 863 313 863 328 833 c 1,33,-1
 319 814 l 1,34,35
 286 741 286 741 217 741 c 0,36,37
 192 741 192 741 158 756 c 1,10,-1
EndSplineSet
Substitution2: "'c2sc' Capitals to Small Capitals lookup 3 subtable" itilde.smcp
Substitution2: "'aalt' Access All Alternates lookup 0 subtable" itilde.smcp
EndChar

StartChar: Icircumflex
Encoding: 206 206 205
Width: 294
Flags: HMW
HStem: -4 691<139 155> 812 80
VStem: -14 318<775 782> 94 106<0 683 0 683>
LayerCount: 2
Fore
SplineSet
94 0 m 1,0,-1
 94 683 l 1,1,2
 114 687 114 687 146.5 687 c 0,3,4
 179 687 179 687 200 683 c 1,5,-1
 200 0 l 1,6,7
 179 -4 179 -4 146.5 -4 c 0,8,9
 114 -4 114 -4 94 0 c 1,0,-1
259 737 m 1,10,-1
 146 812 l 1,11,-1
 31 729 l 1,12,13
 18 734 18 734 4 747.5 c 128,-1,14
 -10 761 -10 761 -14 775 c 1,15,-1
 100 888 l 1,16,17
 147 897 147 897 192 888 c 1,18,-1
 304 782 l 1,19,20
 299 766 299 766 285.5 753.5 c 128,-1,21
 272 741 272 741 259 737 c 1,10,-1
EndSplineSet
Substitution2: "'c2sc' Capitals to Small Capitals lookup 3 subtable" icircumflex.smcp
Substitution2: "'aalt' Access All Alternates lookup 0 subtable" icircumflex.smcp
EndChar

StartChar: Idieresis
Encoding: 207 207 206
Width: 294
Flags: HMW
HStem: -4 691<139 155> 748 94
VStem: -7 97<748 748 830 830> 94 106<0 683 0 683> 204 97<748 748 830 830>
LayerCount: 2
Fore
SplineSet
94 0 m 1,0,-1
 94 683 l 1,1,2
 114 687 114 687 146.5 687 c 128,-1,3
 179 687 179 687 200 683 c 1,4,-1
 200 0 l 1,5,6
 179 -4 179 -4 146.5 -4 c 128,-1,7
 114 -4 114 -4 94 0 c 1,0,-1
204 830 m 1,8,9
 223 842 223 842 251.5 842 c 128,-1,10
 280 842 280 842 301 830 c 1,11,12
 310 812 310 812 310 789 c 128,-1,13
 310 766 310 766 301 748 c 1,14,15
 283 736 283 736 251.5 736 c 128,-1,16
 220 736 220 736 204 748 c 1,17,18
 194 763 194 763 194 789 c 128,-1,19
 194 815 194 815 204 830 c 1,8,9
-7 830 m 1,20,21
 12 842 12 842 41.5 842 c 128,-1,22
 71 842 71 842 90 830 c 1,23,24
 100 815 100 815 100 789 c 128,-1,25
 100 763 100 763 90 748 c 1,26,27
 74 736 74 736 42 736 c 128,-1,28
 10 736 10 736 -7 748 c 1,29,30
 -16 766 -16 766 -16 789 c 128,-1,31
 -16 812 -16 812 -7 830 c 1,20,21
EndSplineSet
Substitution2: "'c2sc' Capitals to Small Capitals lookup 3 subtable" idieresis.smcp
Substitution2: "'aalt' Access All Alternates lookup 0 subtable" idieresis.smcp
EndChar

StartChar: IJ
Encoding: 306 306 207
Width: 740
Flags: HMW
HStem: -10 89<432 490 430.5 544.5> -4 691<139 155>
VStem: 94 106<0 683 0 683> 556 106<234 249 249 683>
LayerCount: 2
Fore
SplineSet
94 0 m 1,0,-1
 94 683 l 1,1,2
 114 687 114 687 146.5 687 c 128,-1,3
 179 687 179 687 200 683 c 1,4,-1
 200 0 l 1,5,6
 179 -4 179 -4 146.5 -4 c 128,-1,7
 114 -4 114 -4 94 0 c 1,0,-1
342 112 m 1,8,9
 397 79 397 79 453 79 c 128,-1,10
 509 79 509 79 532.5 115 c 128,-1,11
 556 151 556 151 556 234 c 2,12,-1
 556 683 l 1,13,14
 577 687 577 687 609 687 c 128,-1,15
 641 687 641 687 662 683 c 1,16,-1
 662 249 l 2,17,18
 662 188 662 188 654 145.5 c 128,-1,19
 646 103 646 103 625 65.5 c 0,20,21
 582.72 -10 582.72 -10 458 -10 c 0,22,23
 370 -10 370 -10 302 32 c 1,24,25
 310 78 310 78 342 112 c 1,8,9
EndSplineSet
Substitution2: "'c2sc' Capitals to Small Capitals lookup 3 subtable" ij.smcp
Substitution2: "'aalt' Access All Alternates lookup 0 subtable" ij.smcp
EndChar

StartChar: Jcircumflex
Encoding: 308 308 208
Width: 448
Flags: HMW
HStem: -10 89<140 198 138.5 252.5> 812 80
VStem: 157 318<775 782> 264 106<234 249 249 683>
LayerCount: 2
Fore
SplineSet
50 112 m 1,0,1
 105 79 105 79 161 79 c 128,-1,2
 217 79 217 79 240.5 115 c 128,-1,3
 264 151 264 151 264 234 c 2,4,-1
 264 683 l 1,5,6
 285 687 285 687 317 687 c 128,-1,7
 349 687 349 687 370 683 c 1,8,-1
 370 249 l 2,9,10
 370 188 370 188 362 145.5 c 128,-1,11
 354 103 354 103 333 65.5 c 0,12,13
 290.72 -10 290.72 -10 166 -10 c 0,14,15
 78 -10 78 -10 10 32 c 1,16,17
 18 78 18 78 50 112 c 1,0,1
430 737 m 1,18,-1
 317 812 l 1,19,-1
 202 729 l 1,20,21
 189 734 189 734 175 747.5 c 128,-1,22
 161 761 161 761 157 775 c 1,23,-1
 271 888 l 1,24,25
 318 897 318 897 363 888 c 1,26,-1
 475 782 l 1,27,28
 470 766 470 766 456.5 753.5 c 128,-1,29
 443 741 443 741 430 737 c 1,18,-1
EndSplineSet
Substitution2: "'c2sc' Capitals to Small Capitals lookup 3 subtable" jcircumflex.smcp
Substitution2: "'aalt' Access All Alternates lookup 0 subtable" jcircumflex.smcp
EndChar

StartChar: Lslash
Encoding: 321 321 209
Width: 518
Flags: HMW
HStem: -1 93<292 419>
VStem: 97 106<88 285 285 285 403 619>
LayerCount: 2
Fore
SplineSet
203 619 m 2,0,-1
 203 403 l 1,1,-1
 379 463 l 1,2,-1
 387 459 l 1,3,4
 398 426 398 426 389 378 c 1,5,-1
 203 317 l 1,6,-1
 203 88 l 1,7,8
 244 92 244 92 292 92 c 2,9,-1
 491 92 l 1,10,11
 491 63 491 63 488 50 c 0,12,13
 480 -1 480 -1 419 -1 c 2,14,-1
 159 -1 l 2,15,16
 131 -1 131 -1 114 16 c 128,-1,17
 97 33 97 33 97 65 c 2,18,-1
 97 285 l 1,19,-1
 28 261 l 1,20,-1
 21 265 l 1,21,22
 9 303 9 303 19 346 c 1,23,-1
 97 373 l 1,24,-1
 97 681 l 1,25,-1
 103 687 l 1,26,-1
 144 687 l 2,27,28
 176 687 176 687 189.5 671 c 128,-1,29
 203 655 203 655 203 619 c 2,0,-1
EndSplineSet
Substitution2: "'c2sc' Capitals to Small Capitals lookup 3 subtable" lslash.smcp
Substitution2: "'aalt' Access All Alternates lookup 0 subtable" lslash.smcp
EndChar

StartChar: Ldot
Encoding: 319 319 210
Width: 512
Flags: HMW
HStem: -1 93<286 413> 307 93<344 344 449 449>
VStem: 90 107<88 619 88 681 88 681> 337 112
LayerCount: 2
Fore
SplineSet
286 92 m 2,0,-1
 485 92 l 1,1,2
 485 70 485 70 482 50 c 0,3,4
 473 -1 473 -1 413 -1 c 2,5,-1
 152 -1 l 2,6,7
 124 -1 124 -1 107 16.5 c 128,-1,8
 90 34 90 34 90 65 c 2,9,-1
 90 681 l 1,10,-1
 97 687 l 1,11,-1
 137 687 l 2,12,13
 170 687 170 687 183.5 671 c 128,-1,14
 197 655 197 655 197 619 c 2,15,-1
 197 88 l 1,16,17
 238 92 238 92 286 92 c 2,0,-1
337 354 m 128,-1,19
 337 386 337 386 344 400 c 1,20,21
 364 413 364 413 397 413 c 128,-1,22
 430 413 430 413 449 400 c 1,23,24
 456 386 456 386 456 354 c 128,-1,25
 456 322 456 322 449 307 c 1,26,27
 431 294 431 294 397.5 294 c 0,28,29
 364 294 364 294 344 307 c 1,30,18
 337 322 337 322 337 354 c 128,-1,19
EndSplineSet
Substitution2: "'c2sc' Capitals to Small Capitals lookup 3 subtable" ldot.smcp
Substitution2: "'aalt' Access All Alternates lookup 0 subtable" ldot.smcp
EndChar

StartChar: Nacute
Encoding: 323 323 211
Width: 680
Flags: HMW
HStem: 537 20G<181 181> 728 174<273 445>
VStem: 91 99<0 312 0 682> 242 249<372 782> 491 98<372 621 621 644.5>
LayerCount: 2
Fore
SplineSet
583 687 m 1,0,-1
 589 682 l 1,1,-1
 589 1 l 1,2,3
 561 -4 561 -4 525 -4 c 128,-1,4
 489 -4 489 -4 461 0 c 1,5,-1
 248 419 l 1,6,7
 216 486 216 486 185 558 c 1,8,-1
 181 557 l 1,9,10
 190 402 190 402 190 312 c 2,11,-1
 190 0 l 1,12,13
 166 -4 166 -4 140 -4 c 0,14,15
 114 -4 114 -4 91 0 c 1,16,-1
 91 682 l 1,17,18
 119 687 119 687 154.5 687 c 0,19,20
 190 687 190 687 218 683 c 1,21,-1
 429 264 l 2,22,23
 443 234 443 234 466 182.5 c 128,-1,24
 489 131 489 131 495 119 c 1,25,-1
 499 120 l 1,26,27
 491 248 491 248 491 372 c 2,28,-1
 491 621 l 2,29,30
 491 657 491 657 503.5 672 c 128,-1,31
 516 687 516 687 548 687 c 2,32,-1
 583 687 l 1,0,-1
242 782 m 1,33,-1
 445 902 l 1,34,35
 460 891 460 891 474 866.5 c 128,-1,36
 488 842 488 842 491 818 c 1,37,-1
 273 728 l 1,38,39
 262 735 262 735 253 751 c 128,-1,40
 244 767 244 767 242 782 c 1,33,-1
EndSplineSet
Substitution2: "'c2sc' Capitals to Small Capitals lookup 3 subtable" nacute.smcp
Substitution2: "'aalt' Access All Alternates lookup 0 subtable" nacute.smcp
EndChar

